<svg width="32" height="33" viewBox="0 0 32 33" fill="none" xmlns="http://www.w3.org/2000/svg">
<rect y="0.285156" width="32" height="32" rx="16" fill="white" fill-opacity="0.03"/>
<path d="M22.6669 12.5117C22.4171 12.2634 22.0792 12.124 21.7269 12.124C21.3747 12.124 21.0367 12.2634 20.7869 12.5117L16.0003 17.2317L11.2803 12.5117C11.0304 12.2634 10.6925 12.124 10.3403 12.124C9.98801 12.124 9.65007 12.2634 9.40026 12.5117C9.27529 12.6357 9.17609 12.7832 9.1084 12.9456C9.04071 13.1081 9.00586 13.2824 9.00586 13.4584C9.00586 13.6344 9.04071 13.8087 9.1084 13.9712C9.17609 14.1337 9.27529 14.2811 9.40026 14.4051L15.0536 20.0584C15.1775 20.1834 15.325 20.2826 15.4875 20.3503C15.65 20.418 15.8242 20.4528 16.0003 20.4528C16.1763 20.4528 16.3505 20.418 16.513 20.3503C16.6755 20.2826 16.823 20.1834 16.9469 20.0584L22.6669 14.4051C22.7919 14.2811 22.8911 14.1337 22.9588 13.9712C23.0265 13.8087 23.0613 13.6344 23.0613 13.4584C23.0613 13.2824 23.0265 13.1081 22.9588 12.9456C22.8911 12.7832 22.7919 12.6357 22.6669 12.5117Z" fill="#D19A66"/>
</svg>
