<svg width="287" height="242" viewBox="0 0 287 242" fill="none" xmlns="http://www.w3.org/2000/svg">
<g clip-path="url(#clip0_488_27285)">
<g filter="url(#filter0_bf_488_27285)">
<path d="M164.223 77.76C175.292 73.0706 186.573 68.8604 198.093 65.3833C209.605 61.928 221.372 59.1551 233.356 57.8702C239.345 57.2387 245.399 57.0645 251.416 57.6234C254.422 57.9065 257.412 58.451 260.316 59.3003C263.212 60.1568 266.05 61.3618 268.54 63.1258C271.037 64.8679 273.142 67.2271 274.478 69.9783C275.857 72.715 276.438 75.8073 276.459 78.8416C276.459 81.8904 275.93 84.9174 275.059 87.8138C274.209 90.7246 273.033 93.5266 271.69 96.227C268.99 101.642 265.622 106.68 261.971 111.471C258.312 116.262 254.342 120.806 250.19 125.169C241.878 133.894 232.877 141.923 223.535 149.508C204.8 164.629 184.693 178 163.816 189.977C142.889 201.86 121.01 212.161 98.1958 219.906C86.7921 223.746 75.1416 226.955 63.2588 228.98C57.321 229.982 51.3179 230.679 45.2858 230.868C39.2609 231.049 33.178 230.73 27.2692 229.35C24.3294 228.632 21.4331 227.645 18.7546 226.186C17.4189 225.452 16.1414 224.61 14.9654 223.638C13.7968 222.658 12.737 221.54 11.8296 220.306C10.0149 217.838 8.89701 214.883 8.51229 211.856C8.11305 208.829 8.38888 205.751 9.02767 202.797C9.65919 199.828 10.7335 196.982 11.9312 194.217C13.1289 191.436 14.6097 188.801 16.1414 186.21C19.2845 181.063 22.8849 176.207 26.7466 171.59C34.4991 162.371 43.217 154.016 52.3342 146.176C61.4513 138.329 71.0403 131.049 80.8834 124.145C71.0911 131.114 61.553 138.46 52.5011 146.365C43.4566 154.263 34.804 162.669 27.1458 171.917C23.3204 176.541 19.7418 181.368 16.635 186.5C15.1179 189.085 13.6516 191.705 12.4829 194.456C11.2997 197.2 10.2472 200.009 9.63741 202.935C9.02041 205.846 8.75909 208.844 9.15107 211.784C9.52853 214.716 10.6174 217.555 12.3668 219.928C13.2451 221.111 14.2686 222.186 15.401 223.137C16.5406 224.073 17.7891 224.893 19.0885 225.605C21.7017 227.02 24.5399 227.986 27.4362 228.683C33.2578 230.033 39.2827 230.338 45.264 230.142C51.2526 229.938 57.2194 229.234 63.1281 228.225C74.9529 226.178 86.5525 222.955 97.92 219.101C120.648 211.326 142.453 200.997 163.301 189.085C184.156 177.172 204.263 163.888 222.991 148.848C232.333 141.306 241.326 133.321 249.631 124.646C253.775 120.312 257.739 115.797 261.39 111.043C265.034 106.288 268.388 101.294 271.073 95.9439C272.409 93.2725 273.57 90.5069 274.42 87.6468C275.284 84.794 275.806 81.8396 275.813 78.8706C275.799 75.9162 275.247 72.9327 273.919 70.2832C272.634 67.6191 270.616 65.3543 268.199 63.6484C265.782 61.9353 263.009 60.7448 260.163 59.8955C257.303 59.0534 254.349 58.509 251.373 58.2187C245.413 57.6452 239.388 57.8122 233.429 58.4147C221.481 59.6051 209.714 62.2837 198.187 65.6592C186.66 69.0491 175.35 73.1868 164.244 77.789L164.223 77.76Z" fill="url(#paint0_linear_488_27285)"/>
</g>
<path opacity="0.6" d="M164.223 77.76C175.292 73.0706 186.573 68.8604 198.093 65.3833C209.605 61.928 221.372 59.1551 233.356 57.8702C239.345 57.2387 245.399 57.0645 251.416 57.6234C254.422 57.9065 257.412 58.451 260.316 59.3003C263.212 60.1568 266.05 61.3618 268.54 63.1258C271.037 64.8679 273.142 67.2271 274.478 69.9783C275.857 72.715 276.438 75.8073 276.459 78.8416C276.459 81.8904 275.93 84.9174 275.059 87.8138C274.209 90.7246 273.033 93.5266 271.69 96.227C268.99 101.642 265.622 106.68 261.971 111.471C258.312 116.262 254.342 120.806 250.19 125.169C241.878 133.894 232.877 141.923 223.535 149.508C204.8 164.629 184.693 178 163.816 189.977C142.889 201.86 121.01 212.161 98.1958 219.906C86.7921 223.746 75.1416 226.955 63.2588 228.98C57.321 229.982 51.3179 230.679 45.2858 230.868C39.2609 231.049 33.178 230.73 27.2692 229.35C24.3294 228.632 21.4331 227.645 18.7546 226.186C17.4189 225.452 16.1414 224.61 14.9654 223.638C13.7968 222.658 12.737 221.54 11.8296 220.306C10.0149 217.838 8.89701 214.883 8.51229 211.856C8.11305 208.829 8.38888 205.751 9.02767 202.797C9.65919 199.828 10.7335 196.982 11.9312 194.217C13.1289 191.436 14.6097 188.801 16.1414 186.21C19.2845 181.063 22.8849 176.207 26.7466 171.59C34.4991 162.371 43.217 154.016 52.3342 146.176C61.4513 138.329 71.0403 131.049 80.8834 124.145C71.0911 131.114 61.553 138.46 52.5011 146.365C43.4566 154.263 34.804 162.669 27.1458 171.917C23.3204 176.541 19.7418 181.368 16.635 186.5C15.1179 189.085 13.6516 191.705 12.4829 194.456C11.2997 197.2 10.2472 200.009 9.63741 202.935C9.02041 205.846 8.75909 208.844 9.15107 211.784C9.52853 214.716 10.6174 217.555 12.3668 219.928C13.2451 221.111 14.2686 222.186 15.401 223.137C16.5406 224.073 17.7891 224.893 19.0885 225.605C21.7017 227.02 24.5399 227.986 27.4362 228.683C33.2578 230.033 39.2827 230.338 45.264 230.142C51.2526 229.938 57.2194 229.234 63.1281 228.225C74.9529 226.178 86.5525 222.955 97.92 219.101C120.648 211.326 142.453 200.997 163.301 189.085C184.156 177.172 204.263 163.888 222.991 148.848C232.333 141.306 241.326 133.321 249.631 124.646C253.775 120.312 257.739 115.797 261.39 111.043C265.034 106.288 268.388 101.294 271.073 95.9439C272.409 93.2725 273.57 90.5069 274.42 87.6468C275.284 84.794 275.806 81.8396 275.813 78.8706C275.799 75.9162 275.247 72.9327 273.919 70.2832C272.634 67.6191 270.616 65.3543 268.199 63.6484C265.782 61.9353 263.009 60.7448 260.163 59.8955C257.303 59.0534 254.349 58.509 251.373 58.2187C245.413 57.6452 239.388 57.8122 233.429 58.4147C221.481 59.6051 209.714 62.2837 198.187 65.6592C186.66 69.0491 175.35 73.1868 164.244 77.789L164.223 77.76Z" fill="url(#paint1_linear_488_27285)"/>
<g filter="url(#filter1_bf_488_27285)">
<path d="M18.9092 161.607C10.1332 143.736 7.34581 122.844 11.4543 103.18L11.8173 101.336L12.2891 99.5137C12.6085 98.3014 12.9061 97.0819 13.2545 95.8769C14.053 93.496 14.7353 91.0787 15.708 88.7558C17.4574 84.0447 19.7222 79.5441 22.1975 75.1741L24.1356 71.9439C24.7962 70.8768 25.5293 69.8533 26.2189 68.808L27.2714 67.2473C27.6271 66.7319 28.0191 66.2383 28.3966 65.7374L30.6686 62.7249L33.0858 59.8358L34.298 58.3913L35.5829 57.012C36.4394 56.0974 37.2814 55.161 38.1525 54.2536L40.8528 51.6186C48.0827 44.6209 56.3433 38.7483 65.0612 33.7613C73.8517 28.8833 83.1648 24.9561 92.7901 22.0598C102.437 19.2288 112.367 17.3995 122.385 16.5502C123.633 16.405 124.889 16.3905 126.145 16.3034L129.905 16.1074L133.672 16.0566C134.928 16.0493 136.184 15.9985 137.44 16.0566L141.207 16.1654C141.831 16.1872 142.463 16.1945 143.087 16.2308L144.967 16.3687L148.727 16.6445C149.983 16.7389 151.224 16.9276 152.473 17.0583C172.435 19.3594 191.954 25.7183 209.281 35.9318C211.422 37.2457 213.592 38.516 215.654 39.9606C216.692 40.6719 217.752 41.347 218.768 42.0875L221.795 44.3305C222.818 45.0637 223.791 45.8622 224.764 46.6607C225.737 47.4591 226.724 48.2359 227.682 49.0489L230.491 51.5605C230.956 51.9815 231.435 52.388 231.892 52.8236L233.235 54.1447C234.128 55.0303 235.035 55.9014 235.921 56.7943L238.483 59.5672C238.904 60.0318 239.347 60.4819 239.753 60.961L240.966 62.4055C241.764 63.3782 242.584 64.3291 243.361 65.3164C244.856 67.3416 246.432 69.3016 247.796 71.4212C248.486 72.4738 249.226 73.4901 249.88 74.5644L251.825 77.7947C254.315 82.1646 256.601 86.6579 258.394 91.3618C259.389 93.6774 260.093 96.0947 260.92 98.4684C261.269 99.6734 261.588 100.893 261.922 102.105L262.416 103.927L262.808 105.771C263.969 110.664 264.521 115.68 264.855 120.681L264.971 124.448L265 125.392L264.978 126.336L264.927 128.216C264.898 130.728 264.695 133.232 264.419 135.722C263.301 145.696 260.441 155.437 256.18 164.468C254.046 168.983 251.564 173.331 248.769 177.461C245.967 181.584 242.86 185.497 239.499 189.17H239.492C245.974 181.613 251.419 173.186 255.462 164.134C259.49 155.082 262.096 145.405 262.982 135.562C263.185 133.101 263.367 130.64 263.359 128.172L263.388 126.321L263.403 125.399L263.359 124.478L263.192 120.783C262.793 115.876 262.191 110.968 260.986 106.185L260.579 104.385L260.071 102.606C259.723 101.423 259.396 100.24 259.04 99.0636C258.198 96.748 257.48 94.3888 256.478 92.1385C254.663 87.5581 252.362 83.1881 249.872 78.9488L247.927 75.8129C247.274 74.7676 246.541 73.7804 245.851 72.7641C244.494 70.7098 242.918 68.8152 241.438 66.848C238.28 63.0806 235.064 59.3422 231.457 55.9813L230.135 54.6964C229.693 54.2754 229.221 53.8761 228.764 53.4624L225.998 51.0161C225.054 50.2248 224.089 49.4626 223.131 48.6859C222.172 47.9092 221.222 47.1325 220.213 46.4211L217.236 44.2361C216.242 43.5102 215.197 42.8569 214.18 42.1673C212.155 40.7591 210.021 39.525 207.923 38.2474C190.901 28.3171 171.723 22.1614 152.146 19.9909C142.361 18.8948 132.453 18.6117 122.631 19.4393C112.81 20.245 103.069 22.0235 93.6031 24.7601C84.1521 27.5331 74.9986 31.3223 66.346 36.0334L63.1521 37.8917L61.5551 38.8209C61.0325 39.1403 60.5171 39.4887 60.0018 39.8154L56.8949 41.8189C55.8787 42.5157 54.8842 43.2416 53.8825 43.953C51.8428 45.3322 49.9555 46.922 48.0028 48.4173C47.0519 49.1941 46.13 50.0143 45.1936 50.8128L43.7927 52.0178C43.3281 52.4171 42.8926 52.8599 42.4425 53.2809C27.9393 66.5867 17.1816 84.1608 12.9061 103.47C12.652 104.675 12.369 105.88 12.1294 107.092L11.5632 110.751C11.4761 111.36 11.3527 111.97 11.3019 112.587L11.1277 114.431C11.0188 115.665 10.8736 116.892 10.801 118.126C10.5325 123.062 10.605 128.027 11.1495 132.956C11.389 135.424 11.7955 137.87 12.2238 140.309C12.7101 142.741 13.2328 145.166 13.9151 147.554C15.1927 152.352 16.913 157.034 18.9165 161.586L18.9092 161.607Z" fill="url(#paint2_linear_488_27285)"/>
</g>
<g style="mix-blend-mode:lighten" opacity="0.6">
<path d="M18.8848 161.885C10.1088 144.013 7.32139 123.122 11.4299 103.457L11.7929 101.613L12.2647 99.791C12.5841 98.5788 12.8817 97.3593 13.2301 96.1543C14.0286 93.7733 14.7109 91.356 15.6836 89.0332C17.433 84.322 19.6978 79.8214 22.1731 75.4515L24.1112 72.2212C24.7717 71.1541 25.5049 70.1306 26.1945 69.0853L27.247 67.5246C27.6027 67.0092 27.9947 66.5156 28.3722 66.0147L30.6442 63.0023L33.0614 60.1131L34.2736 58.6686L35.5584 57.2894C36.415 56.3747 37.257 55.4383 38.1281 54.5309L40.8284 51.8959C48.0582 44.8982 56.3189 39.0256 65.0368 34.0387C73.8273 29.1606 83.1404 25.2335 92.7657 22.3371C102.413 19.5061 112.343 17.6768 122.36 16.8275C123.609 16.6823 124.865 16.6678 126.12 16.5807L129.88 16.3847L133.648 16.3339C134.904 16.3266 136.159 16.2758 137.415 16.3339L141.182 16.4428C141.807 16.4646 142.438 16.4718 143.063 16.5081L144.943 16.646L148.703 16.9219C149.958 17.0162 151.2 17.205 152.448 17.3356C172.41 19.6368 191.929 25.9957 209.256 36.2091C211.398 37.523 213.568 38.7934 215.63 40.2379C216.668 40.9493 217.727 41.6244 218.744 42.3648L221.771 44.6078C222.794 45.341 223.767 46.1395 224.739 46.938C225.712 47.7365 226.699 48.5132 227.658 49.3262L230.467 51.8378C230.931 52.2589 231.41 52.6654 231.868 53.1009L233.211 54.4221C234.103 55.3077 235.011 56.1787 235.896 57.0716L238.459 59.8446C238.88 60.3091 239.323 60.7592 239.729 61.2383L240.941 62.6828C241.74 63.6556 242.56 64.6065 243.337 65.5937C244.832 67.619 246.407 69.5789 247.772 71.6986C248.462 72.7511 249.202 73.7674 249.855 74.8417L251.801 78.072C254.29 82.4419 256.577 86.9353 258.37 91.6391C259.364 93.9548 260.068 96.372 260.896 98.7457C261.244 99.9507 261.564 101.17 261.898 102.383L262.391 104.205L262.783 106.048C263.945 110.941 264.496 115.957 264.83 120.958L264.946 124.726L264.975 125.67L264.954 126.613L264.903 128.493C264.874 131.005 264.671 133.509 264.395 135.999C263.277 145.973 260.417 155.715 256.156 164.745C254.022 169.26 251.539 173.608 248.745 177.739C245.943 181.862 242.836 185.774 239.475 189.447H239.468C245.95 181.891 251.394 173.463 255.437 164.411C259.466 155.359 262.072 145.683 262.958 135.839C263.161 133.379 263.342 130.918 263.335 128.45L263.364 126.599L263.379 125.677L263.335 124.755L263.168 121.06C262.769 116.153 262.166 111.246 260.961 106.462L260.555 104.662L260.047 102.883C259.698 101.7 259.372 100.517 259.016 99.341C258.174 97.0254 257.455 94.6662 256.454 92.4159C254.639 87.8354 252.338 83.4655 249.848 79.2262L247.903 76.0903C247.249 75.045 246.516 74.0578 245.827 73.0415C244.469 70.9872 242.894 69.0926 241.413 67.1254C238.256 63.3579 235.04 59.6195 231.432 56.2586L230.111 54.9737C229.668 54.5527 229.196 54.1535 228.739 53.7397L225.973 51.2934C225.03 50.5022 224.064 49.74 223.106 48.9633C222.148 48.1866 221.197 47.4098 220.188 46.6984L217.212 44.5135C216.218 43.7876 215.172 43.1343 214.156 42.4447C212.131 41.0364 209.997 39.8024 207.899 38.5248C190.877 28.5944 171.699 22.4387 152.122 20.2683C142.337 19.1722 132.428 18.8891 122.607 19.7166C112.786 20.5224 103.044 22.3008 93.5787 25.0375C84.1276 27.8104 74.9742 31.5997 66.3216 36.3108L63.1277 38.1691L61.5307 39.0982C61.0081 39.4176 60.4927 39.7661 59.9773 40.0927L56.8705 42.0962C55.8543 42.7931 54.8598 43.519 53.8581 44.2304C51.8183 45.6096 49.931 47.1993 47.9784 48.6947C47.0275 49.4714 46.1056 50.2917 45.1692 51.0902L43.7682 52.2952C43.3037 52.6944 42.8681 53.1372 42.4181 53.5582C27.9148 66.864 17.1572 84.4382 12.8817 103.747C12.6276 104.952 12.3445 106.157 12.105 107.369L11.5388 111.028C11.4517 111.638 11.3283 112.248 11.2775 112.865L11.1033 114.708C10.9944 115.942 10.8492 117.169 10.7766 118.403C10.508 123.339 10.5806 128.305 11.125 133.233C11.3646 135.701 11.7711 138.148 12.1994 140.587C12.6857 143.019 13.2083 145.443 13.8907 147.831C15.1682 152.63 16.8886 157.312 18.8921 161.863L18.8848 161.885Z" fill="url(#paint3_linear_488_27285)"/>
</g>
<path d="M190.73 116.16C189.681 114.968 189.103 113.435 189.103 111.848C189.103 110.262 189.681 108.729 190.73 107.537L199.1 98.1307C200.022 97.103 200.595 95.8098 200.735 94.4368C200.876 93.0637 200.578 91.6813 199.884 90.488L186.806 67.8864C186.119 66.6944 185.073 65.7496 183.816 65.1865C182.56 64.6235 181.158 64.4711 179.81 64.7509L167.517 67.2332C165.952 67.5561 164.324 67.2958 162.939 66.5016C161.553 65.7073 160.507 64.434 159.997 62.9219L156.008 50.9679C155.569 49.6705 154.734 48.5436 153.619 47.7465C152.504 46.9494 151.167 46.5224 149.796 46.526H123.64C122.215 46.4516 120.803 46.8456 119.623 47.6477C118.442 48.4497 117.556 49.6158 117.102 50.9679L113.44 62.9219C112.93 64.434 111.883 65.7073 110.498 66.5016C109.113 67.2958 107.484 67.5561 105.92 67.2332L93.2999 64.7509C92.0218 64.5705 90.719 64.772 89.5553 65.33C88.3917 65.8879 87.4194 66.7774 86.761 67.8864L73.6831 90.488C72.9714 91.668 72.6514 93.0426 72.7689 94.4153C72.8863 95.788 73.4352 97.0884 74.337 98.1307L82.6414 107.537C83.6898 108.729 84.2679 110.262 84.2679 111.848C84.2679 113.435 83.6898 114.968 82.6414 116.16L74.337 125.566C73.4352 126.608 72.8863 127.909 72.7689 129.282C72.6514 130.654 72.9714 132.029 73.6831 133.209L86.761 155.81C87.4482 157.002 88.4945 157.947 89.7509 158.51C91.0072 159.073 92.4094 159.226 93.7576 158.946L106.051 156.464C107.615 156.141 109.243 156.401 110.629 157.195C112.014 157.99 113.06 159.263 113.571 160.775L117.559 172.729C118.014 174.081 118.9 175.247 120.08 176.049C121.261 176.851 122.672 177.245 124.098 177.171H150.254C151.625 177.174 152.962 176.747 154.077 175.95C155.191 175.153 156.027 174.026 156.466 172.729L160.455 160.775C160.965 159.263 162.011 157.99 163.396 157.195C164.782 156.401 166.41 156.141 167.974 156.464L180.267 158.946C181.616 159.226 183.018 159.073 184.274 158.51C185.53 157.947 186.577 157.002 187.264 155.81L200.342 133.209C201.036 132.016 201.334 130.633 201.193 129.26C201.052 127.887 200.48 126.594 199.557 125.566L190.73 116.16ZM180.987 124.913L186.218 130.792L177.848 145.294L170.132 143.726C165.423 142.764 160.524 143.563 156.365 145.972C152.206 148.38 149.078 152.23 147.573 156.79L145.088 164.106H128.348L125.994 156.66C124.49 152.099 121.361 148.249 117.202 145.841C113.044 143.433 108.145 142.633 103.435 143.595L95.7193 145.163L87.2187 130.727L92.4498 124.848C95.6667 121.255 97.4451 116.603 97.4451 111.783C97.4451 106.963 95.6667 102.311 92.4498 98.7186L87.2187 92.8396L95.5885 78.4686L103.304 80.0364C108.014 80.9981 112.913 80.1989 117.071 77.7906C121.23 75.3823 124.359 71.5324 125.864 66.9719L128.348 59.5905H145.088L147.573 67.0372C149.078 71.5978 152.206 75.4476 156.365 77.8559C160.524 80.2642 165.423 81.0634 170.132 80.1017L177.848 78.534L186.218 93.0356L180.987 98.9146C177.806 102.499 176.05 107.124 176.05 111.914C176.05 116.704 177.806 121.328 180.987 124.913Z" fill="#D19A64"/>
<path d="M189.979 116.82L189.989 116.832L190.001 116.844L198.82 126.242C199.597 127.111 200.079 128.203 200.198 129.362C200.318 130.525 200.065 131.695 199.478 132.706L199.476 132.708L186.399 155.31L186.398 155.311C185.816 156.32 184.93 157.121 183.865 157.598C182.801 158.075 181.613 158.204 180.471 157.967L180.465 157.966L168.176 155.484C168.176 155.484 168.175 155.484 168.174 155.484C166.372 155.112 164.495 155.412 162.899 156.328C161.302 157.243 160.095 158.712 159.507 160.455L159.506 160.458L155.518 172.409C155.518 172.409 155.518 172.41 155.518 172.411C155.146 173.508 154.439 174.462 153.495 175.137C152.551 175.812 151.418 176.174 150.256 176.171H150.254H124.098H124.072L124.046 176.172C122.838 176.235 121.643 175.901 120.642 175.222C119.642 174.543 118.893 173.555 118.507 172.411C118.507 172.41 118.507 172.41 118.507 172.41L114.519 160.458L114.518 160.455C113.93 158.712 112.723 157.243 111.126 156.328C109.53 155.412 107.653 155.112 105.85 155.484C105.85 155.484 105.849 155.484 105.849 155.484L93.5597 157.966L93.5543 157.967C92.4121 158.204 91.2242 158.075 90.1598 157.598C89.0955 157.121 88.2093 156.32 87.6273 155.311L87.6265 155.31L74.5487 132.708L74.5441 132.7L74.5394 132.692C73.9367 131.693 73.6658 130.529 73.7652 129.367C73.8645 128.206 74.3282 127.106 75.0902 126.224C75.0912 126.223 75.0922 126.222 75.0932 126.22L83.3911 116.822L83.3924 116.82C84.6011 115.446 85.2679 113.678 85.2679 111.848C85.2679 110.018 84.6011 108.251 83.3924 106.877L83.3911 106.875L75.0932 97.4764C75.0922 97.4752 75.0912 97.4741 75.0902 97.4729C74.3282 96.5907 73.8645 95.4908 73.7652 94.3301C73.6658 93.1678 73.9367 92.0038 74.5394 91.0044L74.5441 90.9967L74.5487 90.9888L87.6236 68.3923C88.1812 67.4553 89.0036 66.7036 89.9877 66.2316C90.9657 65.7627 92.0599 65.591 93.1345 65.7376L105.718 68.2125C105.719 68.2129 105.721 68.2132 105.723 68.2135C107.524 68.5842 109.4 68.284 110.995 67.3691C112.592 66.4534 113.799 64.9853 114.387 63.2415L114.392 63.2282L114.396 63.2148L118.054 51.2744C118.44 50.1348 119.188 49.1518 120.185 48.4748C121.185 47.7954 122.38 47.4616 123.588 47.5246L123.614 47.526H123.64L149.796 47.526L149.799 47.526C150.96 47.523 152.093 47.8847 153.037 48.5599L153.617 47.7494L153.037 48.5599C153.981 49.2347 154.689 50.1886 155.06 51.2865C155.06 51.2871 155.061 51.2876 155.061 51.2882L159.048 63.2384L159.049 63.2415C159.637 64.9853 160.844 66.4534 162.441 67.3691C164.038 68.2844 165.914 68.5845 167.716 68.213C167.717 68.2129 167.718 68.2127 167.719 68.2125L180.008 65.7312L180.013 65.7301C181.155 65.493 182.343 65.6221 183.407 66.0991C184.472 66.5761 185.358 67.3764 185.94 68.3859L185.941 68.3872L199.019 90.9888L199.02 90.9908C199.608 92.0014 199.86 93.172 199.741 94.3346C199.621 95.4973 199.136 96.5924 198.355 97.4628L198.352 97.466L189.983 106.872L189.979 106.877C188.77 108.251 188.103 110.018 188.103 111.848C188.103 113.678 188.77 115.446 189.979 116.82ZM187.084 131.292L187.445 130.667L186.965 130.127L181.735 124.249C181.735 124.249 181.734 124.249 181.734 124.249C178.716 120.847 177.05 116.459 177.05 111.914C177.05 107.368 178.716 102.98 181.734 99.5787C181.734 99.5785 181.735 99.5784 181.735 99.5783L186.965 93.7003L187.445 93.1609L187.084 92.5357L178.714 78.0341L178.354 77.4107L177.649 77.554L169.933 79.1217L169.932 79.1219C165.462 80.0346 160.813 79.2762 156.866 76.9906C152.92 74.705 149.951 71.0515 148.522 66.7239L148.521 66.7207L146.037 59.2739L145.809 58.5905H145.088H128.348H127.63L127.401 59.2714L124.916 66.6529L124.914 66.6585C123.486 70.9862 120.517 74.6396 116.57 76.9252C112.624 79.2108 107.974 79.9693 103.504 79.0566L103.504 79.0564L95.7876 77.4887L95.0851 77.3459L94.7244 77.9654L86.3546 92.3363L85.9897 92.9627L86.4716 93.5043L91.7027 99.3834L91.7048 99.3857C94.7575 102.795 96.4451 107.209 96.4451 111.783C96.4451 116.357 94.7575 120.771 91.7048 124.181L91.7027 124.183L86.4716 130.062L85.9873 130.606L86.357 131.234L94.8576 145.67L95.2195 146.285L95.9184 146.143L103.634 144.575L103.635 144.575C108.105 143.662 112.754 144.421 116.701 146.706C120.646 148.991 123.614 152.642 125.043 156.967C125.044 156.969 125.044 156.971 125.045 156.973L127.395 164.408L127.616 165.106H128.348H145.088H145.805L146.035 164.428L148.52 157.112L148.522 157.104C149.951 152.776 152.92 149.123 156.866 146.837C160.813 144.551 165.462 143.793 169.932 144.706L169.933 144.706L177.649 146.273L178.354 146.417L178.714 145.793L187.084 131.292Z" stroke="url(#paint4_linear_488_27285)" stroke-width="2"/>
<path d="M137.372 85.7195C132.199 85.7195 127.142 87.2519 122.841 90.123C118.54 92.9941 115.187 97.0749 113.208 101.849C111.228 106.624 110.71 111.877 111.719 116.946C112.729 122.014 115.22 126.67 118.878 130.324C122.536 133.979 127.196 136.467 132.27 137.475C137.343 138.484 142.602 137.966 147.382 135.988C152.161 134.011 156.246 130.662 159.12 126.365C161.994 122.068 163.528 117.016 163.528 111.848C163.528 104.919 160.772 98.2726 155.867 93.3725C150.962 88.4723 144.309 85.7195 137.372 85.7195ZM137.372 124.913C134.786 124.913 132.257 124.147 130.107 122.711C127.956 121.276 126.28 119.235 125.29 116.848C124.3 114.461 124.041 111.834 124.546 109.3C125.051 106.765 126.296 104.438 128.125 102.61C129.954 100.783 132.284 99.5391 134.821 99.035C137.358 98.5309 139.987 98.7896 142.377 99.7784C144.767 100.767 146.809 102.442 148.246 104.59C149.683 106.739 150.45 109.265 150.45 111.848C150.45 115.313 149.072 118.636 146.62 121.086C144.167 123.537 140.841 124.913 137.372 124.913Z" fill="#D19A64"/>
<path d="M123.396 90.9547C127.533 88.1934 132.397 86.7195 137.372 86.7195C144.044 86.7195 150.443 89.3672 155.161 94.0799C159.878 98.7926 162.528 105.184 162.528 111.848C162.528 116.818 161.053 121.677 158.289 125.809C155.525 129.941 151.596 133.162 146.999 135.064C142.403 136.967 137.345 137.464 132.465 136.495C127.585 135.525 123.102 133.131 119.584 129.617C116.066 126.103 113.671 121.625 112.7 116.751C111.73 111.876 112.228 106.824 114.132 102.232C116.035 97.6407 119.259 93.7161 123.396 90.9547ZM129.552 123.543C131.867 125.088 134.588 125.913 137.372 125.913C141.106 125.913 144.686 124.431 147.327 121.794C149.967 119.156 151.45 115.579 151.45 111.848C151.45 109.067 150.625 106.347 149.077 104.034C147.53 101.721 145.332 99.9188 142.759 98.8544C140.187 97.79 137.357 97.5116 134.626 98.0542C131.896 98.5968 129.387 99.9361 127.418 101.903C125.449 103.87 124.108 106.376 123.565 109.104C123.022 111.833 123.301 114.661 124.366 117.231C125.432 119.801 127.237 121.998 129.552 123.543Z" stroke="url(#paint5_linear_488_27285)" stroke-width="2"/>
</g>
<defs>
<filter id="filter0_bf_488_27285" x="-2.27383" y="46.6866" width="289.333" height="194.827" filterUnits="userSpaceOnUse" color-interpolation-filters="sRGB">
<feFlood flood-opacity="0" result="BackgroundImageFix"/>
<feGaussianBlur in="BackgroundImageFix" stdDeviation="2"/>
<feComposite in2="SourceAlpha" operator="in" result="effect1_backgroundBlur_488_27285"/>
<feBlend mode="normal" in="SourceGraphic" in2="effect1_backgroundBlur_488_27285" result="shape"/>
<feGaussianBlur stdDeviation="5.3" result="effect2_foregroundBlur_488_27285"/>
</filter>
<filter id="filter1_bf_488_27285" x="-1.00625" y="5.42905" width="276.606" height="194.341" filterUnits="userSpaceOnUse" color-interpolation-filters="sRGB">
<feFlood flood-opacity="0" result="BackgroundImageFix"/>
<feGaussianBlur in="BackgroundImageFix" stdDeviation="2"/>
<feComposite in2="SourceAlpha" operator="in" result="effect1_backgroundBlur_488_27285"/>
<feBlend mode="normal" in="SourceGraphic" in2="effect1_backgroundBlur_488_27285" result="shape"/>
<feGaussianBlur stdDeviation="5.3" result="effect2_foregroundBlur_488_27285"/>
</filter>
<linearGradient id="paint0_linear_488_27285" x1="8.32356" y1="144.1" x2="276.91" y2="144.1" gradientUnits="userSpaceOnUse">
<stop stop-color="#D19A65"/>
<stop offset="0.21" stop-color="#FEE5D0" stop-opacity="0.6"/>
<stop offset="0.23" stop-color="#F2D2B5" stop-opacity="0.7"/>
<stop offset="0.27" stop-color="#E0B388" stop-opacity="0.87"/>
<stop offset="0.31" stop-color="#D4A06E" stop-opacity="0.97"/>
<stop offset="0.34" stop-color="#D19A65"/>
<stop offset="0.49" stop-color="#D19A64" stop-opacity="0.92"/>
<stop offset="0.79" stop-color="#D19A63" stop-opacity="0.7"/>
<stop offset="0.92" stop-color="#D19A63" stop-opacity="0.6"/>
<stop offset="0.96" stop-color="#FEE5D0"/>
</linearGradient>
<linearGradient id="paint1_linear_488_27285" x1="8.32356" y1="144.1" x2="276.91" y2="144.1" gradientUnits="userSpaceOnUse">
<stop stop-color="#D19A65"/>
<stop offset="0.21" stop-color="#FEE5D0" stop-opacity="0.6"/>
<stop offset="0.23" stop-color="#F2D2B5" stop-opacity="0.7"/>
<stop offset="0.27" stop-color="#E0B388" stop-opacity="0.87"/>
<stop offset="0.31" stop-color="#D4A06E" stop-opacity="0.97"/>
<stop offset="0.34" stop-color="#D19A65"/>
<stop offset="0.49" stop-color="#D19A64" stop-opacity="0.92"/>
<stop offset="0.79" stop-color="#D19A63" stop-opacity="0.7"/>
<stop offset="0.92" stop-color="#D19A63" stop-opacity="0.6"/>
<stop offset="0.96" stop-color="#FEE5D0"/>
</linearGradient>
<linearGradient id="paint2_linear_488_27285" x1="8.62337" y1="102.613" x2="265.682" y2="102.613" gradientUnits="userSpaceOnUse">
<stop stop-color="#D19A65" stop-opacity="0"/>
<stop offset="0.02" stop-color="#E1B68D" stop-opacity="0.23"/>
<stop offset="0.04" stop-color="#FEE5D0" stop-opacity="0.6"/>
<stop offset="0.1" stop-color="#F1CFB1" stop-opacity="0.71"/>
<stop offset="0.2" stop-color="#E2B78F" stop-opacity="0.84"/>
<stop offset="0.32" stop-color="#D8A677" stop-opacity="0.93"/>
<stop offset="0.47" stop-color="#D29C69" stop-opacity="0.98"/>
<stop offset="0.81" stop-color="#D19A65"/>
<stop offset="0.84" stop-color="#D19A64" stop-opacity="0.92"/>
<stop offset="0.9" stop-color="#D19A63" stop-opacity="0.7"/>
<stop offset="0.92" stop-color="#D19A63" stop-opacity="0.6"/>
<stop offset="0.96" stop-color="#FEE5D0"/>
</linearGradient>
<linearGradient id="paint3_linear_488_27285" x1="8.59896" y1="102.891" x2="265.658" y2="102.891" gradientUnits="userSpaceOnUse">
<stop stop-color="#D19A65" stop-opacity="0"/>
<stop offset="0.02" stop-color="#E1B68D" stop-opacity="0.23"/>
<stop offset="0.04" stop-color="#FEE5D0" stop-opacity="0.6"/>
<stop offset="0.1" stop-color="#F1CFB1" stop-opacity="0.71"/>
<stop offset="0.2" stop-color="#E2B78F" stop-opacity="0.84"/>
<stop offset="0.32" stop-color="#D8A677" stop-opacity="0.93"/>
<stop offset="0.47" stop-color="#D29C69" stop-opacity="0.98"/>
<stop offset="0.81" stop-color="#D19A65"/>
<stop offset="0.84" stop-color="#D19A64" stop-opacity="0.92"/>
<stop offset="0.9" stop-color="#D19A63" stop-opacity="0.7"/>
<stop offset="0.92" stop-color="#D19A63" stop-opacity="0.6"/>
<stop offset="0.96" stop-color="#FEE5D0"/>
</linearGradient>
<linearGradient id="paint4_linear_488_27285" x1="188.887" y1="111.848" x2="150.415" y2="111.848" gradientUnits="userSpaceOnUse">
<stop stop-color="#FEE5D0"/>
<stop offset="1" stop-color="#FEE5D0" stop-opacity="0"/>
</linearGradient>
<linearGradient id="paint5_linear_488_27285" x1="140.615" y1="111.848" x2="163.481" y2="111.848" gradientUnits="userSpaceOnUse">
<stop stop-color="#FEE5D0" stop-opacity="0"/>
<stop offset="1" stop-color="#FEE5D0"/>
</linearGradient>
<clipPath id="clip0_488_27285">
<rect width="286" height="241" fill="white" transform="translate(0.15625 0.785156)"/>
</clipPath>
</defs>
</svg>
