<svg width="278" height="208" viewBox="0 0 278 208" fill="none" xmlns="http://www.w3.org/2000/svg">
<g clip-path="url(#clip0_488_27566)">
<g filter="url(#filter0_bif_488_27566)">
<path d="M140.861 153.037C92.1358 153.037 52.6357 160.096 52.6357 168.811C52.6357 177.526 92.1358 184.576 140.861 184.576C189.585 184.576 229.085 177.517 229.085 168.811C229.085 160.105 189.585 153.037 140.861 153.037ZM142.046 179.901C99.3522 179.901 64.7421 174.935 64.7421 168.802C64.7421 162.669 99.3522 155.55 142.046 155.55C184.739 155.55 219.349 162.669 219.349 168.802C219.349 174.935 184.739 179.901 142.046 179.901Z" fill="url(#paint0_linear_488_27566)"/>
</g>
<g filter="url(#filter1_f_488_27566)">
<path d="M139.156 150.479C82.4272 150.479 36.4404 160.024 36.4404 171.79C36.4404 183.556 82.4272 193.1 139.156 193.1C195.885 193.1 241.872 183.556 241.872 171.79C241.872 160.024 195.892 150.479 139.156 150.479ZM140.458 189.691C88.1302 189.691 41.9811 181.246 41.9811 171.364C41.9811 161.481 88.1302 151.332 140.458 151.332C192.787 151.332 238.036 160.629 238.036 170.511C238.036 180.394 192.787 189.691 140.458 189.691Z" fill="url(#paint1_linear_488_27566)"/>
</g>
<path d="M140.861 151.332C93.5485 151.332 55.1934 158.391 55.1934 167.106C55.1934 175.821 93.5485 182.871 140.861 182.871C188.173 182.871 226.529 175.812 226.529 167.106C226.529 158.4 188.173 151.332 140.861 151.332ZM142.012 179.888C100.556 179.888 62.6427 173.239 62.6427 167.106C62.6427 160.973 100.556 152.184 142.012 152.184C183.468 152.184 219.907 160.973 219.907 167.106C219.907 173.239 183.468 179.888 142.012 179.888Z" fill="url(#paint2_linear_488_27566)"/>
<path d="M139.156 148.775C83.368 148.775 38.1445 158.319 38.1445 170.085C38.1445 181.851 83.368 191.396 139.156 191.396C194.943 191.396 240.167 181.851 240.167 170.085C240.167 158.319 194.949 148.775 139.156 148.775ZM140.413 188.838C88.9532 188.838 43.5933 179.115 43.5933 169.233C43.5933 159.351 88.9532 149.627 140.413 149.627C191.873 149.627 235.556 158.924 235.556 168.807C235.556 178.689 192.292 188.838 140.832 188.838H140.413Z" fill="url(#paint3_linear_488_27566)"/>
<path d="M182.775 73.8899H168.378C166.469 73.8899 164.637 74.6492 163.288 75.9985C161.94 77.3478 161.181 79.1813 161.181 81.0916C161.181 83.0018 161.94 84.8353 163.288 86.1846C164.64 87.5366 166.469 88.2933 168.378 88.2933H182.775C184.684 88.2933 186.516 89.0526 187.864 90.4019C189.216 91.7539 189.972 93.5847 189.972 95.495V145.918C189.972 147.828 189.213 149.661 187.864 151.011C186.513 152.363 184.684 153.119 182.775 153.119H96.3951C94.4861 153.119 92.6538 152.36 91.3054 151.011C89.9543 149.659 89.1981 147.828 89.1981 145.918V95.495C89.1981 93.5847 89.9569 91.7513 91.3054 90.4019C92.6565 89.05 94.4861 88.2933 96.3951 88.2933H110.792C112.701 88.2933 114.533 87.534 115.881 86.1846C117.23 84.8353 117.989 83.0018 117.989 81.0916C117.989 79.1813 117.23 77.3478 115.881 75.9985C114.533 74.6492 112.701 73.8899 110.792 73.8899H96.3951C90.6682 73.8899 85.1739 76.1678 81.1259 80.2185C77.0753 84.2717 74.7988 89.767 74.7988 95.4976V145.92C74.7988 151.651 77.0753 157.149 81.1233 161.199C85.1739 165.253 90.6655 167.528 96.3924 167.528H182.772C188.499 167.528 193.993 165.25 198.041 161.199C202.092 157.146 204.366 151.651 204.366 145.92V95.4976C204.366 89.767 202.089 84.2691 198.041 80.2185C193.991 76.1652 188.499 73.8899 182.772 73.8899H182.775ZM112.878 104.792C112.204 105.461 111.667 106.258 111.302 107.136C110.937 108.015 110.749 108.957 110.749 109.906C110.749 110.856 110.937 111.798 111.302 112.676C111.667 113.555 112.204 114.351 112.878 115.021L134.474 136.631C135.143 137.306 135.939 137.843 136.817 138.208C137.694 138.573 138.636 138.761 139.585 138.761C140.534 138.761 141.475 138.573 142.353 138.208C143.231 137.843 144.027 137.306 144.696 136.631L166.292 115.021C167.648 113.663 168.41 111.824 168.41 109.906C168.41 107.988 167.648 106.149 166.292 104.792C164.936 103.435 163.098 102.673 161.181 102.673C159.264 102.673 157.427 103.435 156.07 104.792L146.785 114.155V30.6717C146.785 28.7615 146.026 26.928 144.677 25.5786C143.329 24.2293 141.497 23.47 139.588 23.47C137.679 23.47 135.846 24.2293 134.498 25.5786C133.147 26.9306 132.391 28.7615 132.391 30.6717V114.155L123.105 104.792C122.436 104.117 121.64 103.58 120.762 103.215C119.884 102.85 118.943 102.662 117.994 102.662C117.045 102.662 116.104 102.85 115.226 103.215C114.348 103.58 113.552 104.117 112.883 104.792H112.878Z" fill="#D19A64"/>
<path d="M168.378 74.5125H182.772C182.773 74.5125 182.774 74.5125 182.775 74.5125C188.302 74.5132 193.601 76.7093 197.511 80.6212C201.418 84.5312 203.616 89.8383 203.616 95.3702V145.793C203.616 151.325 201.421 156.629 197.511 160.542C193.603 164.452 188.3 166.651 182.772 166.651H96.3924C90.8645 166.651 85.5638 164.454 81.6538 160.542C77.7464 156.632 75.5488 151.325 75.5488 145.793V95.3702C75.5488 89.8385 77.7463 84.5339 81.6564 80.6212C85.5638 76.7113 90.8673 74.5125 96.3951 74.5125H110.792C112.502 74.5125 114.143 75.1927 115.351 76.4013C116.559 77.6098 117.239 79.2525 117.239 80.9642C117.239 82.6758 116.559 84.3185 115.351 85.5271C114.143 86.7356 112.502 87.4159 110.792 87.4159H96.3951C94.2874 87.4159 92.2668 88.2514 90.7749 89.7444C89.2857 91.2345 88.4481 93.2587 88.4481 95.3676V145.79C88.4481 147.899 89.2829 149.92 90.7749 151.413C92.264 152.903 94.2872 153.742 96.3951 153.742H182.775C184.882 153.742 186.903 152.906 188.395 151.413C189.884 149.923 190.722 147.899 190.722 145.79V95.3676C190.722 93.2589 189.887 91.2373 188.395 89.7444C186.906 88.2542 184.883 87.4159 182.775 87.4159H168.378C166.668 87.4159 165.029 86.7381 163.819 85.5271C162.611 84.3185 161.931 82.6758 161.931 80.9642C161.931 79.2525 162.611 77.6098 163.819 76.4013C165.027 75.1927 166.668 74.5125 168.378 74.5125Z" stroke="url(#paint4_linear_488_27566)" stroke-width="1.5"/>
<path d="M113.26 114.49L113.257 114.488C112.653 113.888 112.172 113.175 111.846 112.389C111.519 111.602 111.351 110.757 111.351 109.906C111.351 109.055 111.519 108.211 111.846 107.424C112.137 106.724 112.55 106.081 113.064 105.525L113.267 105.32C113.867 104.715 114.579 104.234 115.365 103.908C116.151 103.581 116.995 103.412 117.845 103.412C118.695 103.412 119.539 103.581 120.325 103.908C121.111 104.234 121.824 104.715 122.423 105.32L122.423 105.32L131.709 114.684L132.992 115.977V114.155V30.6717C132.992 28.9599 133.669 27.3198 134.88 26.1088C136.087 24.9003 137.729 24.22 139.439 24.22C141.149 24.22 142.79 24.9003 143.998 26.1088C145.206 27.3173 145.886 28.9601 145.886 30.6717V114.155V115.977L147.168 114.684L156.452 105.322C156.452 105.322 156.452 105.322 156.453 105.322C157.669 104.105 159.315 103.423 161.032 103.423C162.75 103.423 164.397 104.106 165.613 105.322C166.829 106.539 167.511 108.187 167.511 109.906C167.511 111.626 166.829 113.274 165.613 114.49L144.016 136.101L144.014 136.103C143.415 136.708 142.702 137.189 141.916 137.515C141.13 137.842 140.286 138.011 139.436 138.011C138.586 138.011 137.742 137.842 136.956 137.515C136.17 137.189 135.458 136.708 134.858 136.103L134.856 136.101L113.26 114.49Z" stroke="url(#paint5_linear_488_27566)" stroke-width="1.5"/>
</g>
<defs>
<filter id="filter0_bif_488_27566" x="44.7357" y="145.137" width="192.249" height="47.3393" filterUnits="userSpaceOnUse" color-interpolation-filters="sRGB">
<feFlood flood-opacity="0" result="BackgroundImageFix"/>
<feGaussianBlur in="BackgroundImageFix" stdDeviation="2.8"/>
<feComposite in2="SourceAlpha" operator="in" result="effect1_backgroundBlur_488_27566"/>
<feBlend mode="normal" in="SourceGraphic" in2="effect1_backgroundBlur_488_27566" result="shape"/>
<feColorMatrix in="SourceAlpha" type="matrix" values="0 0 0 0 0 0 0 0 0 0 0 0 0 0 0 0 0 0 127 0" result="hardAlpha"/>
<feOffset dy="4"/>
<feGaussianBlur stdDeviation="2"/>
<feComposite in2="hardAlpha" operator="arithmetic" k2="-1" k3="1"/>
<feColorMatrix type="matrix" values="0 0 0 0 0.996078 0 0 0 0 0.898039 0 0 0 0 0.815686 0 0 0 0.73 0"/>
<feBlend mode="normal" in2="shape" result="effect2_innerShadow_488_27566"/>
<feGaussianBlur stdDeviation="3.95" result="effect3_foregroundBlur_488_27566"/>
</filter>
<filter id="filter1_f_488_27566" x="21.3404" y="135.379" width="235.632" height="72.8206" filterUnits="userSpaceOnUse" color-interpolation-filters="sRGB">
<feFlood flood-opacity="0" result="BackgroundImageFix"/>
<feBlend mode="normal" in="SourceGraphic" in2="BackgroundImageFix" result="shape"/>
<feGaussianBlur stdDeviation="7.55" result="effect1_foregroundBlur_488_27566"/>
</filter>
<linearGradient id="paint0_linear_488_27566" x1="148.106" y1="184.576" x2="147.254" y2="150.906" gradientUnits="userSpaceOnUse">
<stop stop-color="#FEE5D0" stop-opacity="0.4"/>
<stop offset="1" stop-color="#FEE5D0" stop-opacity="0"/>
</linearGradient>
<linearGradient id="paint1_linear_488_27566" x1="148.533" y1="187.559" x2="148.107" y2="148.348" gradientUnits="userSpaceOnUse">
<stop stop-color="#FEE5D0"/>
<stop offset="1" stop-color="#FEE5D0" stop-opacity="0"/>
</linearGradient>
<linearGradient id="paint2_linear_488_27566" x1="146.828" y1="182.871" x2="146.402" y2="151.332" gradientUnits="userSpaceOnUse">
<stop stop-color="#D19A64"/>
<stop offset="1" stop-color="#D19A64" stop-opacity="0"/>
</linearGradient>
<linearGradient id="paint3_linear_488_27566" x1="144.27" y1="191.396" x2="142.565" y2="148.775" gradientUnits="userSpaceOnUse">
<stop stop-color="#D19A64"/>
<stop offset="0.0639996" stop-color="#D19A64" stop-opacity="0.936"/>
<stop offset="1" stop-color="#D19A64" stop-opacity="0"/>
</linearGradient>
<linearGradient id="paint4_linear_488_27566" x1="139.582" y1="167.528" x2="139.582" y2="155.594" gradientUnits="userSpaceOnUse">
<stop stop-color="#FEE5D0"/>
<stop offset="1" stop-color="#D19A64"/>
</linearGradient>
<linearGradient id="paint5_linear_488_27566" x1="139.583" y1="110.416" x2="139.431" y2="138.761" gradientUnits="userSpaceOnUse">
<stop offset="0.164" stop-color="#D19A64"/>
<stop offset="1" stop-color="#FEE5D0"/>
</linearGradient>
<clipPath id="clip0_488_27566">
<rect width="277" height="207" fill="white" transform="translate(0.65625 0.785156)"/>
</clipPath>
</defs>
</svg>
