<svg width="279" height="280" viewBox="0 0 279 280" fill="none" xmlns="http://www.w3.org/2000/svg">
<g clip-path="url(#clip0_488_27706)">
<g filter="url(#filter0_f_488_27706)">
<mask id="path-1-inside-1_488_27706" fill="white">
<path d="M125.523 259.03C125.523 262.493 126.89 265.809 129.323 268.249C131.757 270.688 135.057 272.052 138.498 272.04C141.94 272.028 145.24 270.641 147.673 268.184C150.107 265.727 151.474 262.401 151.474 258.938L151.474 232.827L177.424 232.735L177.424 258.847C177.424 262.309 178.791 265.625 181.225 268.065C183.658 270.505 186.958 271.869 190.4 271.856C193.841 271.844 197.141 270.457 199.575 268C202.008 265.543 203.375 262.217 203.375 258.755L203.375 230.293C208.817 228.324 213.759 225.163 217.844 221.039C221.929 216.915 225.053 211.93 226.99 206.448L255.277 206.348C258.718 206.336 262.018 204.948 264.452 202.491C266.885 200.034 268.252 196.709 268.252 193.246C268.252 189.784 266.885 186.468 264.452 184.028C262.018 181.588 258.718 180.224 255.277 180.236L229.326 180.328L229.326 154.217L255.277 154.125C258.718 154.113 262.018 152.725 264.452 150.268C266.885 147.811 268.252 144.486 268.252 141.023C268.252 137.56 266.885 134.245 264.452 131.805C262.018 129.365 258.718 128.001 255.277 128.013L229.326 128.105L229.326 101.994L255.277 101.902C258.718 101.889 262.018 100.502 264.452 98.0452C266.885 95.5882 268.252 92.2626 268.252 88.8C268.252 85.3374 266.885 82.0214 264.452 79.5816C262.018 77.1418 258.718 75.7779 255.277 75.7901L226.99 75.8903C225.053 70.4216 221.929 65.4596 217.844 61.3642C213.759 57.2687 208.817 54.1426 203.375 52.2123L203.375 23.7508C203.375 20.2882 202.008 16.9722 199.575 14.5324C197.141 12.0926 193.841 10.7287 190.4 10.7409C186.959 10.7531 183.658 12.1403 181.225 14.5974C178.791 17.0544 177.424 20.38 177.424 23.8426L177.424 49.9542L151.474 50.046L151.474 23.9345C151.474 20.4719 150.107 17.1559 147.673 14.7161C145.24 12.2763 141.94 10.9125 138.498 10.9247C135.057 10.9368 131.757 12.324 129.323 14.7811C126.89 17.2381 125.523 20.5638 125.523 24.0264L125.523 50.1379L99.5723 50.2298L99.5723 24.1182C99.5723 20.6556 98.2052 17.3397 95.7719 14.8999C93.3385 12.46 90.0382 11.0962 86.5969 11.1084C83.1556 11.1206 79.8553 12.5078 77.4219 14.9648C74.9886 17.4219 73.6215 20.7475 73.6215 24.2101L73.6215 52.6717C68.1797 54.6404 63.2373 57.8016 59.1527 61.9259C55.0681 66.0503 51.9439 71.0344 50.0064 76.5168L21.7201 76.6169C18.2788 76.6291 14.9785 78.0163 12.5451 80.4733C10.1118 82.9304 8.74474 86.256 8.74474 89.7186C8.74474 93.1812 10.1118 96.4972 12.5451 98.937C14.9785 101.377 18.2788 102.741 21.7201 102.728L47.6708 102.637L47.6708 128.748L21.7201 128.84C18.2788 128.852 14.9785 130.239 12.5451 132.696C10.1118 135.153 8.74474 138.479 8.74474 141.942C8.74474 145.404 10.1118 148.72 12.5451 151.16C14.9785 153.6 18.2788 154.964 21.7201 154.952L47.6708 154.86L47.6708 180.971L21.7201 181.063C18.2788 181.075 14.9785 182.462 12.5451 184.92C10.1118 187.377 8.74473 190.702 8.74473 194.165C8.74473 197.627 10.1118 200.943 12.5451 203.383C14.9785 205.823 18.2788 207.187 21.7201 207.175L50.0064 207.075C51.9439 212.543 55.0681 217.505 59.1527 221.601C63.2373 225.696 68.1797 228.822 73.6215 230.752L73.6215 259.214C73.6215 262.677 74.9886 265.993 77.4219 268.432C79.8553 270.872 83.1556 272.236 86.5969 272.224C90.0382 272.212 93.3385 270.824 95.7719 268.367C98.2052 265.91 99.5723 262.585 99.5723 259.122L99.5723 233.011L125.523 232.919L125.523 259.03ZM86.5969 206.945C83.1556 206.957 79.8553 205.593 77.4219 203.154C74.9886 200.714 73.6215 197.398 73.6215 193.935L73.6215 89.489C73.6215 86.0264 74.9886 82.7007 77.4219 80.2437C79.8553 77.7866 83.1556 76.3994 86.5969 76.3873L190.4 76.0198C193.841 76.0076 197.141 77.3714 199.575 79.8113C202.008 82.2511 203.375 85.567 203.375 89.0296L203.375 193.476C203.375 196.938 202.008 200.264 199.575 202.721C197.141 205.178 193.841 206.565 190.4 206.578L86.5969 206.945Z"/>
</mask>
<path d="M125.523 259.03C125.523 262.493 126.89 265.809 129.323 268.249C131.757 270.688 135.057 272.052 138.498 272.04C141.94 272.028 145.24 270.641 147.673 268.184C150.107 265.727 151.474 262.401 151.474 258.938L151.474 232.827L177.424 232.735L177.424 258.847C177.424 262.309 178.791 265.625 181.225 268.065C183.658 270.505 186.958 271.869 190.4 271.856C193.841 271.844 197.141 270.457 199.575 268C202.008 265.543 203.375 262.217 203.375 258.755L203.375 230.293C208.817 228.324 213.759 225.163 217.844 221.039C221.929 216.915 225.053 211.93 226.99 206.448L255.277 206.348C258.718 206.336 262.018 204.948 264.452 202.491C266.885 200.034 268.252 196.709 268.252 193.246C268.252 189.784 266.885 186.468 264.452 184.028C262.018 181.588 258.718 180.224 255.277 180.236L229.326 180.328L229.326 154.217L255.277 154.125C258.718 154.113 262.018 152.725 264.452 150.268C266.885 147.811 268.252 144.486 268.252 141.023C268.252 137.56 266.885 134.245 264.452 131.805C262.018 129.365 258.718 128.001 255.277 128.013L229.326 128.105L229.326 101.994L255.277 101.902C258.718 101.889 262.018 100.502 264.452 98.0452C266.885 95.5882 268.252 92.2626 268.252 88.8C268.252 85.3374 266.885 82.0214 264.452 79.5816C262.018 77.1418 258.718 75.7779 255.277 75.7901L226.99 75.8903C225.053 70.4216 221.929 65.4596 217.844 61.3642C213.759 57.2687 208.817 54.1426 203.375 52.2123L203.375 23.7508C203.375 20.2882 202.008 16.9722 199.575 14.5324C197.141 12.0926 193.841 10.7287 190.4 10.7409C186.959 10.7531 183.658 12.1403 181.225 14.5974C178.791 17.0544 177.424 20.38 177.424 23.8426L177.424 49.9542L151.474 50.046L151.474 23.9345C151.474 20.4719 150.107 17.1559 147.673 14.7161C145.24 12.2763 141.94 10.9125 138.498 10.9247C135.057 10.9368 131.757 12.324 129.323 14.7811C126.89 17.2381 125.523 20.5638 125.523 24.0264L125.523 50.1379L99.5723 50.2298L99.5723 24.1182C99.5723 20.6556 98.2052 17.3397 95.7719 14.8999C93.3385 12.46 90.0382 11.0962 86.5969 11.1084C83.1556 11.1206 79.8553 12.5078 77.4219 14.9648C74.9886 17.4219 73.6215 20.7475 73.6215 24.2101L73.6215 52.6717C68.1797 54.6404 63.2373 57.8016 59.1527 61.9259C55.0681 66.0503 51.9439 71.0344 50.0064 76.5168L21.7201 76.6169C18.2788 76.6291 14.9785 78.0163 12.5451 80.4733C10.1118 82.9304 8.74474 86.256 8.74474 89.7186C8.74474 93.1812 10.1118 96.4972 12.5451 98.937C14.9785 101.377 18.2788 102.741 21.7201 102.728L47.6708 102.637L47.6708 128.748L21.7201 128.84C18.2788 128.852 14.9785 130.239 12.5451 132.696C10.1118 135.153 8.74474 138.479 8.74474 141.942C8.74474 145.404 10.1118 148.72 12.5451 151.16C14.9785 153.6 18.2788 154.964 21.7201 154.952L47.6708 154.86L47.6708 180.971L21.7201 181.063C18.2788 181.075 14.9785 182.462 12.5451 184.92C10.1118 187.377 8.74473 190.702 8.74473 194.165C8.74473 197.627 10.1118 200.943 12.5451 203.383C14.9785 205.823 18.2788 207.187 21.7201 207.175L50.0064 207.075C51.9439 212.543 55.0681 217.505 59.1527 221.601C63.2373 225.696 68.1797 228.822 73.6215 230.752L73.6215 259.214C73.6215 262.677 74.9886 265.993 77.4219 268.432C79.8553 270.872 83.1556 272.236 86.5969 272.224C90.0382 272.212 93.3385 270.824 95.7719 268.367C98.2052 265.91 99.5723 262.585 99.5723 259.122L99.5723 233.011L125.523 232.919L125.523 259.03ZM86.5969 206.945C83.1556 206.957 79.8553 205.593 77.4219 203.154C74.9886 200.714 73.6215 197.398 73.6215 193.935L73.6215 89.489C73.6215 86.0264 74.9886 82.7007 77.4219 80.2437C79.8553 77.7866 83.1556 76.3994 86.5969 76.3873L190.4 76.0198C193.841 76.0076 197.141 77.3714 199.575 79.8113C202.008 82.2511 203.375 85.567 203.375 89.0296L203.375 193.476C203.375 196.938 202.008 200.264 199.575 202.721C197.141 205.178 193.841 206.565 190.4 206.578L86.5969 206.945Z" stroke="#D19A64" stroke-width="2" mask="url(#path-1-inside-1_488_27706)"/>
</g>
<g filter="url(#filter1_f_488_27706)">
<mask id="path-2-inside-2_488_27706" fill="white">
<path d="M125.523 259.03C125.523 262.493 126.89 265.809 129.323 268.249C131.757 270.688 135.057 272.052 138.498 272.04C141.94 272.028 145.24 270.641 147.673 268.184C150.107 265.727 151.474 262.401 151.474 258.938L151.474 232.827L177.424 232.735L177.424 258.847C177.424 262.309 178.791 265.625 181.225 268.065C183.658 270.505 186.959 271.869 190.4 271.856C193.841 271.844 197.141 270.457 199.575 268C202.008 265.543 203.375 262.217 203.375 258.755L203.375 230.293C208.817 228.324 213.759 225.163 217.844 221.039C221.929 216.915 225.053 211.93 226.99 206.448L255.277 206.348C258.718 206.336 262.018 204.948 264.452 202.491C266.885 200.034 268.252 196.709 268.252 193.246C268.252 189.784 266.885 186.468 264.452 184.028C262.018 181.588 258.718 180.224 255.277 180.236L229.326 180.328L229.326 154.217L255.277 154.125C258.718 154.113 262.018 152.725 264.452 150.268C266.885 147.811 268.252 144.486 268.252 141.023C268.252 137.56 266.885 134.245 264.452 131.805C262.018 129.365 258.718 128.001 255.277 128.013L229.326 128.105L229.326 101.994L255.277 101.902C258.718 101.889 262.018 100.502 264.452 98.0452C266.885 95.5882 268.252 92.2626 268.252 88.8C268.252 85.3374 266.885 82.0214 264.452 79.5816C262.018 77.1418 258.718 75.7779 255.277 75.7901L226.99 75.8903C225.053 70.4216 221.929 65.4596 217.844 61.3642C213.759 57.2687 208.817 54.1426 203.375 52.2123L203.375 23.7508C203.375 20.2882 202.008 16.9722 199.575 14.5324C197.141 12.0926 193.841 10.7287 190.4 10.7409C186.959 10.7531 183.658 12.1403 181.225 14.5974C178.791 17.0544 177.424 20.38 177.424 23.8426L177.424 49.9542L151.474 50.046L151.474 23.9345C151.474 20.4719 150.107 17.1559 147.673 14.7161C145.24 12.2763 141.94 10.9125 138.498 10.9247C135.057 10.9368 131.757 12.324 129.323 14.7811C126.89 17.2381 125.523 20.5638 125.523 24.0264L125.523 50.1379L99.5723 50.2298L99.5723 24.1182C99.5723 20.6556 98.2052 17.3397 95.7719 14.8999C93.3385 12.46 90.0382 11.0962 86.5969 11.1084C83.1556 11.1206 79.8553 12.5078 77.4219 14.9648C74.9886 17.4219 73.6215 20.7475 73.6215 24.2101L73.6215 52.6717C68.1797 54.6404 63.2373 57.8016 59.1527 61.9259C55.0681 66.0503 51.9439 71.0344 50.0064 76.5168L21.7201 76.6169C18.2788 76.6291 14.9785 78.0163 12.5451 80.4733C10.1118 82.9304 8.74474 86.256 8.74474 89.7186C8.74474 93.1812 10.1118 96.4972 12.5451 98.937C14.9785 101.377 18.2788 102.741 21.7201 102.728L47.6708 102.637L47.6708 128.748L21.7201 128.84C18.2788 128.852 14.9785 130.239 12.5451 132.696C10.1118 135.153 8.74474 138.479 8.74474 141.942C8.74474 145.404 10.1118 148.72 12.5451 151.16C14.9785 153.6 18.2788 154.964 21.7201 154.952L47.6708 154.86L47.6708 180.971L21.7201 181.063C18.2788 181.075 14.9785 182.462 12.5451 184.92C10.1118 187.377 8.74473 190.702 8.74473 194.165C8.74473 197.627 10.1118 200.943 12.5451 203.383C14.9785 205.823 18.2788 207.187 21.7201 207.175L50.0064 207.075C51.9438 212.543 55.0681 217.505 59.1527 221.601C63.2373 225.696 68.1797 228.822 73.6215 230.752L73.6215 259.214C73.6215 262.677 74.9886 265.993 77.4219 268.432C79.8553 270.872 83.1556 272.236 86.5969 272.224C90.0382 272.212 93.3385 270.824 95.7719 268.367C98.2052 265.91 99.5723 262.585 99.5723 259.122L99.5723 233.011L125.523 232.919L125.523 259.03ZM86.5969 206.945C83.1556 206.957 79.8553 205.593 77.4219 203.154C74.9886 200.714 73.6215 197.398 73.6215 193.935L73.6215 89.489C73.6215 86.0264 74.9886 82.7007 77.4219 80.2437C79.8553 77.7866 83.1556 76.3994 86.5969 76.3873L190.4 76.0198C193.841 76.0076 197.141 77.3714 199.575 79.8113C202.008 82.2511 203.375 85.567 203.375 89.0296L203.375 193.476C203.375 196.938 202.008 200.264 199.575 202.721C197.141 205.178 193.841 206.565 190.4 206.578L86.5969 206.945Z"/>
</mask>
<path d="M125.523 259.03C125.523 262.493 126.89 265.809 129.323 268.249C131.757 270.688 135.057 272.052 138.498 272.04C141.94 272.028 145.24 270.641 147.673 268.184C150.107 265.727 151.474 262.401 151.474 258.938L151.474 232.827L177.424 232.735L177.424 258.847C177.424 262.309 178.791 265.625 181.225 268.065C183.658 270.505 186.959 271.869 190.4 271.856C193.841 271.844 197.141 270.457 199.575 268C202.008 265.543 203.375 262.217 203.375 258.755L203.375 230.293C208.817 228.324 213.759 225.163 217.844 221.039C221.929 216.915 225.053 211.93 226.99 206.448L255.277 206.348C258.718 206.336 262.018 204.948 264.452 202.491C266.885 200.034 268.252 196.709 268.252 193.246C268.252 189.784 266.885 186.468 264.452 184.028C262.018 181.588 258.718 180.224 255.277 180.236L229.326 180.328L229.326 154.217L255.277 154.125C258.718 154.113 262.018 152.725 264.452 150.268C266.885 147.811 268.252 144.486 268.252 141.023C268.252 137.56 266.885 134.245 264.452 131.805C262.018 129.365 258.718 128.001 255.277 128.013L229.326 128.105L229.326 101.994L255.277 101.902C258.718 101.889 262.018 100.502 264.452 98.0452C266.885 95.5882 268.252 92.2626 268.252 88.8C268.252 85.3374 266.885 82.0214 264.452 79.5816C262.018 77.1418 258.718 75.7779 255.277 75.7901L226.99 75.8903C225.053 70.4216 221.929 65.4596 217.844 61.3642C213.759 57.2687 208.817 54.1426 203.375 52.2123L203.375 23.7508C203.375 20.2882 202.008 16.9722 199.575 14.5324C197.141 12.0926 193.841 10.7287 190.4 10.7409C186.959 10.7531 183.658 12.1403 181.225 14.5974C178.791 17.0544 177.424 20.38 177.424 23.8426L177.424 49.9542L151.474 50.046L151.474 23.9345C151.474 20.4719 150.107 17.1559 147.673 14.7161C145.24 12.2763 141.94 10.9125 138.498 10.9247C135.057 10.9368 131.757 12.324 129.323 14.7811C126.89 17.2381 125.523 20.5638 125.523 24.0264L125.523 50.1379L99.5723 50.2298L99.5723 24.1182C99.5723 20.6556 98.2052 17.3397 95.7719 14.8999C93.3385 12.46 90.0382 11.0962 86.5969 11.1084C83.1556 11.1206 79.8553 12.5078 77.4219 14.9648C74.9886 17.4219 73.6215 20.7475 73.6215 24.2101L73.6215 52.6717C68.1797 54.6404 63.2373 57.8016 59.1527 61.9259C55.0681 66.0503 51.9439 71.0344 50.0064 76.5168L21.7201 76.6169C18.2788 76.6291 14.9785 78.0163 12.5451 80.4733C10.1118 82.9304 8.74474 86.256 8.74474 89.7186C8.74474 93.1812 10.1118 96.4972 12.5451 98.937C14.9785 101.377 18.2788 102.741 21.7201 102.728L47.6708 102.637L47.6708 128.748L21.7201 128.84C18.2788 128.852 14.9785 130.239 12.5451 132.696C10.1118 135.153 8.74474 138.479 8.74474 141.942C8.74474 145.404 10.1118 148.72 12.5451 151.16C14.9785 153.6 18.2788 154.964 21.7201 154.952L47.6708 154.86L47.6708 180.971L21.7201 181.063C18.2788 181.075 14.9785 182.462 12.5451 184.92C10.1118 187.377 8.74473 190.702 8.74473 194.165C8.74473 197.627 10.1118 200.943 12.5451 203.383C14.9785 205.823 18.2788 207.187 21.7201 207.175L50.0064 207.075C51.9438 212.543 55.0681 217.505 59.1527 221.601C63.2373 225.696 68.1797 228.822 73.6215 230.752L73.6215 259.214C73.6215 262.677 74.9886 265.993 77.4219 268.432C79.8553 270.872 83.1556 272.236 86.5969 272.224C90.0382 272.212 93.3385 270.824 95.7719 268.367C98.2052 265.91 99.5723 262.585 99.5723 259.122L99.5723 233.011L125.523 232.919L125.523 259.03ZM86.5969 206.945C83.1556 206.957 79.8553 205.593 77.4219 203.154C74.9886 200.714 73.6215 197.398 73.6215 193.935L73.6215 89.489C73.6215 86.0264 74.9886 82.7007 77.4219 80.2437C79.8553 77.7866 83.1556 76.3994 86.5969 76.3873L190.4 76.0198C193.841 76.0076 197.141 77.3714 199.575 79.8113C202.008 82.2511 203.375 85.567 203.375 89.0296L203.375 193.476C203.375 196.938 202.008 200.264 199.575 202.721C197.141 205.178 193.841 206.565 190.4 206.578L86.5969 206.945Z" stroke="#D19A64" mask="url(#path-2-inside-2_488_27706)"/>
</g>
<g filter="url(#filter2_f_488_27706)">
<mask id="path-3-inside-3_488_27706" fill="white">
<path d="M125.523 259.03C125.523 262.493 126.89 265.809 129.323 268.249C131.757 270.688 135.057 272.052 138.498 272.04C141.94 272.028 145.24 270.641 147.673 268.184C150.107 265.727 151.474 262.401 151.474 258.938L151.474 232.827L177.424 232.735L177.424 258.847C177.424 262.309 178.791 265.625 181.225 268.065C183.658 270.505 186.958 271.869 190.4 271.856C193.841 271.844 197.141 270.457 199.575 268C202.008 265.543 203.375 262.217 203.375 258.755L203.375 230.293C208.817 228.324 213.759 225.163 217.844 221.039C221.929 216.915 225.053 211.93 226.99 206.448L255.277 206.348C258.718 206.336 262.018 204.948 264.452 202.491C266.885 200.034 268.252 196.709 268.252 193.246C268.252 189.784 266.885 186.468 264.452 184.028C262.018 181.588 258.718 180.224 255.277 180.236L229.326 180.328L229.326 154.217L255.277 154.125C258.718 154.113 262.018 152.725 264.452 150.268C266.885 147.811 268.252 144.486 268.252 141.023C268.252 137.56 266.885 134.245 264.452 131.805C262.018 129.365 258.718 128.001 255.277 128.013L229.326 128.105L229.326 101.994L255.277 101.902C258.718 101.889 262.018 100.502 264.452 98.0452C266.885 95.5882 268.252 92.2626 268.252 88.8C268.252 85.3374 266.885 82.0214 264.452 79.5816C262.018 77.1418 258.718 75.7779 255.277 75.7901L226.99 75.8903C225.053 70.4216 221.929 65.4596 217.844 61.3642C213.759 57.2687 208.817 54.1426 203.375 52.2123L203.375 23.7508C203.375 20.2882 202.008 16.9722 199.575 14.5324C197.141 12.0926 193.841 10.7287 190.4 10.7409C186.959 10.7531 183.658 12.1403 181.225 14.5974C178.791 17.0544 177.424 20.38 177.424 23.8426L177.424 49.9542L151.474 50.046L151.474 23.9345C151.474 20.4719 150.107 17.1559 147.673 14.7161C145.24 12.2763 141.94 10.9125 138.498 10.9247C135.057 10.9368 131.757 12.324 129.323 14.7811C126.89 17.2381 125.523 20.5638 125.523 24.0264L125.523 50.1379L99.5723 50.2298L99.5723 24.1182C99.5723 20.6556 98.2052 17.3397 95.7719 14.8999C93.3385 12.46 90.0382 11.0962 86.5969 11.1084C83.1556 11.1206 79.8553 12.5078 77.4219 14.9648C74.9886 17.4219 73.6215 20.7475 73.6215 24.2101L73.6215 52.6717C68.1797 54.6404 63.2373 57.8016 59.1527 61.9259C55.0681 66.0503 51.9439 71.0344 50.0064 76.5168L21.7201 76.6169C18.2788 76.6291 14.9785 78.0163 12.5451 80.4733C10.1118 82.9304 8.74474 86.256 8.74474 89.7186C8.74474 93.1812 10.1118 96.4972 12.5451 98.937C14.9785 101.377 18.2788 102.741 21.7201 102.728L47.6708 102.637L47.6708 128.748L21.7201 128.84C18.2788 128.852 14.9785 130.239 12.5451 132.696C10.1118 135.153 8.74474 138.479 8.74474 141.942C8.74474 145.404 10.1118 148.72 12.5451 151.16C14.9785 153.6 18.2788 154.964 21.7201 154.952L47.6708 154.86L47.6708 180.971L21.7201 181.063C18.2788 181.075 14.9785 182.462 12.5451 184.92C10.1118 187.377 8.74473 190.702 8.74473 194.165C8.74473 197.627 10.1118 200.943 12.5451 203.383C14.9785 205.823 18.2788 207.187 21.7201 207.175L50.0064 207.075C51.9439 212.543 55.0681 217.505 59.1527 221.601C63.2373 225.696 68.1797 228.822 73.6215 230.752L73.6215 259.214C73.6215 262.677 74.9886 265.993 77.4219 268.432C79.8553 270.872 83.1556 272.236 86.5969 272.224C90.0382 272.212 93.3385 270.824 95.7719 268.367C98.2052 265.91 99.5723 262.585 99.5723 259.122L99.5723 233.011L125.523 232.919L125.523 259.03ZM86.5969 206.945C83.1556 206.957 79.8553 205.593 77.4219 203.154C74.9886 200.714 73.6215 197.398 73.6215 193.935L73.6215 89.489C73.6215 86.0264 74.9886 82.7007 77.4219 80.2437C79.8553 77.7866 83.1556 76.3994 86.5969 76.3873L190.4 76.0198C193.841 76.0076 197.141 77.3714 199.575 79.8113C202.008 82.2511 203.375 85.567 203.375 89.0296L203.375 193.476C203.375 196.938 202.008 200.264 199.575 202.721C197.141 205.178 193.841 206.565 190.4 206.578L86.5969 206.945Z"/>
</mask>
<path d="M125.523 259.03C125.523 262.493 126.89 265.809 129.323 268.249C131.757 270.688 135.057 272.052 138.498 272.04C141.94 272.028 145.24 270.641 147.673 268.184C150.107 265.727 151.474 262.401 151.474 258.938L151.474 232.827L177.424 232.735L177.424 258.847C177.424 262.309 178.791 265.625 181.225 268.065C183.658 270.505 186.958 271.869 190.4 271.856C193.841 271.844 197.141 270.457 199.575 268C202.008 265.543 203.375 262.217 203.375 258.755L203.375 230.293C208.817 228.324 213.759 225.163 217.844 221.039C221.929 216.915 225.053 211.93 226.99 206.448L255.277 206.348C258.718 206.336 262.018 204.948 264.452 202.491C266.885 200.034 268.252 196.709 268.252 193.246C268.252 189.784 266.885 186.468 264.452 184.028C262.018 181.588 258.718 180.224 255.277 180.236L229.326 180.328L229.326 154.217L255.277 154.125C258.718 154.113 262.018 152.725 264.452 150.268C266.885 147.811 268.252 144.486 268.252 141.023C268.252 137.56 266.885 134.245 264.452 131.805C262.018 129.365 258.718 128.001 255.277 128.013L229.326 128.105L229.326 101.994L255.277 101.902C258.718 101.889 262.018 100.502 264.452 98.0452C266.885 95.5882 268.252 92.2626 268.252 88.8C268.252 85.3374 266.885 82.0214 264.452 79.5816C262.018 77.1418 258.718 75.7779 255.277 75.7901L226.99 75.8903C225.053 70.4216 221.929 65.4596 217.844 61.3642C213.759 57.2687 208.817 54.1426 203.375 52.2123L203.375 23.7508C203.375 20.2882 202.008 16.9722 199.575 14.5324C197.141 12.0926 193.841 10.7287 190.4 10.7409C186.959 10.7531 183.658 12.1403 181.225 14.5974C178.791 17.0544 177.424 20.38 177.424 23.8426L177.424 49.9542L151.474 50.046L151.474 23.9345C151.474 20.4719 150.107 17.1559 147.673 14.7161C145.24 12.2763 141.94 10.9125 138.498 10.9247C135.057 10.9368 131.757 12.324 129.323 14.7811C126.89 17.2381 125.523 20.5638 125.523 24.0264L125.523 50.1379L99.5723 50.2298L99.5723 24.1182C99.5723 20.6556 98.2052 17.3397 95.7719 14.8999C93.3385 12.46 90.0382 11.0962 86.5969 11.1084C83.1556 11.1206 79.8553 12.5078 77.4219 14.9648C74.9886 17.4219 73.6215 20.7475 73.6215 24.2101L73.6215 52.6717C68.1797 54.6404 63.2373 57.8016 59.1527 61.9259C55.0681 66.0503 51.9439 71.0344 50.0064 76.5168L21.7201 76.6169C18.2788 76.6291 14.9785 78.0163 12.5451 80.4733C10.1118 82.9304 8.74474 86.256 8.74474 89.7186C8.74474 93.1812 10.1118 96.4972 12.5451 98.937C14.9785 101.377 18.2788 102.741 21.7201 102.728L47.6708 102.637L47.6708 128.748L21.7201 128.84C18.2788 128.852 14.9785 130.239 12.5451 132.696C10.1118 135.153 8.74474 138.479 8.74474 141.942C8.74474 145.404 10.1118 148.72 12.5451 151.16C14.9785 153.6 18.2788 154.964 21.7201 154.952L47.6708 154.86L47.6708 180.971L21.7201 181.063C18.2788 181.075 14.9785 182.462 12.5451 184.92C10.1118 187.377 8.74473 190.702 8.74473 194.165C8.74473 197.627 10.1118 200.943 12.5451 203.383C14.9785 205.823 18.2788 207.187 21.7201 207.175L50.0064 207.075C51.9439 212.543 55.0681 217.505 59.1527 221.601C63.2373 225.696 68.1797 228.822 73.6215 230.752L73.6215 259.214C73.6215 262.677 74.9886 265.993 77.4219 268.432C79.8553 270.872 83.1556 272.236 86.5969 272.224C90.0382 272.212 93.3385 270.824 95.7719 268.367C98.2052 265.91 99.5723 262.585 99.5723 259.122L99.5723 233.011L125.523 232.919L125.523 259.03ZM86.5969 206.945C83.1556 206.957 79.8553 205.593 77.4219 203.154C74.9886 200.714 73.6215 197.398 73.6215 193.935L73.6215 89.489C73.6215 86.0264 74.9886 82.7007 77.4219 80.2437C79.8553 77.7866 83.1556 76.3994 86.5969 76.3873L190.4 76.0198C193.841 76.0076 197.141 77.3714 199.575 79.8113C202.008 82.2511 203.375 85.567 203.375 89.0296L203.375 193.476C203.375 196.938 202.008 200.264 199.575 202.721C197.141 205.178 193.841 206.565 190.4 206.578L86.5969 206.945Z" stroke="#FEE5D0" stroke-width="0.2" mask="url(#path-3-inside-3_488_27706)"/>
</g>
<g filter="url(#filter3_f_488_27706)">
<path d="M122.92 107.39C124.291 109.45 125.023 111.875 125.023 114.359C125.023 117.69 123.708 120.889 121.368 123.252C119.028 125.614 115.856 126.948 112.548 126.959C110.081 126.968 107.67 126.241 105.618 124.869C103.567 123.497 101.967 121.542 101.023 119.25C100.078 116.959 99.8309 114.435 100.312 111.997C100.794 109.559 101.983 107.317 103.728 105.555C105.473 103.794 107.695 102.59 110.115 102.098C112.534 101.605 115.042 101.844 117.321 102.786C119.6 103.728 121.549 105.33 122.92 107.39ZM174.822 107.206C176.193 109.266 176.925 111.692 176.925 114.176C176.925 117.507 175.61 120.705 173.27 123.068C170.93 125.431 167.757 126.764 164.449 126.776C161.983 126.784 159.571 126.057 157.52 124.685C155.468 123.313 153.869 121.358 152.924 119.067C151.98 116.775 151.732 114.251 152.214 111.813C152.696 109.375 153.884 107.134 155.629 105.372C157.374 103.61 159.597 102.407 162.016 101.914C164.436 101.421 166.943 101.661 169.223 102.603C171.502 103.544 173.45 105.146 174.822 107.206ZM174.822 159.429C176.193 161.489 176.925 163.915 176.925 166.399C176.925 169.73 175.61 172.928 173.27 175.291C170.93 177.654 167.757 178.987 164.449 178.999C161.983 179.007 159.571 178.28 157.52 176.908C155.468 175.536 153.869 173.581 152.924 171.29C151.979 168.998 151.732 166.474 152.214 164.036C152.696 161.598 153.884 159.357 155.629 157.595C157.374 155.833 159.597 154.63 162.016 154.137C164.436 153.644 166.943 153.884 169.223 154.826C171.502 155.768 173.45 157.369 174.822 159.429ZM122.92 159.613C124.291 161.673 125.023 164.099 125.023 166.583C125.023 169.914 123.708 173.112 121.368 175.475C119.028 177.837 115.856 179.171 112.548 179.182C110.081 179.191 107.67 178.464 105.618 177.092C103.567 175.72 101.967 173.765 101.023 171.473C100.078 169.182 99.8309 166.658 100.312 164.22C100.794 161.782 101.983 159.541 103.728 157.779C105.473 156.017 107.695 154.813 110.115 154.321C112.534 153.828 115.042 154.068 117.321 155.009C119.6 155.951 121.549 157.553 122.92 159.613Z" stroke="#D19A66"/>
</g>
<g filter="url(#filter4_f_488_27706)">
<path d="M123.128 107.251C124.527 109.352 125.273 111.825 125.273 114.359C125.273 117.755 123.932 121.017 121.546 123.427C119.159 125.837 115.922 127.197 112.548 127.209C110.031 127.218 107.571 126.476 105.479 125.077C103.386 123.677 101.755 121.683 100.792 119.346C99.8282 117.01 99.5761 114.435 100.067 111.949C100.558 109.463 101.771 107.177 103.55 105.38C105.33 103.583 107.598 102.355 110.066 101.853C112.534 101.35 115.092 101.594 117.417 102.555C119.742 103.516 121.73 105.15 123.128 107.251ZM175.03 107.067C176.428 109.168 177.175 111.642 177.175 114.175C177.175 117.572 175.834 120.834 173.447 123.244C171.06 125.653 167.824 127.014 164.449 127.026C161.933 127.035 159.473 126.292 157.38 124.893C155.288 123.493 153.656 121.499 152.693 119.163C151.73 116.826 151.478 114.252 151.969 111.765C152.46 109.279 153.672 106.993 155.452 105.196C157.232 103.399 159.499 102.172 161.967 101.669C164.435 101.166 166.994 101.411 169.319 102.371C171.644 103.332 173.631 104.966 175.03 107.067ZM175.03 159.29C176.428 161.391 177.175 163.865 177.175 166.398C177.175 169.795 175.834 173.057 173.447 175.467C171.06 177.877 167.824 179.237 164.449 179.249C161.933 179.258 159.473 178.516 157.38 177.116C155.288 175.716 153.656 173.722 152.693 171.386C151.73 169.049 151.478 166.475 151.969 163.989C152.46 161.502 153.672 159.216 155.452 157.419C157.232 155.622 159.499 154.395 161.967 153.892C164.435 153.389 166.994 153.634 169.319 154.595C171.644 155.555 173.631 157.189 175.03 159.29ZM123.128 159.474C124.527 161.575 125.273 164.049 125.273 166.582C125.273 169.978 123.932 173.241 121.546 175.65C119.159 178.06 115.922 179.421 112.548 179.432C110.031 179.441 107.571 178.699 105.479 177.3C103.386 175.9 101.755 173.906 100.792 171.569C99.8282 169.233 99.5761 166.658 100.067 164.172C100.558 161.686 101.771 159.4 103.55 157.603C105.33 155.806 107.598 154.578 110.066 154.076C112.534 153.573 115.092 153.817 117.417 154.778C119.742 155.739 121.73 157.373 123.128 159.474Z" stroke="#D19A66" stroke-width="0.5"/>
</g>
<g filter="url(#filter5_f_488_27706)">
<path d="M123.295 107.14C124.715 109.274 125.473 111.785 125.473 114.358C125.473 117.807 124.112 121.12 121.688 123.568C119.264 126.015 115.976 127.397 112.548 127.409C109.992 127.418 107.493 126.665 105.367 125.243C103.242 123.821 101.585 121.796 100.607 119.423C99.6282 117.05 99.3723 114.436 99.871 111.911C100.37 109.386 101.601 107.065 103.409 105.239C105.216 103.414 107.519 102.167 110.026 101.657C112.534 101.146 115.132 101.394 117.494 102.37C119.856 103.346 121.875 105.006 123.295 107.14ZM175.196 106.956C176.617 109.09 177.375 111.602 177.375 114.174C177.375 117.624 176.013 120.936 173.589 123.384C171.165 125.832 167.877 127.214 164.449 127.226C161.893 127.235 159.394 126.481 157.269 125.059C155.143 123.638 153.486 121.612 152.508 119.239C151.53 116.866 151.274 114.252 151.772 111.727C152.271 109.203 153.502 106.881 155.31 105.056C157.118 103.23 159.421 101.984 161.928 101.473C164.435 100.962 167.034 101.211 169.396 102.187C171.757 103.163 173.776 104.822 175.196 106.956ZM175.196 159.179C176.617 161.313 177.375 163.825 177.375 166.397C177.375 169.847 176.013 173.16 173.589 175.607C171.165 178.055 167.877 179.437 164.449 179.449C161.893 179.458 159.394 178.704 157.269 177.282C155.143 175.861 153.486 173.836 152.508 171.462C151.53 169.089 151.274 166.475 151.772 163.95C152.271 161.426 153.502 159.104 155.31 157.279C157.118 155.453 159.421 154.207 161.928 153.696C164.435 153.185 167.034 153.434 169.396 154.41C171.757 155.386 173.776 157.045 175.196 159.179ZM123.295 159.363C124.715 161.497 125.473 164.009 125.473 166.581C125.473 170.03 124.112 173.343 121.687 175.791C119.263 178.239 115.976 179.62 112.548 179.632C109.992 179.642 107.493 178.888 105.367 177.466C103.242 176.045 101.585 174.019 100.607 171.646C99.6282 169.273 99.3723 166.659 99.871 164.134C100.37 161.61 101.601 159.288 103.409 157.462C105.216 155.637 107.519 154.39 110.026 153.88C112.534 153.369 115.132 153.617 117.494 154.593C119.856 155.569 121.875 157.229 123.295 159.363Z" stroke="#FEE5D0" stroke-width="0.1"/>
</g>
</g>
<defs>
<filter id="filter0_f_488_27706" x="2.74512" y="4.74072" width="271.507" height="273.483" filterUnits="userSpaceOnUse" color-interpolation-filters="sRGB">
<feFlood flood-opacity="0" result="BackgroundImageFix"/>
<feBlend mode="normal" in="SourceGraphic" in2="BackgroundImageFix" result="shape"/>
<feGaussianBlur stdDeviation="3" result="effect1_foregroundBlur_488_27706"/>
</filter>
<filter id="filter1_f_488_27706" x="8.24512" y="10.2407" width="260.507" height="262.483" filterUnits="userSpaceOnUse" color-interpolation-filters="sRGB">
<feFlood flood-opacity="0" result="BackgroundImageFix"/>
<feBlend mode="normal" in="SourceGraphic" in2="BackgroundImageFix" result="shape"/>
<feGaussianBlur stdDeviation="0.25" result="effect1_foregroundBlur_488_27706"/>
</filter>
<filter id="filter2_f_488_27706" x="8.24512" y="10.2407" width="260.507" height="262.483" filterUnits="userSpaceOnUse" color-interpolation-filters="sRGB">
<feFlood flood-opacity="0" result="BackgroundImageFix"/>
<feBlend mode="normal" in="SourceGraphic" in2="BackgroundImageFix" result="shape"/>
<feGaussianBlur stdDeviation="0.25" result="effect1_foregroundBlur_488_27706"/>
</filter>
<filter id="filter3_f_488_27706" x="93.5723" y="95.1641" width="89.8525" height="90.5186" filterUnits="userSpaceOnUse" color-interpolation-filters="sRGB">
<feFlood flood-opacity="0" result="BackgroundImageFix"/>
<feBlend mode="normal" in="SourceGraphic" in2="BackgroundImageFix" result="shape"/>
<feGaussianBlur stdDeviation="3" result="effect1_foregroundBlur_488_27706"/>
</filter>
<filter id="filter4_f_488_27706" x="98.5723" y="100.164" width="79.8525" height="80.5186" filterUnits="userSpaceOnUse" color-interpolation-filters="sRGB">
<feFlood flood-opacity="0" result="BackgroundImageFix"/>
<feBlend mode="normal" in="SourceGraphic" in2="BackgroundImageFix" result="shape"/>
<feGaussianBlur stdDeviation="0.5" result="effect1_foregroundBlur_488_27706"/>
</filter>
<filter id="filter5_f_488_27706" x="99.0723" y="100.664" width="78.8525" height="79.5186" filterUnits="userSpaceOnUse" color-interpolation-filters="sRGB">
<feFlood flood-opacity="0" result="BackgroundImageFix"/>
<feBlend mode="normal" in="SourceGraphic" in2="BackgroundImageFix" result="shape"/>
<feGaussianBlur stdDeviation="0.25" result="effect1_foregroundBlur_488_27706"/>
</filter>
<clipPath id="clip0_488_27706">
<rect width="278" height="279" fill="white" transform="translate(0.15625 0.785156)"/>
</clipPath>
</defs>
</svg>
