<svg width="150" height="139" viewBox="0 0 150 139" fill="none" xmlns="http://www.w3.org/2000/svg">
<path d="M89.0679 107.584L80.6829 116.034V79.6987C80.6829 77.9748 79.998 76.3215 78.779 75.1025C77.5601 73.8836 75.9068 73.1987 74.1829 73.1987C72.4589 73.1987 70.8056 73.8836 69.5867 75.1025C68.3677 76.3215 67.6828 77.9748 67.6828 79.6987V116.034L59.2978 107.584C58.6918 106.978 57.9723 106.497 57.1805 106.169C56.3886 105.841 55.5399 105.672 54.6828 105.672C53.8258 105.672 52.9771 105.841 52.1852 106.169C51.3934 106.497 50.6739 106.978 50.0678 107.584C49.4618 108.19 48.981 108.909 48.6531 109.701C48.3251 110.493 48.1562 111.342 48.1562 112.199C48.1562 113.056 48.3251 113.905 48.6531 114.696C48.981 115.488 49.4618 116.208 50.0678 116.814L69.5678 136.314C70.186 136.905 70.915 137.369 71.7128 137.679C72.4909 138.023 73.3322 138.2 74.1829 138.2C75.0335 138.2 75.8748 138.023 76.6529 137.679C77.4507 137.369 78.1797 136.905 78.7979 136.314L98.2979 116.814C99.5218 115.59 100.209 113.93 100.209 112.199C100.209 110.468 99.5218 108.808 98.2979 107.584C97.0739 106.36 95.4138 105.672 93.6829 105.672C91.9519 105.672 90.2918 106.36 89.0679 107.584Z" fill="#D19A64"/>
<g filter="url(#filter0_f_488_27760)">
<path d="M115.483 35.8283L115.575 36.0404L115.796 36.1074C122.465 38.124 128.293 42.2616 132.395 47.8918C136.498 53.522 138.651 60.3373 138.528 67.3027C138.405 74.2681 136.012 81.003 131.713 86.4848C127.414 91.9661 121.445 95.895 114.71 97.675C113.946 97.8717 113.151 97.9161 112.37 97.8056C111.588 97.6951 110.836 97.4317 110.156 97.0305C109.476 96.6293 108.882 96.0982 108.407 95.4673C107.933 94.8365 107.587 94.1184 107.39 93.354C107.193 92.5896 107.149 91.7939 107.259 91.0123C107.37 90.2307 107.633 89.4785 108.034 88.7987C108.436 88.1188 108.967 87.5247 109.598 87.0502C110.228 86.5756 110.946 86.23 111.711 86.033L111.711 86.033L111.719 86.0308C116.076 84.8301 119.897 82.1895 122.561 78.539C125.225 74.8886 126.574 70.4436 126.388 65.9284C126.203 61.4132 124.493 57.0939 121.539 53.6744C118.585 50.2548 114.559 47.9366 110.119 47.0975L110.119 47.0974L110.111 47.096C109.04 46.9125 108.039 46.4416 107.214 45.7336C106.39 45.0256 105.773 44.107 105.431 43.076L105.429 43.0717C102.899 35.6872 97.8325 29.4388 91.1306 25.4366C84.4288 21.4343 76.5251 19.9374 68.8238 21.2117C61.1226 22.486 54.1224 26.449 49.0669 32.3968C44.0114 38.3445 41.2279 45.8917 41.2111 53.6977V53.6988C41.2111 55.2901 40.5789 56.8162 39.4537 57.9414C38.3285 59.0666 36.8024 59.6988 35.2111 59.6988C31.6307 59.6988 28.1969 61.1211 25.6651 63.6528C23.1334 66.1846 21.7111 69.6184 21.7111 73.1988C21.7111 76.7792 23.1334 80.213 25.6651 82.7447C28.1969 85.2765 31.6307 86.6988 35.2111 86.6988C36.8024 86.6988 38.3285 87.3309 39.4537 88.4561C40.5789 89.5814 41.2111 91.1075 41.2111 92.6988C41.2111 94.2901 40.5789 95.8162 39.4537 96.9414C38.3285 98.0667 36.8024 98.6988 35.2111 98.6988H35.21C28.9602 98.712 22.9231 96.4294 18.2453 92.2846C13.5675 88.1399 10.5748 82.4215 9.83538 76.2155C9.09601 70.0095 10.6615 63.7481 14.2346 58.6204C17.8077 53.4926 23.1395 49.8556 29.2175 48.4L29.5525 48.3198L29.5969 47.9783C30.8671 38.2173 35.3028 29.1419 42.2243 22.143C49.1457 15.1441 58.1711 10.6076 67.9174 9.22886C77.6637 7.85008 87.5933 9.70501 96.1845 14.5094C104.776 19.3138 111.555 26.8026 115.483 35.8283Z" stroke="#D19A64"/>
</g>
<g filter="url(#filter1_f_488_27760)">
<path d="M115.712 35.7285L115.758 35.8346L115.869 35.8681C122.589 37.9005 128.462 42.0704 132.597 47.7446C136.732 53.4188 138.902 60.2873 138.778 67.3071C138.654 74.3269 136.243 81.1145 131.91 86.639C127.577 92.1635 121.56 96.1233 114.773 97.917C113.977 98.122 113.148 98.1682 112.335 98.0532C111.52 97.9381 110.737 97.6637 110.029 97.2458C109.321 96.8279 108.702 96.2747 108.208 95.6176C107.713 94.9606 107.353 94.2126 107.148 93.4164C106.943 92.6202 106.897 91.7914 107.012 90.9773C107.127 90.1632 107.401 89.3797 107.819 88.6716C108.237 87.9635 108.79 87.3446 109.447 86.8504C110.104 86.3561 110.852 85.9961 111.648 85.7909L111.653 85.7898C115.955 84.6041 119.728 81.9965 122.359 78.3917C124.99 74.7869 126.322 70.3975 126.138 65.9387C125.955 61.4799 124.267 57.2146 121.35 53.8378C118.433 50.461 114.457 48.1718 110.073 47.3431L110.068 47.3424C108.953 47.1512 107.91 46.6607 107.051 45.9232C106.193 45.1857 105.551 44.2289 105.193 43.1549L105.193 43.1527C102.681 35.8242 97.6536 29.6231 91.0025 25.6512C84.3513 21.6793 76.5076 20.1937 68.8646 21.4583C61.2217 22.723 54.2745 26.656 49.2574 32.5587C44.2402 38.4613 41.4778 45.9514 41.4611 53.6982V53.6988C41.4611 55.3564 40.8026 56.9461 39.6305 58.1182C38.4584 59.2903 36.8687 59.9488 35.2111 59.9488C31.697 59.9488 28.3268 61.3448 25.8419 63.8296C23.3571 66.3145 21.9611 69.6847 21.9611 73.1988C21.9611 76.7129 23.3571 80.0831 25.8419 82.5679C28.3268 85.0528 31.697 86.4488 35.2111 86.4488C36.8687 86.4488 38.4584 87.1073 39.6305 88.2794C40.8026 89.4515 41.4611 91.0412 41.4611 92.6988C41.4611 94.3564 40.8026 95.9461 39.6305 97.1182C38.4584 98.2903 36.8687 98.9488 35.2111 98.9488H35.2106C28.8994 98.9621 22.8032 96.6572 18.0795 92.4718C13.3558 88.2863 10.3338 82.5119 9.58714 76.2451C8.84052 69.9783 10.4214 63.6555 14.0295 58.4774C17.6376 53.2994 23.0217 49.6267 29.1593 48.1569L29.3268 48.1168L29.349 47.946C30.6263 38.1308 35.0866 29.005 42.0465 21.9672C49.0064 14.9294 58.0819 10.3678 67.8824 8.98133C77.6828 7.59489 87.6676 9.46012 96.3065 14.2912C104.945 19.1223 111.762 26.6527 115.712 35.7285Z" stroke="#D19A64" stroke-width="0.5"/>
</g>
<g filter="url(#filter2_f_488_27760)">
<path d="M115.895 35.6487L115.904 35.6699L115.927 35.6766C122.689 37.7216 128.598 41.9174 132.759 47.6268C136.919 53.3362 139.103 60.2473 138.978 67.3106C138.853 74.374 136.427 81.2036 132.067 86.7625C127.708 92.3212 121.654 96.3055 114.824 98.1104C114.002 98.3221 113.147 98.37 112.307 98.2512C111.466 98.1324 110.658 97.8493 109.927 97.4181C109.197 96.9868 108.558 96.4159 108.048 95.7379C107.538 95.0598 107.166 94.2879 106.955 93.4663C106.743 92.6447 106.695 91.7894 106.814 90.9493C106.932 90.1092 107.216 89.3007 107.647 88.5699C108.078 87.8392 108.649 87.2006 109.327 86.6905C110.005 86.1805 110.777 85.809 111.599 85.5972L111.599 85.597C115.858 84.4233 119.594 81.8421 122.197 78.2738C124.801 74.7055 126.12 70.3605 125.939 65.9469C125.757 61.5333 124.087 57.3112 121.199 53.9686C118.311 50.626 114.376 48.3599 110.035 47.5396L110.035 47.5395C108.883 47.3422 107.807 46.836 106.921 46.0749C106.035 45.3138 105.372 44.3264 105.004 43.218L105.003 43.2176C102.508 35.9338 97.5104 29.7706 90.8999 25.8229C84.2894 21.8752 76.4935 20.3987 68.8973 21.6556C61.301 22.9126 54.3963 26.8216 49.4097 32.6882C44.4232 38.5548 41.6777 45.9991 41.6611 53.6987V53.6988C41.6611 55.4094 40.9815 57.05 39.7719 58.2596C38.5623 59.4692 36.9217 60.1488 35.2111 60.1488C31.75 60.1488 28.4307 61.5237 25.9833 63.971C23.536 66.4184 22.1611 69.7377 22.1611 73.1988C22.1611 76.6599 23.536 79.9792 25.9833 82.4265C28.4307 84.8739 31.75 86.2488 35.2111 86.2488C36.9217 86.2488 38.5623 86.9283 39.7719 88.1379C40.9815 89.3476 41.6611 90.9881 41.6611 92.6988C41.6611 94.4094 40.9815 96.05 39.7719 97.2596C38.5623 98.4692 36.9217 99.1488 35.2111 99.1488C28.8508 99.1622 22.7072 96.8394 17.9469 92.6215C13.1865 88.4035 10.141 82.5843 9.38854 76.2688C8.63612 69.9533 10.2293 63.5814 13.8654 58.3631C17.5015 53.1448 22.9274 49.4436 29.1127 47.9624L29.1462 47.9544L29.1507 47.9202C30.4336 38.0616 34.9136 28.8955 41.9043 21.8266C48.895 14.7577 58.0106 10.1759 67.8544 8.7833C77.6981 7.39073 87.727 9.26421 96.4041 14.1166C105.081 18.9691 111.928 26.5328 115.895 35.6487Z" stroke="#FEE5D0" stroke-width="0.1"/>
</g>
<defs>
<filter id="filter0_f_488_27760" x="3.15625" y="2.28516" width="141.877" height="102.914" filterUnits="userSpaceOnUse" color-interpolation-filters="sRGB">
<feFlood flood-opacity="0" result="BackgroundImageFix"/>
<feBlend mode="normal" in="SourceGraphic" in2="BackgroundImageFix" result="shape"/>
<feGaussianBlur stdDeviation="3" result="effect1_foregroundBlur_488_27760"/>
</filter>
<filter id="filter1_f_488_27760" x="8.65625" y="7.78516" width="130.877" height="91.9136" filterUnits="userSpaceOnUse" color-interpolation-filters="sRGB">
<feFlood flood-opacity="0" result="BackgroundImageFix"/>
<feBlend mode="normal" in="SourceGraphic" in2="BackgroundImageFix" result="shape"/>
<feGaussianBlur stdDeviation="0.25" result="effect1_foregroundBlur_488_27760"/>
</filter>
<filter id="filter2_f_488_27760" x="8.65625" y="7.78516" width="130.877" height="91.9136" filterUnits="userSpaceOnUse" color-interpolation-filters="sRGB">
<feFlood flood-opacity="0" result="BackgroundImageFix"/>
<feBlend mode="normal" in="SourceGraphic" in2="BackgroundImageFix" result="shape"/>
<feGaussianBlur stdDeviation="0.25" result="effect1_foregroundBlur_488_27760"/>
</filter>
</defs>
</svg>
