<svg width="63" height="61" viewBox="0 0 63 61" fill="none" xmlns="http://www.w3.org/2000/svg">
<path d="M28.6268 1.83174C29.8295 1.20333 30.8579 0.683818 31.7121 0.273287C31.7237 0.267936 31.7357 0.265321 31.7486 0.265653C31.761 0.265943 31.773 0.269179 31.7842 0.275028C31.795 0.280919 31.8046 0.289301 31.812 0.299506C31.8191 0.309711 31.8236 0.32145 31.8257 0.333771C31.8531 0.530491 31.8664 0.723644 31.8664 0.913312C31.8676 4.57802 31.8581 8.07019 31.8377 11.3901C31.8274 13.2905 31.8635 15.1453 31.8452 16.9627C31.817 19.8272 31.8158 22.7756 31.8407 25.8064C31.8452 26.4179 31.7846 27.0169 31.744 27.6164C31.7349 27.7454 31.6656 27.8139 31.5366 27.8222C30.7318 27.8694 29.9685 27.8802 29.2475 27.8537C27.5117 27.7919 25.8113 27.8342 24.0864 27.8085C24.0573 27.8081 24.0291 27.7973 24.0075 27.7774C23.9864 27.7574 23.9727 27.7305 23.9698 27.701C23.9395 27.3691 23.925 27.0393 23.9258 26.7116C23.9461 19.2913 23.9797 11.8742 24.027 4.45999C24.0279 4.38914 24.0478 4.31978 24.0847 4.25929C24.1216 4.19876 24.1747 4.14944 24.2374 4.1165C25.698 3.35895 27.1612 2.59738 28.6268 1.83174Z" fill="#D2D0D0"/>
<path d="M35.1545 0.606585C37.3171 1.7404 39.5075 2.88882 41.7257 4.05188C42.1978 4.30004 42.1252 4.78877 42.1252 5.22755C42.1243 12.0153 42.1289 18.9834 42.1388 26.1325C42.1401 26.656 42.1293 27.2061 42.1073 27.7831C42.1065 27.7947 42.1036 27.8055 42.0986 27.8159C42.0936 27.8263 42.0866 27.8354 42.0783 27.8429C42.0696 27.8503 42.0596 27.8561 42.0484 27.8595C42.0376 27.8632 42.0264 27.8644 42.0148 27.8632C41.6398 27.8329 41.2614 27.7694 40.886 27.7815C39.2984 27.8362 37.6759 27.8603 36.0186 27.8541C35.4656 27.8524 34.9346 27.8346 34.4252 27.8014C34.3385 27.7952 34.29 27.7495 34.28 27.6637C34.2555 27.4708 34.2443 27.2787 34.2452 27.087C34.2551 20.0724 34.2833 12.9088 34.3298 5.59672C34.3418 3.66906 34.3402 1.93156 34.324 0.384144C34.3236 0.371699 34.3265 0.359377 34.3323 0.348218C34.3377 0.337059 34.346 0.327351 34.3559 0.319967C34.3659 0.312583 34.3775 0.30769 34.3899 0.305699C34.4024 0.303708 34.4148 0.304661 34.4269 0.308519C34.6919 0.392235 34.9346 0.49159 35.1545 0.606585Z" fill="#D2D0D0"/>
<path d="M13.8643 17.9335L21.2074 14.0754C21.2332 14.0617 21.2618 14.0547 21.2908 14.0547C21.3203 14.0551 21.3489 14.0626 21.3742 14.0763C21.3999 14.0904 21.4219 14.1103 21.4377 14.1348C21.4539 14.1592 21.4634 14.187 21.4663 14.2161C21.5194 14.8039 21.5443 15.3768 21.5402 15.9348C21.519 19.0183 21.5148 22.0786 21.5281 25.1149C21.5327 25.9425 21.4539 26.7639 21.4406 27.5824C21.4385 27.7429 21.3547 27.8226 21.1892 27.8218L13.8796 27.8064C13.8219 27.806 13.7668 27.7832 13.7265 27.7425C13.6859 27.7019 13.6631 27.6471 13.6631 27.5903L13.6602 18.2712C13.6602 18.1169 13.7282 18.0044 13.8643 17.9335Z" fill="#D2D0D0"/>
<path d="M45.5859 14.619C47.5589 15.7134 49.5987 16.8003 51.7048 17.8797C51.96 18.0108 52.0881 18.2182 52.089 18.5016C52.1072 21.6519 52.1093 24.6973 52.0952 27.6377C52.0948 27.6987 52.0703 27.7568 52.0272 27.7999C51.984 27.8426 51.9255 27.8663 51.865 27.8663C49.9314 27.853 48.0969 27.8485 46.362 27.8526C45.7613 27.8526 45.0909 27.8041 44.4766 27.7995C44.3293 27.7974 44.2559 27.7228 44.2559 27.5755C44.2567 24.8599 44.2637 22.2426 44.277 19.7229C44.2861 17.9507 44.2393 16.1336 44.3102 14.2755C44.3144 14.1868 44.3592 14.1523 44.445 14.1727C44.8333 14.2635 45.2137 14.4124 45.5859 14.619Z" fill="#D2D0D0"/>
<path d="M45.6725 36.2703C46.5329 36.6819 47.151 37.2577 47.5273 37.9982C48.4656 39.8471 47.9919 42.011 46.211 43.1049C45.3302 43.6455 44.4217 43.9579 43.4846 44.0417C40.5549 44.3018 36.9433 43.2941 36.7404 39.7082C36.7388 39.682 36.7475 39.6567 36.7645 39.6372C36.7815 39.6177 36.8056 39.6057 36.8313 39.6036C37.8149 39.5402 38.7678 39.5543 39.6896 39.6459C39.7448 39.6509 39.7974 39.67 39.8431 39.7015C39.8887 39.7326 39.9252 39.775 39.9497 39.8243C40.3703 40.6781 40.6927 41.3178 41.7173 41.5903C42.5931 41.8247 43.7675 41.7733 44.3363 40.9971C44.5482 40.7096 44.5238 40.262 44.5151 39.9152C44.4877 38.9349 43.4601 38.4777 42.6553 38.2525C41.8231 38.0206 41.0312 37.7738 40.2799 37.5124C39.242 37.1523 38.1264 36.5002 37.6759 35.4668C37.0553 34.0476 37.1453 32.7429 37.9451 31.5523C38.667 30.4795 40.021 29.8319 41.2498 29.6552C42.5553 29.469 43.7538 29.4719 45.0158 30.0153C46.5196 30.6616 47.4198 31.9311 47.7164 33.8236C47.7202 33.8464 47.7193 33.8701 47.7139 33.8925C47.7081 33.9153 47.6982 33.9364 47.6845 33.9551C47.6708 33.9738 47.6534 33.9899 47.6335 34.0016C47.6135 34.0136 47.5911 34.0215 47.5683 34.0248C46.6241 34.1671 45.6866 34.1509 44.7553 33.9763C44.7129 33.9684 44.6731 33.9501 44.6395 33.9223C44.6059 33.8949 44.5798 33.8593 44.5632 33.819C44.3197 33.2125 43.999 32.333 43.3149 32.1003C42.6686 31.8792 42.0774 31.861 41.5419 32.0456C40.552 32.3878 40.3508 33.8282 41.1059 34.4894C41.3933 34.7404 41.8368 34.9665 42.4359 35.1673C43.5344 35.5348 44.642 35.7771 45.6725 36.2703Z" fill="#D2D0D0"/>
<path d="M7.62995 39.7455C7.66629 39.6779 7.73587 39.4937 7.83879 39.1933C8.25438 37.9737 8.61297 36.8681 8.91457 35.8766C9.04873 35.4344 9.32713 34.6342 9.74982 33.4751C10.1629 32.3434 10.4973 31.1437 10.874 29.9647C10.8956 29.8971 10.9379 29.8381 10.9951 29.7962C11.0524 29.7543 11.1213 29.7319 11.1918 29.7319L14.3056 29.7274C14.3264 29.7274 14.3463 29.7324 14.3645 29.7415C14.3828 29.7506 14.399 29.7639 14.411 29.7805C14.423 29.7971 14.4313 29.8162 14.435 29.8361C14.4384 29.8564 14.4371 29.8771 14.4313 29.8966C14.3201 30.2729 14.2077 30.6226 14.094 30.9454C13.4747 32.6993 12.8632 34.4023 12.26 36.0534C11.9169 36.9926 11.5606 37.9015 11.1901 38.7801C10.5578 40.2873 10.06 41.7762 9.50469 43.3086C9.41188 43.5637 9.22678 43.6936 8.94937 43.6977C7.80954 43.7106 6.72161 43.6894 5.68566 43.6338C5.6126 43.6301 5.54179 43.6069 5.48006 43.5675C5.41833 43.5281 5.36772 43.4733 5.33312 43.4086C4.99718 42.7822 4.74653 42.1906 4.58109 41.6339C4.42979 41.1203 4.27443 40.6594 4.11505 40.2508C2.78356 36.842 1.58822 33.3573 0.39438 29.924C0.387701 29.9049 0.385336 29.8846 0.387493 29.8643C0.389609 29.8444 0.396247 29.8249 0.406825 29.8079C0.417404 29.7904 0.431674 29.7759 0.448642 29.7647C0.465567 29.7535 0.484774 29.7465 0.504852 29.744C0.954213 29.6788 1.39001 29.5926 1.85302 29.6303C2.45824 29.678 3.07105 29.7095 3.69141 29.7257C3.74551 29.727 3.79778 29.7456 3.84075 29.7784C3.88369 29.8112 3.91513 29.8568 3.93048 29.9087C4.52562 31.8829 5.11321 33.8086 5.6932 35.6858C6.08055 36.9386 6.45125 38.3732 6.84772 39.6638C7.04743 40.3155 7.3082 40.3425 7.62995 39.7455Z" fill="#D2D0D0"/>
<path d="M18.9632 35.7858C18.9823 35.7895 18.9972 35.7999 19.0084 35.816C19.0175 35.831 19.0221 35.8467 19.0221 35.8629C19.0503 38.4885 19.0387 41.0614 18.9872 43.5811C18.9852 43.6757 18.9375 43.7263 18.8437 43.7321C17.8995 43.7989 16.9786 43.7902 16.0808 43.7064C15.8639 43.6865 15.7548 43.5679 15.7539 43.3509C15.7328 39.0954 15.7427 34.6644 15.7842 30.0584C15.7863 29.8721 15.8801 29.7771 16.0655 29.7742C17.2897 29.7531 18.4546 29.6548 19.6303 29.8029C19.7037 29.8116 19.7734 29.8381 19.8339 29.88C19.8949 29.9219 19.9443 29.9779 19.9783 30.0435C20.5201 31.0797 21.0453 32.0816 21.6883 33.1436C22.5678 34.5985 23.5327 36.3242 24.5827 38.3217C24.7188 38.5797 24.9722 38.6735 25.3423 38.603C25.3655 38.5988 25.3867 38.5864 25.402 38.5681C25.4174 38.5499 25.4256 38.5271 25.4256 38.503C25.4456 36.5736 25.4456 34.3164 25.4256 31.7319C25.4215 31.1702 25.4377 30.5695 25.4738 29.9298C25.4754 29.8983 25.4891 29.8684 25.5119 29.8464C25.5348 29.8248 25.565 29.8124 25.5966 29.812L28.4549 29.7726C28.4806 29.7722 28.5059 29.7767 28.5299 29.7863C28.5536 29.7958 28.5752 29.8103 28.5934 29.8282C28.6121 29.8464 28.6266 29.8676 28.6366 29.8916C28.6461 29.9153 28.6515 29.9406 28.6515 29.9663L28.5938 43.5778C28.5934 43.628 28.5735 43.6757 28.5382 43.7114C28.5026 43.7467 28.4549 43.7666 28.4047 43.767C27.1348 43.7782 25.8919 43.7778 24.6764 43.7657C24.2998 43.7624 24.2106 43.5206 24.0214 43.165C22.803 40.8639 21.446 38.386 19.9513 35.731C19.9227 35.6796 19.88 35.648 19.8227 35.636C19.6045 35.5875 19.3652 35.5829 19.1038 35.6223C19.0312 35.6331 18.976 35.6688 18.9387 35.7281C18.9358 35.7335 18.9341 35.7393 18.9337 35.7451C18.9333 35.7513 18.9346 35.7571 18.9366 35.7629C18.9391 35.7683 18.9429 35.7733 18.9474 35.7775C18.952 35.7812 18.9574 35.7841 18.9632 35.7858Z" fill="#D2D0D0"/>
<path d="M34.3843 29.7719C34.4324 29.7719 34.4797 29.781 34.5237 29.7993C34.5681 29.8179 34.6079 29.8449 34.6419 29.8785C34.6755 29.9125 34.702 29.9527 34.7203 29.9967C34.7386 30.0411 34.7477 30.0884 34.7477 30.1365L34.7232 43.3987C34.7232 43.4983 34.6975 43.5941 34.6519 43.6646C34.6062 43.7352 34.5444 43.775 34.4797 43.7754L31.6957 43.7692C31.6637 43.7692 31.6322 43.7596 31.6023 43.7406C31.5729 43.7219 31.5459 43.6941 31.5235 43.6593C31.5007 43.624 31.4828 43.5825 31.4704 43.5369C31.4584 43.4912 31.4521 43.4419 31.4521 43.3925L31.4762 30.1303C31.4766 30.0341 31.5152 29.9424 31.5832 29.8743C31.6513 29.8067 31.7434 29.7686 31.8396 29.7686L34.3843 29.7719Z" fill="#D2D0D0"/>
<path d="M53.3402 38.4629L53.3277 43.6227C53.3273 43.6696 53.3087 43.7148 53.2751 43.7484C53.2419 43.7816 53.1966 43.8007 53.1494 43.8011L50.3321 43.8193C50.306 43.8193 50.2799 43.8144 50.2558 43.8044C50.2317 43.794 50.2098 43.7795 50.1915 43.7604C50.1728 43.7418 50.1587 43.7194 50.1488 43.6949C50.1392 43.6704 50.1347 43.6443 50.1351 43.6181C50.1525 42.8602 50.1301 42.1114 50.0687 41.3709C50.0446 41.0805 50.0882 40.8113 50.0944 40.5176C50.1654 37.0557 50.1442 33.5498 50.1608 30.0909C50.162 29.9025 50.2566 29.8083 50.4454 29.8096L53.1419 29.8262C53.1958 29.8266 53.2473 29.8482 53.2854 29.8859C53.3232 29.9241 53.3443 29.9755 53.3443 30.029L53.346 35.5303C53.3464 35.5809 53.3667 35.629 53.4024 35.6643C53.4381 35.6996 53.4862 35.7195 53.5368 35.7195L59.2094 35.7211C59.2596 35.7211 59.2895 35.6962 59.2986 35.6469C59.3758 35.2113 59.409 34.7786 59.3861 34.3414C59.3106 32.8765 59.3442 31.4395 59.4878 30.0303C59.4928 29.9817 59.5147 29.9361 59.5504 29.9025C59.5861 29.8685 59.6321 29.8486 59.6815 29.8457C60.585 29.7942 61.462 29.8 62.3125 29.8627C62.3801 29.8668 62.4431 29.8963 62.49 29.9452C62.5365 29.9938 62.5635 30.0581 62.5651 30.1257C62.5805 30.7351 62.5896 31.2868 62.5925 31.7809C62.6228 35.9588 62.6273 39.8654 62.5547 43.6663C62.5539 43.7098 62.5365 43.7513 62.5058 43.782C62.4751 43.8131 62.4336 43.8314 62.3896 43.8326C61.4064 43.8683 60.4988 43.8554 59.6678 43.7949C59.4438 43.7787 59.3314 43.6588 59.3301 43.4348L59.3181 38.4446C59.3181 38.3732 59.2828 38.3372 59.2123 38.3372L53.4671 38.3343C53.3825 38.3343 53.3402 38.377 53.3402 38.4629Z" fill="#D2D0D0"/>
<path d="M49.6316 53.6207C49.3955 53.9322 49.0549 54.474 48.7011 54.7146C48.6882 54.7233 48.6737 54.7291 48.6584 54.7308C48.643 54.7329 48.6272 54.7308 48.6127 54.7254C48.5982 54.7196 48.5853 54.7109 48.5754 54.6992C48.565 54.6876 48.558 54.6735 48.5542 54.6586C48.4522 54.2429 48.2979 53.8339 48.0913 53.4315C48.068 53.385 48.0734 53.3431 48.1079 53.3058C49.3698 51.9152 50.4198 50.0604 50.7616 48.1949C50.7678 48.1634 50.7861 48.1534 50.8164 48.1646L52.0829 48.6122C52.2493 48.672 52.2795 48.7728 52.1733 48.9151C52.0767 49.0466 51.963 49.1826 51.9058 49.3386C51.6967 49.8974 51.4615 50.4471 51.1989 50.988C51.1072 51.1764 51.062 51.3797 51.0628 51.5979C51.0669 54.5018 51.0694 57.3514 51.0703 60.1466C51.0703 60.2001 51.0437 60.2267 50.9902 60.2267L49.8008 60.2237C49.7365 60.2237 49.7042 60.1914 49.7042 60.1271L49.7179 53.6493C49.7179 53.5547 49.6888 53.5451 49.6316 53.6207Z" fill="#D2D0D0"/>
<path d="M15.5978 49.4896L20.3885 49.485C20.41 49.485 20.4312 49.4937 20.4465 49.5095C20.4623 49.5253 20.471 49.5464 20.4714 49.5684L20.4777 52.3798C20.4777 52.4644 20.4358 52.5068 20.352 52.5068L19.2232 52.5055C19.1497 52.5055 19.1128 52.4686 19.1128 52.3948L19.1066 50.8109C19.1066 50.713 19.0572 50.664 18.9585 50.664L10.8271 50.6624C10.7595 50.6624 10.7257 50.6964 10.7257 50.7636L10.7318 52.4313C10.7328 52.4968 10.7005 52.5296 10.6349 52.5296L9.47437 52.5204C9.44388 52.5204 9.41463 52.5084 9.39306 52.4868C9.37149 52.4653 9.35938 52.4358 9.35938 52.4055L9.37 49.5456C9.37 49.5024 9.39165 49.4809 9.43504 49.4809L14.0513 49.485C14.1139 49.4863 14.1434 49.4556 14.1392 49.3929L14.0637 48.2521C14.0604 48.2027 14.0836 48.1791 14.133 48.1807L15.5373 48.2596C15.5526 48.2604 15.5675 48.265 15.5812 48.2724C15.5945 48.2799 15.6061 48.2907 15.6153 48.3031C15.624 48.316 15.6298 48.3305 15.6323 48.3454C15.6347 48.3608 15.6339 48.3766 15.6298 48.3911C15.5306 48.7383 15.49 49.0756 15.507 49.4033C15.5099 49.461 15.5402 49.4896 15.5978 49.4896Z" fill="#D2D0D0"/>
<path d="M27.5513 51.8178L27.4667 53.2673C27.4638 53.3237 27.4903 53.3519 27.5467 53.3519L32.2357 53.3432C32.2515 53.3432 32.2673 53.3461 32.2818 53.3523C32.2963 53.3586 32.3096 53.3673 32.3204 53.3785C32.3316 53.3901 32.3399 53.4034 32.3457 53.4179C32.3515 53.4328 32.3544 53.4482 32.354 53.4639C32.3266 54.7823 32.2233 56.1401 32.0437 57.5373C31.9093 58.5889 31.6881 59.8567 30.4079 60.011C29.7645 60.0898 29.1115 60.0845 28.4486 59.9944C28.437 59.9928 28.4262 59.9878 28.4175 59.9799C28.4088 59.972 28.403 59.9621 28.4001 59.9509L28.084 58.5815C28.079 58.5582 28.0881 58.5487 28.1113 58.5524C28.6863 58.6433 29.2119 58.6806 29.6878 58.6644C30.3793 58.6404 30.5033 57.8082 30.5822 57.2635C30.7012 56.4342 30.7763 55.6087 30.8074 54.7865C30.8107 54.7251 30.7813 54.6944 30.7199 54.6944L27.3455 54.6927C27.3144 54.6927 27.2841 54.7035 27.2601 54.7238C27.236 54.7441 27.2198 54.7719 27.214 54.803C26.766 57.1536 25.4082 58.9179 23.1407 60.0961C23.1125 60.1106 23.0797 60.1139 23.0494 60.1052C23.0187 60.0965 22.993 60.0762 22.9772 60.0492C22.7594 59.6767 22.4678 59.3506 22.1027 59.0702C22.0492 59.0299 22.0534 58.9959 22.1148 58.9685C23.6642 58.2741 25.0913 56.9943 25.6011 55.3116C25.9189 54.2633 26.0699 53.0935 26.055 51.8012C26.0541 51.7631 26.0342 51.7436 25.996 51.7436L22.345 51.7589C22.2782 51.7589 22.2446 51.7257 22.2434 51.6589L22.233 50.497C22.2326 50.4841 22.2351 50.4712 22.2396 50.4592C22.2446 50.4476 22.2516 50.4368 22.2608 50.4277C22.2699 50.4181 22.2803 50.4111 22.2923 50.4061C22.3043 50.4011 22.3168 50.3986 22.3296 50.3986L27.1597 50.4214C27.2057 50.4214 27.2302 50.3982 27.2323 50.3518C27.2684 49.7009 27.2497 49.0313 27.1763 48.3422C27.1701 48.2867 27.195 48.2609 27.2501 48.2651L28.6635 48.3514C28.6826 48.3526 28.7013 48.358 28.7179 48.3671C28.7349 48.3763 28.7494 48.3891 28.7606 48.4045C28.7718 48.4194 28.7797 48.4372 28.783 48.4559C28.7867 48.4742 28.7863 48.4932 28.7813 48.5119C28.6311 49.1139 28.5897 49.7233 28.6573 50.3397C28.6635 50.3982 28.6959 50.4268 28.7544 50.426L33.7914 50.3986C33.8399 50.3986 33.864 50.4227 33.864 50.4712L33.8624 51.7087C33.8624 51.739 33.847 51.7543 33.8155 51.7543L27.6285 51.7452C27.5799 51.7452 27.5542 51.7693 27.5513 51.8178Z" fill="#D2D0D0"/>
<path d="M55.4921 51.075C55.5154 50.1573 55.4843 49.2517 55.3984 48.359C55.3934 48.3075 55.4166 48.2835 55.4681 48.2864L56.9055 48.3772C56.9246 48.3785 56.9433 48.3843 56.9599 48.3934C56.9769 48.4029 56.9914 48.4158 57.0026 48.4316C57.0138 48.4469 57.0213 48.4648 57.025 48.4838C57.0287 48.5025 57.0279 48.522 57.0233 48.5407C56.9765 48.7282 56.9039 48.9053 56.8931 49.102C56.8549 49.7284 56.8445 50.3726 56.8616 51.0343C56.8636 51.0878 56.8906 51.1144 56.9433 51.1144L59.7136 51.1069C59.7763 51.1069 59.8074 51.138 59.8074 51.2007V52.2735C59.8074 52.2871 59.8049 52.3004 59.7995 52.3133C59.7945 52.3257 59.7866 52.3373 59.7771 52.3469C59.7676 52.3564 59.7563 52.3639 59.7439 52.3689C59.7315 52.3738 59.7182 52.3763 59.7045 52.3763L56.8993 52.3523C56.8885 52.3523 56.8781 52.3564 56.8703 52.3639C56.8628 52.3718 56.8587 52.3821 56.8587 52.3929L56.8553 54.5493C56.8545 54.6036 56.8811 54.6302 56.9358 54.6294L60.2011 54.614C60.2674 54.614 60.3002 54.6476 60.2994 54.714L60.2948 55.8021C60.2948 55.8756 60.2583 55.9125 60.1857 55.9125L56.9022 55.9063C56.8864 55.9063 56.8711 55.9125 56.8595 55.9237C56.8483 55.9349 56.8416 55.9498 56.8416 55.9656L56.8781 60.1219C56.879 60.1916 56.8445 60.226 56.7736 60.226L55.5755 60.2248C55.5461 60.2248 55.5179 60.2128 55.4971 60.192C55.4764 60.1709 55.4648 60.1422 55.4648 60.1128L55.5058 55.9896C55.5058 55.9789 55.5042 55.9681 55.5 55.9577C55.4959 55.9477 55.4901 55.9386 55.4822 55.9307C55.4747 55.9233 55.4656 55.917 55.4556 55.9129C55.4457 55.9083 55.4349 55.9063 55.4241 55.9063L51.9075 55.9154C51.8311 55.9166 51.7926 55.8785 51.7926 55.8021V54.7082C51.7926 54.6372 51.8278 54.6024 51.8988 54.6036L55.383 54.6294C55.459 54.6294 55.4967 54.5912 55.4967 54.5144V52.4717C55.4967 52.3992 55.4598 52.3626 55.3864 52.3626L53.6415 52.3568C53.5722 52.3556 53.5233 52.3871 53.4951 52.4506C53.2619 52.97 52.9724 53.486 52.6264 53.9984C52.6144 54.0166 52.5994 54.0191 52.5824 54.0058L51.5125 53.2388C51.4914 53.2239 51.4885 53.2052 51.5038 53.1828C52.3078 52.0337 52.8633 50.785 53.1711 49.4363C53.2084 49.2729 53.2267 49.1069 53.2254 48.9385C53.2254 48.875 53.2561 48.8522 53.3179 48.8705L54.5646 49.2442C54.5853 49.2501 54.604 49.2608 54.6201 49.2749C54.6359 49.2891 54.6488 49.3069 54.6571 49.3268C54.6654 49.3467 54.6691 49.3683 54.6678 49.3899C54.667 49.4114 54.6612 49.4326 54.6508 49.4517C54.3824 49.9487 54.197 50.4875 54.0941 51.0675C54.0933 51.0729 54.0933 51.0787 54.0949 51.0841C54.0962 51.0891 54.0987 51.094 54.1024 51.0982C54.1057 51.1028 54.1099 51.1061 54.1149 51.1081C54.1198 51.1102 54.1252 51.1115 54.1302 51.1115L55.4573 51.1086C55.4805 51.1086 55.4921 51.0974 55.4921 51.075Z" fill="#D2D0D0"/>
<path d="M45.1254 59.5199L37.1832 59.5124C37.1616 59.5124 37.1413 59.5207 37.1259 59.5357C37.1106 59.5506 37.1019 59.5709 37.1015 59.5925L37.094 60.1795C37.0936 60.2011 37.0849 60.2214 37.0695 60.2364C37.0542 60.2513 37.0334 60.26 37.0123 60.26L35.7731 60.2646C35.7511 60.2646 35.7304 60.2559 35.715 60.2405C35.7001 60.2252 35.6914 60.2044 35.6914 60.1828L35.6972 48.8434C35.6972 48.8219 35.7059 48.8011 35.7213 48.7858C35.7366 48.7704 35.7574 48.7617 35.7789 48.7617H46.5205C46.5421 48.7617 46.5629 48.7704 46.5782 48.7858C46.5936 48.8011 46.6023 48.8219 46.6023 48.8434L46.6035 60.1857C46.6035 60.1965 46.601 60.2069 46.5969 60.2169C46.5927 60.2268 46.5865 60.2355 46.5786 60.243C46.5712 60.2505 46.562 60.2563 46.5517 60.2604C46.5417 60.2641 46.5313 60.2662 46.5205 60.2658L45.2872 60.2326C45.266 60.2322 45.2453 60.2235 45.2304 60.2081C45.2154 60.1928 45.2071 60.1725 45.2071 60.1509V59.6016C45.2071 59.5801 45.1984 59.5593 45.1831 59.544C45.1677 59.5286 45.147 59.5199 45.1254 59.5199ZM45.2071 50.0751C45.2071 50.0581 45.2001 50.0415 45.1881 50.0291C45.176 50.017 45.1594 50.01 45.142 50.01H37.1712C37.1537 50.01 37.1371 50.017 37.1251 50.0291C37.1131 50.0415 37.106 50.0581 37.106 50.0751V58.2007C37.106 58.2177 37.1131 58.2343 37.1251 58.2463C37.1371 58.2588 37.1537 58.2654 37.1712 58.2654H45.142C45.1594 58.2654 45.176 58.2588 45.1881 58.2463C45.2001 58.2343 45.2071 58.2177 45.2071 58.2007V50.0751Z" fill="#D2D0D0"/>
<path d="M41.8227 52.861C41.8049 52.861 41.7879 52.868 41.7754 52.88C41.763 52.8921 41.7559 52.9087 41.7559 52.9261V53.964C41.7559 54.0084 41.7783 54.03 41.8227 54.0292L43.6551 53.9972C43.668 53.9972 43.6808 53.9993 43.6924 54.0043C43.7045 54.0088 43.7153 54.0163 43.7244 54.025C43.7335 54.0341 43.741 54.0449 43.746 54.0565C43.7509 54.0686 43.7534 54.0814 43.7534 54.0943L43.7563 57.535C43.7563 57.6487 43.6995 57.7126 43.5854 57.7254C43.2718 57.7628 42.9524 57.7358 42.6275 57.6437C42.5773 57.6296 42.5412 57.5989 42.5201 57.5516C42.4707 57.4404 42.3844 57.3844 42.2616 57.3836C41.5 57.3724 40.7437 57.3641 39.9933 57.3579C39.9397 57.3579 39.9045 57.3828 39.8875 57.4321L39.8074 57.662C39.7921 57.7064 39.7614 57.7288 39.7149 57.7288L38.7346 57.7329C38.6135 57.7342 38.555 57.674 38.5591 57.5529C38.5994 56.2731 38.5956 55.1156 38.5484 54.0806C38.5479 54.0702 38.5496 54.0599 38.5533 54.0503C38.5571 54.0408 38.5629 54.0321 38.5699 54.0246C38.577 54.0171 38.5857 54.0113 38.5952 54.0076C38.6048 54.0035 38.6151 54.0018 38.6255 54.0018L40.3264 54.0275C40.4048 54.0288 40.4442 53.9898 40.4442 53.9109V52.9667C40.4442 52.9377 40.4326 52.9095 40.4114 52.8888C40.3903 52.868 40.3621 52.8564 40.3322 52.8564L37.8946 52.885C37.7846 52.8871 37.7294 52.8332 37.7282 52.7232L37.7207 51.8458C37.7195 51.7571 37.7635 51.7131 37.8522 51.7139L40.3716 51.7264C40.433 51.7264 40.4629 51.6952 40.4608 51.6339L40.4048 50.3661C40.4027 50.3225 40.4235 50.3018 40.467 50.3039L41.7227 50.381C41.7451 50.3827 41.7667 50.3889 41.7862 50.3997C41.8053 50.4105 41.8223 50.4254 41.8352 50.4432C41.8484 50.4611 41.8572 50.4818 41.8613 50.5034C41.8655 50.525 41.8646 50.5474 41.8588 50.5685C41.7692 50.9228 41.736 51.28 41.7593 51.6401C41.7622 51.6952 41.7912 51.723 41.8468 51.723L44.4856 51.7139C44.5582 51.7139 44.5947 51.7504 44.5947 51.823L44.5918 52.7792C44.5918 52.8498 44.5557 52.885 44.4844 52.885L41.8227 52.861ZM42.4778 55.1546C42.4778 55.1347 42.4699 55.1157 42.4558 55.1011C42.4417 55.087 42.4222 55.0791 42.4023 55.0791H39.9327C39.9128 55.0791 39.8937 55.087 39.8792 55.1011C39.8651 55.1157 39.8572 55.1347 39.8572 55.1546V56.2142C39.8572 56.2341 39.8651 56.2532 39.8792 56.2677C39.8937 56.2818 39.9128 56.2897 39.9327 56.2897H42.4023C42.4222 56.2897 42.4417 56.2818 42.4558 56.2677C42.4699 56.2532 42.4778 56.2341 42.4778 56.2142V55.1546Z" fill="#D2D0D0"/>
<path d="M12.5944 59.6955L12.5583 60.012C12.5471 60.1058 12.494 60.1556 12.3994 60.1618L11.3461 60.2265C11.2594 60.2319 11.2158 60.1904 11.2158 60.1025V51.6624C11.2158 51.5869 11.254 51.5496 11.3295 51.5508C13.6829 51.5819 16.0164 51.5819 18.3304 51.5508C18.3445 51.5504 18.3582 51.5529 18.3711 51.5583C18.3839 51.5637 18.396 51.5716 18.4055 51.5815C18.4151 51.5915 18.4225 51.6031 18.4275 51.616C18.4321 51.6292 18.4341 51.6429 18.4333 51.6566C18.386 52.7551 18.3864 53.847 18.435 54.9322C18.4354 54.943 18.4341 54.9534 18.4304 54.9634C18.4267 54.9733 18.4209 54.9824 18.4134 54.9899C18.4063 54.9974 18.3972 55.0036 18.3873 55.0077C18.3777 55.0119 18.3669 55.014 18.3561 55.014L12.6201 55.0007C12.5927 55.0007 12.5798 55.0135 12.5807 55.0397L12.5944 55.8735C12.5944 55.903 12.6089 55.9175 12.6383 55.9175L19.1157 55.9067C19.1298 55.9067 19.1439 55.9096 19.1572 55.9154C19.1705 55.9208 19.1821 55.9291 19.1916 55.9395C19.2016 55.9499 19.2091 55.9623 19.214 55.9756C19.219 55.9888 19.2211 56.003 19.2203 56.0175C19.178 56.8721 19.1174 57.691 19.1688 58.5534C19.1991 59.0587 19.1904 59.564 19.1431 60.0693C19.1369 60.1307 19.1029 60.1618 19.0402 60.1618C18.6698 60.1618 18.274 60.1103 17.8525 60.0075C17.8401 60.0041 17.8289 59.9979 17.8198 59.9892C17.8106 59.9805 17.8036 59.9697 17.7998 59.9577C17.7957 59.9457 17.7949 59.9328 17.7974 59.9203C17.7994 59.9079 17.8048 59.8959 17.8131 59.8863C17.8525 59.839 17.8517 59.7926 17.8115 59.7469C17.7712 59.7025 17.7206 59.6789 17.66 59.676C16.8581 59.6337 16.0504 59.5486 15.2498 59.5731C14.3873 59.5993 13.5298 59.6154 12.6777 59.6217C12.6271 59.6217 12.5993 59.6461 12.5944 59.6955ZM17.0535 52.8186C17.0535 52.797 17.0448 52.7763 17.0295 52.7609C17.0141 52.7456 16.9934 52.7369 16.9718 52.7369H12.6657C12.6437 52.7369 12.623 52.7456 12.6076 52.7609C12.5923 52.7763 12.584 52.797 12.584 52.8186V53.7748C12.584 53.7964 12.5923 53.8175 12.6076 53.8325C12.623 53.8478 12.6437 53.8565 12.6657 53.8565H16.9718C16.9934 53.8565 17.0141 53.8478 17.0295 53.8325C17.0448 53.8175 17.0535 53.7964 17.0535 53.7748V52.8186ZM17.826 57.199C17.826 57.1766 17.8173 57.155 17.8015 57.1392C17.7857 57.123 17.7642 57.1143 17.7413 57.1143L12.6699 57.1052C12.647 57.1052 12.6255 57.1143 12.6097 57.1301C12.5939 57.1459 12.5848 57.1674 12.5848 57.1898L12.5827 58.3215C12.5827 58.3443 12.5919 58.3659 12.6076 58.3817C12.6234 58.3974 12.645 58.4066 12.6674 58.4066L17.7393 58.4153C17.7617 58.4153 17.7832 58.4066 17.7994 58.3908C17.8152 58.3746 17.8239 58.3535 17.8243 58.3307L17.826 57.199Z" fill="#D2D0D0"/>
</svg>
