<svg width="55" height="61" viewBox="0 0 55 61" fill="none" xmlns="http://www.w3.org/2000/svg">
<mask id="mask0_331_24579" style="mask-type:luminance" maskUnits="userSpaceOnUse" x="0" y="0" width="55" height="47">
<path d="M54.7732 0.265625H0.227539V46.9325H54.7732V0.265625Z" fill="white"/>
</mask>
<g mask="url(#mask0_331_24579)">
<path d="M28.6914 2.50684L35.8198 6.11481V28.2124H28.6914V2.50684Z" fill="#C8C8C8"/>
<path d="M28.6914 2.50684L35.8198 6.11481V28.2124H28.6914V2.50684Z" fill="#C8C8C8"/>
<path d="M37.9854 15.3623L45.1137 18.9679V28.2151H37.9854V15.3623Z" fill="#C8C8C8"/>
<path d="M16.66 15.3623L9.5293 18.9679V28.2151H16.66V15.3623Z" fill="#C8C8C8"/>
<path d="M8.02613 41.1031L10.3959 32.3389H13.5991L9.59573 44.3773H6.45888L2.48633 32.3389H5.66579L8.02613 41.1031Z" fill="#C8C8C8"/>
<path d="M24.4088 44.3773H21.556L17.342 36.8867V44.3773H14.4727V32.3389H17.342L21.5489 39.8294V32.3389H24.4088V44.3773Z" fill="#C8C8C8"/>
<path d="M26.4189 32.3389H29.2788V44.3773H26.4189V32.3389Z" fill="#C8C8C8"/>
<path d="M37.406 41.1786C37.406 40.7524 37.2568 40.4234 36.9585 40.1866C36.6626 39.9475 36.1441 39.7037 35.396 39.4503C34.6503 39.197 34.0418 38.9508 33.566 38.7141C32.0248 37.947 31.2554 36.8959 31.2554 35.5559C31.2554 34.8883 31.4448 34.3012 31.8259 33.7945C32.2142 33.2808 32.7587 32.8854 33.4594 32.6037C34.1626 32.3173 34.9533 32.1729 35.8292 32.1729C36.6839 32.1729 37.4509 32.3291 38.1257 32.6369C38.8075 32.9446 39.3354 33.3873 39.7095 33.9603C40.0859 34.5284 40.2753 35.1771 40.2753 35.911H37.4154C37.4154 35.421 37.2663 35.0398 36.9656 34.7699C36.672 34.5 36.272 34.3651 35.7653 34.3651C35.2516 34.3651 34.8468 34.4811 34.5461 34.7131C34.2525 34.938 34.1057 35.2268 34.1057 35.5796C34.1057 35.8897 34.2691 36.1691 34.5958 36.4224C34.9225 36.671 35.4978 36.9314 36.3193 37.2013C37.1432 37.4664 37.8179 37.7529 38.3458 38.0607C39.6313 38.8111 40.2753 39.8433 40.2753 41.162C40.2753 42.2131 39.8823 43.0394 39.0987 43.6407C38.3127 44.242 37.2379 44.5427 35.8719 44.5427C34.9059 44.5427 34.0324 44.3699 33.2487 44.0219C32.4699 43.6691 31.8804 43.1885 31.4826 42.5825C31.092 41.9717 30.8955 41.2685 30.8955 40.4754H33.7719C33.7719 41.1194 33.9353 41.5976 34.262 41.9054C34.5934 42.2084 35.1308 42.3599 35.8719 42.3599C36.3453 42.3599 36.717 42.2581 36.9893 42.0545C37.2686 41.8438 37.406 41.5526 37.406 41.1786Z" fill="#C8C8C8"/>
<path d="M51.6883 44.3773H48.8356V39.3512H44.6121V44.3773H41.7451V32.3389H44.6121V37.1187H48.8356V32.3389H51.6883V44.3773Z" fill="#C8C8C8"/>
<path d="M26.2416 2.50684L19.1133 6.11481V28.2124H26.2416V2.50684Z" fill="#C8C8C8"/>
<path d="M26.2416 2.50684L19.1133 6.11481V28.2124H26.2416V2.50684Z" fill="#C8C8C8"/>
</g>
<mask id="mask1_331_24579" style="mask-type:luminance" maskUnits="userSpaceOnUse" x="3" y="43" width="49" height="18">
<path d="M51.1378 43.9014H3.25879V60.2651H51.1378V43.9014Z" fill="white"/>
</mask>
<g mask="url(#mask1_331_24579)">
<path d="M8.27887 52.6018C8.27887 52.2941 8.18417 52.0431 7.99478 51.8537C7.81012 51.6643 7.58048 51.4986 7.30349 51.3518C7.03123 51.2074 6.7353 51.0748 6.41333 50.9541C6.09136 50.8286 5.7907 50.6771 5.51371 50.4995C5.23435 50.3244 5.00234 50.1018 4.81295 49.8367C4.62829 49.5668 4.53832 49.2188 4.53832 48.795C4.53832 48.518 4.59041 48.2599 4.69931 48.0185C4.80584 47.7723 4.95736 47.5616 5.15386 47.384C5.34799 47.2017 5.58946 47.0597 5.87356 46.9579C6.15765 46.8513 6.48199 46.7969 6.84894 46.7969C7.29638 46.7969 7.70358 46.8703 8.07054 47.0147C8.44222 47.1615 8.73815 47.3532 8.96069 47.5923L8.45879 48.2931C8.2552 48.0919 8.02792 47.938 7.77697 47.8291C7.53076 47.7225 7.23957 47.6681 6.90576 47.6681C6.47488 47.6681 6.13871 47.7723 5.8925 47.9806C5.64628 48.1842 5.52318 48.4541 5.52318 48.795C5.52318 49.1122 5.61314 49.3632 5.7978 49.5526C5.98719 49.742 6.2192 49.9077 6.49856 50.045C6.77555 50.1776 7.07621 50.3054 7.39818 50.4238C7.72015 50.5445 8.01608 50.6937 8.28834 50.8689C8.56533 51.0393 8.79497 51.2619 8.97963 51.5317C9.16902 51.804 9.26372 52.1567 9.26372 52.5924C9.26372 52.9096 9.19743 53.1961 9.06486 53.4541C8.93702 53.7074 8.76183 53.9252 8.53455 54.1075C8.31201 54.2851 8.0516 54.4247 7.74856 54.5242C7.44553 54.6236 7.11883 54.6757 6.77318 54.6757C6.53881 54.6757 6.29969 54.6473 6.05348 54.5905C5.80727 54.5408 5.57289 54.4674 5.35272 54.3727C5.13018 54.2732 4.93132 54.1525 4.75613 54.0128C4.58567 53.8684 4.4531 53.705 4.3584 53.5204L4.8887 52.8859C5.00234 53.0327 5.13492 53.1605 5.28643 53.2742C5.43795 53.3878 5.5942 53.4825 5.75992 53.5583C5.93037 53.634 6.1032 53.6956 6.28075 53.7382C6.45595 53.7761 6.62403 53.795 6.78265 53.795C6.97678 53.795 7.16617 53.7713 7.35084 53.7193C7.53313 53.6695 7.69411 53.5938 7.83379 53.492C7.9711 53.3925 8.08 53.2694 8.15576 53.1227C8.23626 52.9711 8.27887 52.7983 8.27887 52.6018Z" fill="#C8C8C8"/>
<path d="M10.5967 46.9092H11.4774V50.2046C11.6526 50.0153 11.8869 49.8614 12.1781 49.7406C12.467 49.6152 12.7676 49.5512 13.0778 49.5512C13.7217 49.5512 14.2236 49.7264 14.5834 50.0721C14.9433 50.413 15.1232 50.9693 15.1232 51.7387V54.5607H14.252V51.8619C14.252 50.8723 13.7903 50.3751 12.8694 50.3751C12.5972 50.3751 12.3344 50.4367 12.0834 50.555C11.8301 50.6758 11.6289 50.8202 11.4774 50.9906V54.5607H10.5967V46.9092Z" fill="#C8C8C8"/>
<path d="M20.7546 54.0228C20.5131 54.2454 20.2266 54.4087 19.8928 54.5153C19.5638 54.6218 19.2347 54.6762 18.908 54.6762C18.5031 54.6762 18.1409 54.6147 17.819 54.4963C17.497 54.3708 17.2176 54.198 16.9856 53.9755C16.7583 53.7482 16.5808 53.4783 16.4553 53.1611C16.3346 52.8391 16.2754 52.4864 16.2754 52.1005C16.2754 51.7477 16.3275 51.4139 16.4364 51.0967C16.55 50.7818 16.7134 50.5096 16.9288 50.2823C17.1419 50.0503 17.407 49.8656 17.7243 49.733C18.0391 49.6005 18.399 49.5342 18.8038 49.5342C19.1187 49.5342 19.4146 49.5886 19.694 49.6952C19.9781 49.8041 20.2195 49.958 20.4231 50.1592C20.6315 50.3557 20.7948 50.5924 20.9156 50.8694C21.0339 51.1488 21.0955 51.4542 21.0955 51.788C21.0955 52.0105 21.0765 52.2046 21.0387 52.3751H17.2508C17.2887 52.8439 17.4638 53.2061 17.7811 53.4641C18.0959 53.7245 18.4937 53.8524 18.9743 53.8524C19.2962 53.8524 19.5851 53.805 19.8455 53.7103C20.1106 53.6109 20.3213 53.4878 20.48 53.341L20.7546 54.0228ZM18.7659 50.3486C18.3114 50.3486 17.9468 50.4764 17.6769 50.7274C17.4118 50.9736 17.2531 51.2861 17.2034 51.6649H20.1864C20.1675 51.2553 20.0301 50.9333 19.7792 50.699C19.533 50.4669 19.1944 50.3486 18.7659 50.3486Z" fill="#C8C8C8"/>
<path d="M22.2852 49.638H23.1658V50.244C23.3292 50.0546 23.5541 49.8936 23.8382 49.7611C24.127 49.6238 24.4372 49.5527 24.7662 49.5527C25.4102 49.5527 25.9121 49.7208 26.2719 50.0546C26.6318 50.3908 26.8117 50.9448 26.8117 51.7213V54.5622H25.9405V51.8823C25.9405 51.3662 25.8221 50.9874 25.5901 50.7459C25.3557 50.4997 25.0077 50.3766 24.5484 50.3766C24.2691 50.3766 24.0086 50.4382 23.7624 50.5565C23.521 50.6773 23.3221 50.8288 23.1658 51.0111V54.5622H22.2852V49.638Z" fill="#C8C8C8"/>
<path d="M28.1541 49.6377H32.3114V50.2532L29.2242 53.7381H32.2545V54.562H27.9932V53.9464L31.0708 50.4616H28.1541V49.6377Z" fill="#C8C8C8"/>
<path d="M33.5889 46.9092H34.4696V50.2046C34.6447 50.0153 34.8791 49.8614 35.1703 49.7406C35.4591 49.6152 35.7598 49.5512 36.0699 49.5512C36.7139 49.5512 37.2158 49.7264 37.5756 50.0721C37.9355 50.413 38.1154 50.9693 38.1154 51.7387V54.5607H37.2442V51.8619C37.2442 50.8723 36.7825 50.3751 35.8616 50.3751C35.5893 50.3751 35.3266 50.4367 35.0756 50.555C34.8223 50.6758 34.6211 50.8202 34.4696 50.9906V54.5607H33.5889V46.9092Z" fill="#C8C8C8"/>
<path d="M43.7477 54.0228C43.5063 54.2454 43.2198 54.4087 42.886 54.5153C42.5569 54.6218 42.2278 54.6762 41.9011 54.6762C41.4963 54.6762 41.1341 54.6147 40.8121 54.4963C40.4902 54.3708 40.2108 54.198 39.9788 53.9755C39.7515 53.7482 39.574 53.4783 39.4485 53.1611C39.3277 52.8391 39.2686 52.4864 39.2686 52.1005C39.2686 51.7477 39.3206 51.4139 39.4295 51.0967C39.5432 50.7818 39.7065 50.5096 39.922 50.2823C40.135 50.0503 40.4002 49.8656 40.7174 49.733C41.0323 49.6005 41.3921 49.5342 41.797 49.5342C42.1118 49.5342 42.4078 49.5886 42.6871 49.6952C42.9712 49.8041 43.2127 49.958 43.4163 50.1592C43.6246 50.3557 43.788 50.5924 43.9087 50.8694C44.0271 51.1488 44.0887 51.4542 44.0887 51.788C44.0887 52.0105 44.0697 52.2046 44.0318 52.3751H40.2439C40.2818 52.8439 40.457 53.2061 40.7742 53.4641C41.0891 53.7245 41.4868 53.8524 41.9674 53.8524C42.2894 53.8524 42.5782 53.805 42.8386 53.7103C43.1038 53.6109 43.3145 53.4878 43.4731 53.341L43.7477 54.0228ZM41.7591 50.3486C41.3045 50.3486 40.94 50.4764 40.6701 50.7274C40.4049 50.9736 40.2463 51.2861 40.1966 51.6649H43.1796C43.1606 51.2553 43.0233 50.9333 42.7724 50.699C42.5261 50.4669 42.1876 50.3486 41.7591 50.3486Z" fill="#C8C8C8"/>
<path d="M45.2773 49.638H46.158V50.244C46.3214 50.0546 46.5463 49.8936 46.8304 49.7611C47.1192 49.6238 47.4293 49.5527 47.7584 49.5527C48.4024 49.5527 48.9043 49.7208 49.2641 50.0546C49.624 50.3908 49.8039 50.9448 49.8039 51.7213V54.5622H48.9327V51.8823C48.9327 51.3662 48.8143 50.9874 48.5823 50.7459C48.3479 50.4997 47.9999 50.3766 47.5406 50.3766C47.2613 50.3766 47.0008 50.4382 46.7546 50.5565C46.5131 50.6773 46.3143 50.8288 46.158 51.0111V54.5622H45.2773V49.638Z" fill="#C8C8C8"/>
</g>
</svg>
