<svg width="51" height="48" viewBox="0 0 51 48" fill="none" xmlns="http://www.w3.org/2000/svg">
<g clip-path="url(#clip0_488_29284)">
<mask id="mask0_488_29284" style="mask-type:luminance" maskUnits="userSpaceOnUse" x="-1" y="0" width="51" height="48">
<path d="M49.8888 0H-0.34375V48H49.8888V0Z" fill="white"/>
</mask>
<g mask="url(#mask0_488_29284)">
<path d="M35.1971 4.59506V20.3532H26.377V0L35.1971 4.59506Z" fill="#D19A66"/>
<path d="M26.377 34.4057H35.1971V43.3923L26.377 48V34.4057Z" fill="#D19A66"/>
<path d="M24.0975 0V20.3532H15.2773V4.59506L24.0975 0Z" fill="#D19A66"/>
<path d="M15.2773 34.4057H24.0975V48L15.2773 43.3923V34.4057Z" fill="#D19A66"/>
<path d="M46.2968 17.4765V20.3532H37.4766V12.8815L46.2968 17.4765Z" fill="#DCDFE5"/>
<path d="M37.4766 34.4057H46.2968V37.397L37.4766 41.992V34.4057Z" fill="#DCDFE5"/>
<path d="M12.9979 12.8815V20.3532H4.17773V17.4765L12.9979 12.8815Z" fill="#DCDFE5"/>
<path d="M4.17773 34.4057H12.9979V41.992L4.17773 37.3588V34.4057Z" fill="#DCDFE5"/>
<path d="M2.4559 30.5489L-0.34375 23.1154H1.41532L3.42214 28.8305L5.41658 23.1154H7.17565L4.38839 30.5489H2.4559Z" fill="#DCDFE5"/>
<path d="M11.3508 30.5489V27.2904C11.3508 26.5394 10.9668 26.2847 10.3846 26.2847C9.83953 26.2847 9.41834 26.603 9.19536 26.9212V30.5489H7.82031V25.1647H9.19536V25.8648C9.52984 25.4575 10.174 25.0247 11.0288 25.0247C12.1808 25.0247 12.7383 25.6992 12.7383 26.743V30.5489H11.3632H11.3508Z" fill="#DCDFE5"/>
<path d="M13.9639 23.7264C13.9639 23.2553 14.348 22.8862 14.7938 22.8862C15.2399 22.8862 15.6238 23.2553 15.6238 23.7264C15.6238 24.1973 15.2523 24.5791 14.7938 24.5791C14.3356 24.5791 13.9639 24.1973 13.9639 23.7264ZM14.1002 30.5361V25.152H15.4752V30.5361H14.1002Z" fill="#DCDFE5"/>
<path d="M16.3913 29.836L16.9859 28.8432C17.37 29.2125 18.1504 29.5815 18.7945 29.5815C19.3891 29.5815 19.6741 29.3396 19.6741 28.996C19.6741 28.1049 16.5646 28.8305 16.5646 26.7175C16.5646 25.8138 17.3328 25.0247 18.7078 25.0247C19.5997 25.0247 20.3058 25.3429 20.826 25.763L20.2686 26.7303C19.9589 26.3866 19.3519 26.1066 18.7202 26.1066C18.2246 26.1066 17.8902 26.3357 17.8902 26.6412C17.8902 27.4431 20.9871 26.7813 20.9871 28.9451C20.9871 29.9251 20.1695 30.6762 18.7202 30.6762C17.8035 30.6762 16.9239 30.3579 16.3789 29.836H16.3913Z" fill="#DCDFE5"/>
<path d="M25.5713 30.5489V27.265C25.5713 26.5139 25.1872 26.2848 24.5926 26.2848C24.06 26.2848 23.6387 26.603 23.4033 26.9212V30.5489H22.0283V23.1154H23.4033V25.8648C23.7378 25.4575 24.3944 25.0247 25.2491 25.0247C26.4012 25.0247 26.9587 25.6738 26.9587 26.7176V30.5362H25.5837L25.5713 30.5489Z" fill="#DCDFE5"/>
<path d="M28 26.8321C28 24.5537 29.6847 22.988 31.8526 22.988C33.4506 22.988 34.3673 23.879 34.8753 24.8082L33.5497 25.4828C33.2401 24.8846 32.5958 24.4009 31.8402 24.4009C30.5271 24.4009 29.5732 25.432 29.5732 26.8449C29.5732 28.2577 30.5271 29.2888 31.8402 29.2888C32.5834 29.2888 33.2401 28.8177 33.5497 28.2067L34.8753 28.8687C34.3549 29.7979 33.4382 30.7017 31.8526 30.7017C29.6847 30.7017 28 29.136 28 26.8576V26.8321Z" fill="#DCDFE5"/>
<path d="M35.4316 27.8504C35.4316 26.323 36.4722 25.0247 38.1942 25.0247C39.9161 25.0247 40.9691 26.323 40.9691 27.8504C40.9691 29.3779 39.9285 30.6762 38.1942 30.6762C36.4599 30.6762 35.4316 29.3779 35.4316 27.8504ZM39.5444 27.8504C39.5444 27.0103 39.0613 26.2847 38.1942 26.2847C37.327 26.2847 36.8563 27.0103 36.8563 27.8504C36.8563 28.6906 37.3394 29.4161 38.1942 29.4161C39.0489 29.4161 39.5444 28.6906 39.5444 27.8504Z" fill="#DCDFE5"/>
<path d="M48.5006 30.5489V27.1504C48.5006 26.654 48.2901 26.2975 47.7202 26.2975C47.2371 26.2975 46.8283 26.6285 46.6302 26.9212V30.5616H45.2427V27.1631C45.2427 26.6667 45.0198 26.3102 44.4622 26.3102C43.9792 26.3102 43.5827 26.6412 43.3722 26.9467V30.5744H41.9971V25.1901H43.3722V25.8902C43.5827 25.5719 44.2888 25.0502 45.0817 25.0502C45.8745 25.0502 46.3452 25.4193 46.5311 26.0302C46.8407 25.5338 47.5345 25.0502 48.3273 25.0502C49.2936 25.0502 49.8634 25.5719 49.8634 26.6795V30.5744H48.476L48.5006 30.5489Z" fill="#DCDFE5"/>
</g>
</g>
<defs>
<clipPath id="clip0_488_29284">
<rect width="50.2326" height="48" fill="white"/>
</clipPath>
</defs>
</svg>
