<svg width="59" height="51" viewBox="0 0 59 51" fill="none" xmlns="http://www.w3.org/2000/svg">
<path d="M27.3026 0.46435L27.2988 34.8413C27.2988 34.8935 27.2779 34.9438 27.2411 34.9806C27.204 35.0177 27.1537 35.0386 27.1015 35.0386H16.6651C16.6128 35.0386 16.5625 35.0177 16.5254 34.9806C16.4887 34.9438 16.4678 34.8935 16.4678 34.8413L16.4755 7.4466C16.4759 7.4141 16.484 7.38238 16.4999 7.35414C16.5154 7.3259 16.5374 7.30192 16.5645 7.28413L26.9971 0.298017C27.0268 0.278443 27.0617 0.267301 27.0972 0.265792C27.1328 0.264322 27.1684 0.272564 27.1997 0.289662C27.2311 0.30672 27.257 0.331978 27.2752 0.362769C27.2934 0.393521 27.303 0.428646 27.3026 0.46435Z" fill="#D1CFCF"/>
<path d="M42.7714 7.5125L42.7791 34.9072C42.7791 34.942 42.7652 34.9753 42.7404 35C42.7161 35.0248 42.6824 35.0387 42.6476 35.0387H32.0835C32.0487 35.0387 32.015 35.0248 31.9907 35C31.9659 34.9753 31.952 34.942 31.952 34.9072L31.9288 0.445188C31.928 0.421089 31.9342 0.39726 31.9462 0.376371C31.9586 0.355444 31.976 0.338271 31.9972 0.326705C32.0181 0.315101 32.0421 0.309567 32.0665 0.310689C32.0905 0.311811 32.1137 0.319548 32.1338 0.333009L42.7134 7.40419C42.7311 7.41618 42.7458 7.43204 42.7559 7.45099C42.766 7.46994 42.7714 7.49083 42.7714 7.5125Z" fill="#D1CFCF"/>
<path d="M47.9902 17.7364L58.6085 24.8308C58.6263 24.8427 58.641 24.8586 58.651 24.8776C58.6611 24.8965 58.6665 24.9174 58.6665 24.9391L58.6317 34.9036C58.6317 34.9384 58.6178 34.9717 58.593 34.9964C58.5686 35.0212 58.535 35.0351 58.5002 35.0351L47.9438 35.039C47.9264 35.039 47.9094 35.0355 47.8935 35.0289C47.8777 35.0223 47.863 35.0127 47.851 35.0003C47.8386 34.9883 47.8289 34.9736 47.8224 34.9577C47.8158 34.9419 47.8123 34.9245 47.8123 34.9075L47.7852 17.8486C47.7844 17.8243 47.7906 17.8007 47.8026 17.7798C47.815 17.7589 47.8324 17.7415 47.8537 17.7299C47.8746 17.7187 47.8986 17.7129 47.9229 17.714C47.9469 17.7152 47.9701 17.7229 47.9902 17.7364Z" fill="#D1CFCF"/>
<path d="M11.3234 35.0384H0.73605C0.720307 35.0384 0.704718 35.0353 0.690174 35.0291C0.675629 35.0233 0.6624 35.0144 0.651259 35.0032C0.640119 34.992 0.631299 34.9788 0.625265 34.9641C0.61923 34.9498 0.616137 34.9343 0.616137 34.9185L0.608399 24.9114C0.60836 24.8913 0.613273 24.8719 0.62275 24.8541C0.632189 24.8367 0.645881 24.8216 0.662553 24.8108L11.2615 17.7591C11.2797 17.7471 11.3006 17.7405 11.3222 17.7393C11.3439 17.7386 11.3652 17.7436 11.3845 17.754C11.4035 17.7641 11.4193 17.7796 11.4302 17.7981C11.4414 17.8167 11.4472 17.838 11.4472 17.8596L11.4433 34.9185C11.4433 34.9343 11.4402 34.9498 11.434 34.9641C11.4282 34.9788 11.4193 34.992 11.4081 35.0032C11.3969 35.0144 11.3837 35.0233 11.3694 35.0291C11.3547 35.0353 11.3393 35.0384 11.3234 35.0384Z" fill="#D1CFCF"/>
<path d="M41.1669 46.6322C41.0006 45.4989 39.1864 45.2513 38.2696 45.0424C36.5289 44.6479 34.2621 43.5454 34.4556 41.3792C34.7921 37.6502 39.5345 37.4878 42.161 38.3581C43.4348 38.7782 44.2023 39.7673 44.4626 41.3251C44.468 41.3579 44.4665 41.3912 44.4584 41.4237C44.4499 41.4558 44.4348 41.4856 44.4139 41.5115C44.393 41.5374 44.3671 41.5587 44.3373 41.5742C44.3079 41.5893 44.2754 41.5978 44.2421 41.5997L41.1824 41.7776C41.0199 41.7854 40.9116 41.7119 40.8574 41.5571L40.6911 41.0852C40.6528 40.9808 40.5921 40.8883 40.5132 40.8145C39.7887 40.1592 39.0406 40.0702 38.2696 40.5475C38.1629 40.6129 38.077 40.7077 38.0232 40.8206C37.9691 40.9336 37.9486 41.0601 37.9644 41.1843C37.9807 41.3084 38.0321 41.4256 38.113 41.5212C38.1938 41.6167 38.3006 41.6871 38.4205 41.7235C41.0895 42.5358 45.4722 42.8375 44.7914 46.9146C44.4665 48.8642 42.6368 50.0015 40.7298 50.1871C37.5617 50.4966 34.4981 50.044 33.9991 46.1719C33.9887 46.1046 34.0184 46.0686 34.0881 46.0636L37.4534 45.8354C37.4801 45.8331 37.5072 45.8404 37.5292 45.8571C37.5513 45.8733 37.5668 45.8973 37.5733 45.9244C38.0066 47.6469 39.0228 48.1962 40.6215 47.5722C40.8048 47.5007 40.9588 47.3688 41.0578 47.1982C41.1572 47.0276 41.1955 46.828 41.1669 46.6322Z" fill="#D1CFCF"/>
<path d="M9.53623 38.1562L13.1221 38.1484C13.1434 38.1484 13.1643 38.1535 13.1832 38.1631C13.2022 38.1728 13.2184 38.1871 13.2308 38.2049C13.2428 38.2223 13.2505 38.2424 13.2532 38.2637C13.2559 38.285 13.2532 38.3063 13.2459 38.3264L8.91344 49.9542C8.90397 49.9794 8.88702 50.001 8.8649 50.0161C8.84277 50.0312 8.81651 50.0393 8.78966 50.0393H4.8789C4.85271 50.0386 4.82729 50.03 4.80594 50.015C4.78459 49.9999 4.76823 49.9786 4.75898 49.9542L0.341478 38.3264C0.334051 38.3066 0.331459 38.2854 0.333896 38.2645C0.336333 38.2436 0.343722 38.2239 0.355482 38.2065C0.367202 38.1891 0.382948 38.1747 0.401399 38.1643C0.419812 38.1542 0.44039 38.1488 0.461395 38.1484L4.16328 38.1523C4.19109 38.1527 4.21805 38.162 4.24025 38.1786C4.2625 38.1952 4.2789 38.2185 4.28706 38.2451L6.73564 46.1595C6.74392 46.1862 6.76059 46.2098 6.78322 46.2264C6.80585 46.2435 6.83323 46.2523 6.86136 46.2523C6.88948 46.2523 6.9169 46.2435 6.93953 46.2264C6.96216 46.2098 6.97879 46.1862 6.98707 46.1595L9.41244 38.249C9.42061 38.2223 9.43701 38.1991 9.45925 38.1825C9.48149 38.1658 9.50845 38.1566 9.53623 38.1562Z" fill="#D1CFCF"/>
<path d="M17.772 44.0968L17.799 49.9107C17.799 49.9456 17.7851 49.9788 17.7603 50.0036C17.736 50.0283 17.7023 50.0423 17.6675 50.0423L14.3757 50.0384C14.3408 50.0384 14.3072 50.0245 14.2824 49.9997C14.2581 49.9753 14.2441 49.9417 14.2441 49.9069V38.2868C14.2441 38.2519 14.2581 38.2183 14.2824 38.1935C14.3072 38.1692 14.3408 38.1552 14.3757 38.1552L17.6985 38.1514C17.7197 38.1514 17.741 38.1568 17.76 38.1668C17.7785 38.1769 17.7948 38.1916 17.8068 38.2094L21.9032 44.2438C21.9191 44.2666 21.9419 44.284 21.9682 44.2933C21.9945 44.3026 22.0231 44.303 22.0502 44.2949C22.0769 44.2867 22.1001 44.2701 22.1167 44.2477C22.1338 44.2252 22.1427 44.1982 22.143 44.1703L22.1276 38.2868C22.1276 38.2519 22.1415 38.2183 22.1659 38.1935C22.1906 38.1692 22.2243 38.1552 22.2591 38.1552L25.5316 38.1514C25.5664 38.1514 25.6001 38.1653 25.6244 38.1897C25.6492 38.2144 25.6631 38.2481 25.6631 38.2829L25.6747 49.9069C25.6747 49.9417 25.6608 49.9753 25.636 49.9997C25.6117 50.0245 25.578 50.0384 25.5432 50.0384H22.1662C22.145 50.0384 22.1237 50.033 22.1047 50.0229C22.0862 50.0125 22.0699 49.9982 22.0579 49.9804L18.0157 44.0233C18.0006 43.9986 17.9774 43.9792 17.9503 43.9688C17.9232 43.9583 17.8934 43.9576 17.8656 43.9657C17.8373 43.9742 17.8133 43.9916 17.7963 44.0152C17.7793 44.0392 17.7708 44.0678 17.772 44.0968Z" fill="#D1CFCF"/>
<path d="M31.8911 38.1484H28.3942C28.3215 38.1484 28.2627 38.2072 28.2627 38.28V49.9078C28.2627 49.9805 28.3215 50.0393 28.3942 50.0393H31.8911C31.9638 50.0393 32.0226 49.9805 32.0226 49.9078V38.28C32.0226 38.2072 31.9638 38.1484 31.8911 38.1484Z" fill="#D1CFCF"/>
<path d="M54.2838 42.1588V38.2828C54.2838 38.2488 54.2973 38.2163 54.3209 38.1923C54.3449 38.1687 54.3774 38.1552 54.4114 38.1552L57.9315 38.1474C57.9651 38.1474 57.9976 38.161 58.0216 38.1846C58.0456 38.2085 58.0591 38.241 58.0591 38.2751L58.063 49.9107C58.063 49.9443 58.0495 49.9768 58.0255 50.0008C58.0015 50.0248 57.969 50.0383 57.9354 50.0383H54.4075C54.3735 50.0383 54.341 50.0248 54.317 50.0008C54.2934 49.9768 54.2799 49.9443 54.2799 49.9107L54.2876 45.4081C54.2876 45.374 54.2741 45.3415 54.2501 45.3175C54.2261 45.294 54.1936 45.2804 54.16 45.2804L50.5006 45.2843C50.4836 45.2843 50.4674 45.2874 50.4519 45.294C50.436 45.3005 50.4221 45.3098 50.4101 45.3214C50.3985 45.3334 50.3892 45.3477 50.3827 45.3632C50.3761 45.3787 50.373 45.3953 50.373 45.4119L50.3769 49.9107C50.3769 49.9443 50.3633 49.9768 50.3393 50.0008C50.3154 50.0248 50.2829 50.0383 50.2492 50.0383L46.7214 50.0345C46.6874 50.0345 46.6549 50.0209 46.6309 49.9969C46.6073 49.9729 46.5938 49.9405 46.5938 49.9068L46.5976 38.2867C46.5976 38.2526 46.6112 38.2201 46.6348 38.1962C46.6587 38.1726 46.6912 38.159 46.7253 38.159L50.2453 38.1436C50.279 38.1436 50.3115 38.1571 50.3355 38.1807C50.3595 38.2047 50.373 38.2372 50.373 38.2712L50.3769 42.1588C50.3769 42.1754 50.38 42.192 50.3865 42.2075C50.3927 42.223 50.4024 42.2373 50.414 42.2489C50.426 42.2609 50.4399 42.2702 50.4558 42.2767C50.4713 42.2829 50.4875 42.2864 50.5045 42.2864H54.1561C54.1898 42.2864 54.2223 42.2729 54.2462 42.2489C54.2702 42.2249 54.2838 42.1924 54.2838 42.1588Z" fill="#D1CFCF"/>
</svg>
