<svg width="444" height="243" viewBox="0 0 444 243" fill="none" xmlns="http://www.w3.org/2000/svg">
<rect x="115.341" y="30.2729" width="212.655" height="41.1266" rx="20.5633" fill="url(#paint0_linear_488_27589)"/>
<path d="M147.44 91.9629V116.049C147.44 118.259 145.649 120.049 143.44 120.049H36.1709C33.9618 120.049 32.1709 121.84 32.1709 124.049V139.61" stroke="#A07B59" stroke-width="2" stroke-linejoin="round" stroke-dasharray="6 6"/>
<path d="M379.969 174.008C380.521 174.008 380.969 174.456 380.969 175.008C380.969 175.561 380.521 176.008 379.969 176.008V174.008ZM377.037 176.008C376.485 176.008 376.037 175.561 376.037 175.008C376.037 174.456 376.485 174.008 377.037 174.008V176.008ZM371.175 174.008C371.727 174.008 372.175 174.456 372.175 175.008C372.175 175.561 371.727 176.008 371.175 176.008V174.008ZM365.312 176.008C364.76 176.008 364.312 175.561 364.312 175.008C364.312 174.456 364.76 174.008 365.312 174.008V176.008ZM359.449 174.008C360.001 174.008 360.449 174.456 360.449 175.008C360.449 175.561 360.001 176.008 359.449 176.008V174.008ZM353.586 176.008C353.034 176.008 352.586 175.561 352.586 175.008C352.586 174.456 353.034 174.008 353.586 174.008V176.008ZM347.724 174.008C348.276 174.008 348.724 174.456 348.724 175.008C348.724 175.561 348.276 176.008 347.724 176.008V174.008ZM341.861 176.008C341.309 176.008 340.861 175.561 340.861 175.008C340.861 174.456 341.309 174.008 341.861 174.008V176.008ZM335.998 174.008C336.55 174.008 336.998 174.456 336.998 175.008C336.998 175.561 336.55 176.008 335.998 176.008V174.008ZM330.135 176.008C329.583 176.008 329.135 175.561 329.135 175.008C329.135 174.456 329.583 174.008 330.135 174.008V176.008ZM324.273 174.008C324.825 174.008 325.273 174.456 325.273 175.008C325.273 175.561 324.825 176.008 324.273 176.008V174.008ZM318.41 176.008C317.858 176.008 317.41 175.561 317.41 175.008C317.41 174.456 317.858 174.008 318.41 174.008V176.008ZM312.547 174.008C313.099 174.008 313.547 174.456 313.547 175.008C313.547 175.561 313.099 176.008 312.547 176.008V174.008ZM306.684 176.008C306.132 176.008 305.684 175.561 305.684 175.008C305.684 174.456 306.132 174.008 306.684 174.008V176.008ZM300.822 174.008C301.374 174.008 301.822 174.456 301.822 175.008C301.822 175.561 301.374 176.008 300.822 176.008V174.008ZM295.976 175.628C295.466 175.417 295.224 174.832 295.435 174.322C295.647 173.812 296.232 173.569 296.742 173.781L295.976 175.628ZM295.118 172.156C295.329 172.667 295.087 173.252 294.577 173.463C294.067 173.675 293.482 173.433 293.27 172.922L295.118 172.156ZM292.89 168.185C292.89 167.633 293.338 167.185 293.89 167.185C294.443 167.185 294.89 167.633 294.89 168.185H292.89ZM294.89 162.539C294.89 163.091 294.443 163.539 293.89 163.539C293.338 163.539 292.89 163.091 292.89 162.539H294.89ZM292.89 156.893C292.89 156.341 293.338 155.893 293.89 155.893C294.443 155.893 294.89 156.341 294.89 156.893H292.89ZM294.89 151.247C294.89 151.799 294.443 152.247 293.89 152.247C293.338 152.247 292.89 151.799 292.89 151.247H294.89ZM292.89 145.601C292.89 145.049 293.338 144.601 293.89 144.601C294.443 144.601 294.89 145.049 294.89 145.601H292.89ZM294.89 139.955C294.89 140.507 294.443 140.955 293.89 140.955C293.338 140.955 292.89 140.507 292.89 139.955H294.89ZM292.89 134.309C292.89 133.756 293.338 133.309 293.89 133.309C294.443 133.309 294.89 133.756 294.89 134.309H292.89ZM294.89 128.663C294.89 129.215 294.443 129.663 293.89 129.663C293.338 129.663 292.89 129.215 292.89 128.663H294.89ZM292.89 123.016C292.89 122.464 293.338 122.016 293.89 122.016C294.443 122.016 294.89 122.464 294.89 123.016H292.89ZM294.89 117.37C294.89 117.923 294.443 118.37 293.89 118.37C293.338 118.37 292.89 117.923 292.89 117.37H294.89ZM292.89 111.724C292.89 111.172 293.338 110.724 293.89 110.724C294.443 110.724 294.89 111.172 294.89 111.724H292.89ZM294.89 106.078C294.89 106.63 294.443 107.078 293.89 107.078C293.338 107.078 292.89 106.63 292.89 106.078H294.89ZM292.89 100.432C292.89 99.8798 293.338 99.432 293.89 99.432C294.443 99.432 294.89 99.8798 294.89 100.432H292.89ZM294.89 94.7859C294.89 95.3382 294.443 95.7859 293.89 95.7859C293.338 95.7859 292.89 95.3382 292.89 94.7859H294.89ZM379.969 176.008H377.037V174.008H379.969V176.008ZM371.175 176.008H365.312V174.008H371.175V176.008ZM359.449 176.008H353.586V174.008H359.449V176.008ZM347.724 176.008H341.861V174.008H347.724V176.008ZM335.998 176.008H330.135V174.008H335.998V176.008ZM324.273 176.008H318.41V174.008H324.273V176.008ZM312.547 176.008H306.684V174.008H312.547V176.008ZM300.822 176.008H297.89V174.008H300.822V176.008ZM297.89 176.008C297.214 176.008 296.567 175.874 295.976 175.628L296.742 173.781C297.095 173.927 297.482 174.008 297.89 174.008V176.008ZM293.27 172.922C293.025 172.332 292.89 171.684 292.89 171.008H294.89C294.89 171.417 294.971 171.804 295.118 172.156L293.27 172.922ZM292.89 171.008V168.185H294.89V171.008H292.89ZM292.89 162.539V156.893H294.89V162.539H292.89ZM292.89 151.247V145.601H294.89V151.247H292.89ZM292.89 139.955V134.309H294.89V139.955H292.89ZM292.89 128.663V123.016H294.89V128.663H292.89ZM292.89 117.37V111.724H294.89V117.37H292.89ZM292.89 106.078V100.432H294.89V106.078H292.89ZM292.89 94.7859V91.9629H294.89V94.7859H292.89Z" fill="#A07B59"/>
<path d="M221.668 91.9629V193.776" stroke="#A07B59" stroke-width="2" stroke-linejoin="round" stroke-dasharray="6 6"/>
<g filter="url(#filter0_b_488_27589)">
<rect x="93.9629" y="0.891846" width="256.415" height="95.8761" rx="28" fill="white" fill-opacity="0.03"/>
</g>
<rect x="103.013" y="7.67114" width="238.315" height="82.3178" rx="24" fill="url(#paint1_linear_488_27589)"/>
<path d="M109.493 35.2925C109.493 24.2468 118.447 15.2925 129.493 15.2925H314.846C325.891 15.2925 334.846 24.2468 334.846 35.2925V64.3044C334.846 75.3501 325.892 84.3044 314.846 84.3044H129.493C118.447 84.3044 109.493 75.3501 109.493 64.3044V35.2925Z" fill="#1B1D1E"/>
<ellipse cx="139.743" cy="49.7974" rx="7.57034" ry="7.29101" fill="#D19A66"/>
<ellipse cx="178.931" cy="49.7974" rx="7.57034" ry="7.29101" fill="#D19A66"/>
<ellipse cx="159.336" cy="49.7974" rx="7.57034" ry="7.29101" fill="#D19A66"/>
<ellipse cx="198.524" cy="49.7974" rx="7.57034" ry="7.29101" fill="#D19A66"/>
<ellipse cx="218.118" cy="49.7974" rx="7.57034" ry="7.29101" fill="#D19A66"/>
<path d="M297.673 41.6699C298.144 41.6004 298.619 41.5659 299.094 41.5666C303.358 41.5666 307.367 44.5236 309.7 49.3141C309.343 50.0432 308.94 50.7504 308.493 51.4318C308.351 51.6433 308.277 51.8902 308.278 52.142C308.281 52.4238 308.38 52.6969 308.559 52.9197C308.739 53.1425 308.988 53.3026 309.271 53.3758C309.554 53.449 309.853 53.4311 310.124 53.3249C310.395 53.2187 310.623 53.03 310.772 52.7876C311.397 51.8423 311.939 50.849 312.394 49.8177C312.466 49.6566 312.504 49.4831 312.504 49.3077C312.504 49.1323 312.466 48.9587 312.394 48.7976C309.686 42.7416 304.591 38.984 299.094 38.984C298.465 38.981 297.837 39.0329 297.217 39.139C297.041 39.1678 296.873 39.2298 296.722 39.3213C296.57 39.4128 296.439 39.5321 296.336 39.6724C296.233 39.8127 296.159 39.9712 296.119 40.1389C296.08 40.3066 296.075 40.4802 296.105 40.6498C296.135 40.8193 296.199 40.9816 296.294 41.1272C296.389 41.2728 296.513 41.399 296.658 41.4985C296.804 41.5981 296.969 41.669 297.143 41.7072C297.317 41.7455 297.497 41.7503 297.673 41.7215V41.6699ZM287.98 36.776C287.855 36.6556 287.706 36.5601 287.543 36.4949C287.38 36.4298 287.205 36.3962 287.028 36.3962C286.851 36.3962 286.676 36.4298 286.513 36.4949C286.349 36.5601 286.201 36.6556 286.076 36.776C285.823 37.0191 285.682 37.3489 285.682 37.6928C285.682 38.0366 285.823 38.3664 286.076 38.6096L290.232 42.5996C288.336 44.3577 286.827 46.4656 285.794 48.7976C285.721 48.9605 285.682 49.1364 285.682 49.3141C285.682 49.4919 285.721 49.6677 285.794 49.8306C288.503 55.8866 293.597 59.6442 299.094 59.6442C301.504 59.6282 303.856 58.9372 305.865 57.6557L310.209 61.8523C310.334 61.9733 310.482 62.0694 310.645 62.1349C310.809 62.2005 310.984 62.2342 311.161 62.2342C311.338 62.2342 311.513 62.2005 311.677 62.1349C311.84 62.0694 311.988 61.9733 312.113 61.8523C312.239 61.7322 312.338 61.5894 312.406 61.4321C312.474 61.2747 312.51 61.1059 312.51 60.9355C312.51 60.765 312.474 60.5962 312.406 60.4389C312.338 60.2815 312.239 60.1387 312.113 60.0187L287.98 36.776ZM296.507 48.6427L299.792 51.8063C299.565 51.8688 299.33 51.8993 299.094 51.8966C298.383 51.8966 297.701 51.6246 297.198 51.1402C296.695 50.6559 296.413 49.9991 296.413 49.3141C296.41 49.0871 296.442 48.8609 296.507 48.6427ZM299.094 57.0617C294.831 57.0617 290.822 54.1047 288.503 49.3141C289.369 47.4725 290.598 45.8104 292.123 44.4202L294.496 46.7316C293.938 47.7114 293.726 48.8389 293.89 49.9448C294.054 51.0508 294.587 52.0757 295.407 52.8657C296.227 53.6557 297.291 54.1683 298.44 54.3265C299.588 54.4847 300.759 54.28 301.776 53.7431L303.908 55.7704C302.448 56.598 300.788 57.0431 299.094 57.0617Z" fill="#D19A66"/>
<path d="M295.073 49.7981L296.079 48.3455L298.593 49.7981L300.604 52.7035L297.084 52.2192L295.073 49.7981Z" fill="#D19A66"/>
<rect x="0.170898" y="138.606" width="67.2069" height="67.2069" rx="24" fill="#1B1D1E"/>
<rect x="0.670898" y="139.106" width="66.2069" height="66.2069" rx="23.5" stroke="url(#paint2_linear_488_27589)"/>
<path d="M41.3818 166.442V163.6C41.3818 161.716 40.6332 159.908 39.3007 158.576C37.9682 157.243 36.161 156.495 34.2765 156.495C32.3921 156.495 30.5849 157.243 29.2524 158.576C27.9199 159.908 27.1713 161.716 27.1713 163.6V166.442C26.0407 166.442 24.9563 166.891 24.1568 167.691C23.3574 168.49 22.9082 169.575 22.9082 170.705V180.653C22.9082 181.783 23.3574 182.868 24.1568 183.667C24.9563 184.467 26.0407 184.916 27.1713 184.916H41.3818C42.5124 184.916 43.5967 184.467 44.3962 183.667C45.1957 182.868 45.6449 181.783 45.6449 180.653V170.705C45.6449 169.575 45.1957 168.49 44.3962 167.691C43.5967 166.891 42.5124 166.442 41.3818 166.442ZM30.0134 163.6C30.0134 162.469 30.4626 161.385 31.2621 160.586C32.0615 159.786 33.1459 159.337 34.2765 159.337C35.4072 159.337 36.4915 159.786 37.291 160.586C38.0905 161.385 38.5397 162.469 38.5397 163.6V166.442H30.0134V163.6ZM42.8028 180.653C42.8028 181.029 42.6531 181.391 42.3866 181.657C42.1201 181.924 41.7586 182.074 41.3818 182.074H27.1713C26.7944 182.074 26.433 181.924 26.1665 181.657C25.9 181.391 25.7503 181.029 25.7503 180.653V170.705C25.7503 170.328 25.9 169.967 26.1665 169.7C26.433 169.434 26.7944 169.284 27.1713 169.284H41.3818C41.7586 169.284 42.1201 169.434 42.3866 169.7C42.6531 169.967 42.8028 170.328 42.8028 170.705V180.653Z" fill="#D19A66"/>
<rect x="187.562" y="175.671" width="67.2069" height="67.2069" rx="24" fill="#1B1D1E"/>
<rect x="188.062" y="176.171" width="66.2069" height="66.2069" rx="23.5" stroke="url(#paint3_linear_488_27589)"/>
<rect width="67.2069" height="67.2069" rx="24" transform="matrix(-1 0 0 1 443.157 138.606)" fill="#1B1D1E"/>
<rect x="-0.5" y="0.5" width="66.2069" height="66.2069" rx="23.5" transform="matrix(-1 0 0 1 442.157 138.606)" stroke="url(#paint4_linear_488_27589)"/>
<path d="M401.946 166.442V163.6C401.946 161.715 402.695 159.908 404.027 158.576C405.36 157.243 407.167 156.495 409.052 156.495C410.936 156.495 412.743 157.243 414.076 158.576C415.408 159.908 416.157 161.715 416.157 163.6V166.442C417.287 166.442 418.372 166.891 419.171 167.691C419.971 168.49 420.42 169.574 420.42 170.705V180.652C420.42 181.783 419.971 182.867 419.171 183.667C418.372 184.466 417.287 184.915 416.157 184.915H401.946C400.816 184.915 399.731 184.466 398.932 183.667C398.132 182.867 397.683 181.783 397.683 180.652V170.705C397.683 169.574 398.132 168.49 398.932 167.691C399.731 166.891 400.816 166.442 401.946 166.442ZM413.315 163.6C413.315 162.469 412.866 161.385 412.066 160.585C411.267 159.786 410.182 159.337 409.052 159.337C407.921 159.337 406.837 159.786 406.037 160.585C405.238 161.385 404.788 162.469 404.788 163.6V166.442H413.315V163.6ZM400.525 180.652C400.525 181.029 400.675 181.391 400.942 181.657C401.208 181.924 401.569 182.073 401.946 182.073H416.157C416.534 182.073 416.895 181.924 417.162 181.657C417.428 181.391 417.578 181.029 417.578 180.652V170.705C417.578 170.328 417.428 169.967 417.162 169.7C416.895 169.434 416.534 169.284 416.157 169.284H401.946C401.569 169.284 401.208 169.434 400.942 169.7C400.675 169.967 400.525 170.328 400.525 170.705V180.652Z" fill="#D19A66"/>
<path d="M228.774 203.507V200.665C228.774 198.78 228.026 196.973 226.693 195.641C225.361 194.308 223.554 193.56 221.669 193.56C219.785 193.56 217.977 194.308 216.645 195.641C215.312 196.973 214.564 198.78 214.564 200.665V203.507C213.433 203.507 212.349 203.956 211.549 204.756C210.75 205.555 210.301 206.639 210.301 207.77V217.717C210.301 218.848 210.75 219.932 211.549 220.732C212.349 221.531 213.433 221.98 214.564 221.98H228.774C229.905 221.98 230.989 221.531 231.789 220.732C232.588 219.932 233.037 218.848 233.037 217.717V207.77C233.037 206.639 232.588 205.555 231.789 204.756C230.989 203.956 229.905 203.507 228.774 203.507ZM217.406 200.665C217.406 199.534 217.855 198.45 218.655 197.65C219.454 196.851 220.538 196.402 221.669 196.402C222.8 196.402 223.884 196.851 224.684 197.65C225.483 198.45 225.932 199.534 225.932 200.665V203.507H217.406V200.665ZM230.195 217.717C230.195 218.094 230.046 218.456 229.779 218.722C229.513 218.989 229.151 219.138 228.774 219.138H214.564C214.187 219.138 213.826 218.989 213.559 218.722C213.293 218.456 213.143 218.094 213.143 217.717V207.77C213.143 207.393 213.293 207.032 213.559 206.765C213.826 206.499 214.187 206.349 214.564 206.349H228.774C229.151 206.349 229.513 206.499 229.779 206.765C230.046 207.032 230.195 207.393 230.195 207.77V217.717Z" fill="#D19A66"/>
<defs>
<filter id="filter0_b_488_27589" x="90.6629" y="-2.40815" width="263.015" height="102.476" filterUnits="userSpaceOnUse" color-interpolation-filters="sRGB">
<feFlood flood-opacity="0" result="BackgroundImageFix"/>
<feGaussianBlur in="BackgroundImageFix" stdDeviation="1.65"/>
<feComposite in2="SourceAlpha" operator="in" result="effect1_backgroundBlur_488_27589"/>
<feBlend mode="normal" in="SourceGraphic" in2="effect1_backgroundBlur_488_27589" result="shape"/>
</filter>
<linearGradient id="paint0_linear_488_27589" x1="301.536" y1="30.2729" x2="228.452" y2="228.629" gradientUnits="userSpaceOnUse">
<stop stop-color="#D19A66"/>
<stop offset="1" stop-color="#6B4F34"/>
</linearGradient>
<linearGradient id="paint1_linear_488_27589" x1="222.17" y1="7.67115" x2="300.023" y2="104.973" gradientUnits="userSpaceOnUse">
<stop stop-color="#D19A66"/>
<stop offset="1" stop-color="#6B4F34" stop-opacity="0.1"/>
</linearGradient>
<linearGradient id="paint2_linear_488_27589" x1="0.170899" y1="223.367" x2="20.4978" y2="172.21" gradientUnits="userSpaceOnUse">
<stop offset="0.214148" stop-opacity="0"/>
<stop offset="1" stop-color="#D19A66"/>
</linearGradient>
<linearGradient id="paint3_linear_488_27589" x1="221.668" y1="269.962" x2="221.668" y2="164.637" gradientUnits="userSpaceOnUse">
<stop offset="0.214148" stop-opacity="0"/>
<stop offset="1" stop-color="#D19A66"/>
</linearGradient>
<linearGradient id="paint4_linear_488_27589" x1="2.18074e-08" y1="84.761" x2="34.105" y2="-9.0278" gradientUnits="userSpaceOnUse">
<stop offset="0.214148" stop-opacity="0"/>
<stop offset="1" stop-color="#D19A66"/>
</linearGradient>
</defs>
</svg>
