<svg width="25" height="25" viewBox="0 0 25 25" fill="none" xmlns="http://www.w3.org/2000/svg">
<path d="M14.443 18.0946L13.153 19.3946V13.8046C13.153 13.5394 13.0476 13.285 12.8601 13.0975C12.6725 12.9099 12.4182 12.8046 12.153 12.8046C11.8878 12.8046 11.6334 12.9099 11.4459 13.0975C11.2583 13.285 11.153 13.5394 11.153 13.8046V19.3946L9.86297 18.0946C9.76973 18.0013 9.65904 17.9274 9.53722 17.8769C9.4154 17.8265 9.28483 17.8005 9.15297 17.8005C9.02111 17.8005 8.89054 17.8265 8.76872 17.8769C8.6469 17.9274 8.53621 18.0013 8.44297 18.0946C8.34973 18.1878 8.27577 18.2985 8.22531 18.4203C8.17485 18.5422 8.14888 18.6727 8.14888 18.8046C8.14888 18.9364 8.17485 19.067 8.22531 19.1888C8.27577 19.3107 8.34973 19.4213 8.44297 19.5146L11.443 22.5146C11.5381 22.6056 11.6502 22.677 11.773 22.7246C11.8927 22.7775 12.0221 22.8048 12.153 22.8048C12.2838 22.8048 12.4133 22.7775 12.533 22.7246C12.6557 22.677 12.7679 22.6056 12.863 22.5146L15.863 19.5146C16.0513 19.3263 16.1571 19.0709 16.1571 18.8046C16.1571 18.5383 16.0513 18.2829 15.863 18.0946C15.6747 17.9063 15.4193 17.8005 15.153 17.8005C14.8867 17.8005 14.6313 17.9063 14.443 18.0946V18.0946ZM18.573 7.02458C17.962 5.62059 16.9075 4.45566 15.571 3.70831C14.2346 2.96096 12.69 2.67241 11.1739 2.88689C9.65784 3.10137 8.25389 3.80704 7.17722 4.89576C6.10055 5.98448 5.41056 7.3962 5.21297 8.91458C4.25955 9.1429 3.42319 9.71342 2.8627 10.5178C2.30222 11.3221 2.05665 12.3043 2.17263 13.2778C2.28861 14.2513 2.75806 15.1483 3.49183 15.7984C4.22561 16.4486 5.1726 16.8066 6.15297 16.8046C6.41818 16.8046 6.67254 16.6992 6.86007 16.5117C7.04761 16.3242 7.15297 16.0698 7.15297 15.8046C7.15297 15.5394 7.04761 15.285 6.86007 15.0975C6.67254 14.9099 6.41818 14.8046 6.15297 14.8046C5.62253 14.8046 5.11383 14.5939 4.73875 14.2188C4.36368 13.8437 4.15297 13.335 4.15297 12.8046C4.15297 12.2741 4.36368 11.7654 4.73875 11.3904C5.11383 11.0153 5.62253 10.8046 6.15297 10.8046C6.41818 10.8046 6.67254 10.6992 6.86007 10.5117C7.04761 10.3242 7.15297 10.0698 7.15297 9.80458C7.15552 8.62186 7.57725 7.47834 8.34324 6.57717C9.10922 5.676 10.1699 5.07553 11.3367 4.88246C12.5036 4.68938 13.7011 4.91619 14.7165 5.52259C15.732 6.12899 16.4996 7.07572 16.883 8.19458C16.9401 8.36642 17.0429 8.51951 17.1803 8.63752C17.3176 8.75552 17.4845 8.834 17.663 8.86458C18.329 8.99045 18.9328 9.33819 19.376 9.85112C19.8192 10.364 20.0755 11.0119 20.1034 11.6892C20.1312 12.3665 19.9288 13.0333 19.5293 13.5808C19.1297 14.1284 18.5565 14.5245 17.903 14.7046C17.7756 14.7374 17.6559 14.795 17.5508 14.8741C17.4457 14.9532 17.3572 15.0522 17.2903 15.1655C17.2234 15.2788 17.1796 15.4041 17.1611 15.5343C17.1427 15.6646 17.1501 15.7972 17.183 15.9246C17.2158 16.052 17.2734 16.1716 17.3525 16.2768C17.4316 16.3819 17.5306 16.4704 17.6439 16.5373C17.7571 16.6041 17.8825 16.648 18.0127 16.6664C18.143 16.6848 18.2756 16.6774 18.403 16.6446C19.4554 16.3665 20.3882 15.7526 21.06 14.896C21.7317 14.0395 22.1056 12.9872 22.1248 11.8989C22.144 10.8105 21.8076 9.74563 21.1665 8.8659C20.5255 7.98618 19.6149 7.33968 18.573 7.02458V7.02458Z" fill="#0E1011"/>
</svg>
