<svg width="103" height="17" viewBox="0 0 103 17" fill="none" xmlns="http://www.w3.org/2000/svg">
<path d="M5.7149 15.9724L0 0.754395H3.59077L7.68729 12.4545L11.7585 0.754395H15.3493L9.65967 15.9724H5.7149Z" fill="#DCDFE5"/>
<path d="M23.8719 15.9724V9.30161C23.8719 7.76404 23.088 7.24273 21.8995 7.24273C20.7868 7.24273 19.9271 7.89423 19.4719 8.54574V15.9724H16.665V4.94983H19.4719V6.38303C20.1547 5.54915 21.4696 4.66309 23.2144 4.66309C25.5661 4.66309 26.7041 6.04409 26.7041 8.18098V15.9724H23.8972H23.8719Z" fill="#DCDFE5"/>
<path d="M29.2061 2.0051C29.2061 1.04076 29.9901 0.285156 30.9003 0.285156C31.8108 0.285156 32.5945 1.04076 32.5945 2.0051C32.5945 2.96917 31.8361 3.75087 30.9003 3.75087C29.9648 3.75087 29.2061 2.96917 29.2061 2.0051ZM29.4843 15.9462V4.92369H32.291V15.9462H29.4843Z" fill="#DCDFE5"/>
<path d="M34.162 14.5131L35.3757 12.4806C36.1597 13.2364 37.7528 13.992 39.0677 13.992C40.2814 13.992 40.8631 13.4968 40.8631 12.7934C40.8631 10.9691 34.5158 12.4545 34.5158 8.1288C34.5158 6.27866 36.0839 4.66309 38.8906 4.66309C40.7113 4.66309 42.1527 5.31459 43.2146 6.17456L42.0768 8.15489C41.4445 7.4512 40.2055 6.87797 38.9159 6.87797C37.9043 6.87797 37.2217 7.3471 37.2217 7.97251C37.2217 9.61418 43.5434 8.25926 43.5434 12.689C43.5434 14.6955 41.8745 16.233 38.9159 16.233C37.0447 16.233 35.2493 15.5815 34.1367 14.5131H34.162Z" fill="#DCDFE5"/>
<path d="M52.9001 15.9724V9.24948C52.9001 7.71191 52.1161 7.24278 50.9024 7.24278C49.8152 7.24278 48.9553 7.89429 48.4747 8.54579V15.9724H45.668V0.754395H48.4747V6.38309C49.1576 5.54921 50.4978 4.66314 52.2426 4.66314C54.5944 4.66314 55.7322 5.99196 55.7322 8.12885V15.9463H52.9254L52.9001 15.9724Z" fill="#DCDFE5"/>
<path d="M57.8564 8.36332C57.8564 3.69898 61.2955 0.493652 65.7206 0.493652C68.9827 0.493652 70.8539 2.31769 71.8909 4.22002L69.185 5.60103C68.553 4.3763 67.2378 3.38614 65.6953 3.38614C63.015 3.38614 61.0679 5.49693 61.0679 8.38942C61.0679 11.2819 63.015 13.3927 65.6953 13.3927C67.2125 13.3927 68.553 12.4284 69.185 11.1775L71.8909 12.5327C70.8286 14.4351 68.9574 16.2852 65.7206 16.2852C61.2955 16.2852 57.8564 13.0799 57.8564 8.41551V8.36332Z" fill="#DCDFE5"/>
<path d="M73.0283 10.4481C73.0283 7.32101 75.1525 4.66309 78.6674 4.66309C82.1824 4.66309 84.3318 7.32101 84.3318 10.4481C84.3318 13.5751 82.2077 16.233 78.6674 16.233C75.1272 16.233 73.0283 13.5751 73.0283 10.4481ZM81.4236 10.4481C81.4236 8.72811 80.4375 7.24273 78.6674 7.24273C76.8973 7.24273 75.9365 8.72811 75.9365 10.4481C75.9365 12.168 76.9226 13.6534 78.6674 13.6534C80.4123 13.6534 81.4236 12.168 81.4236 10.4481Z" fill="#DCDFE5"/>
<path d="M99.7073 15.9724V9.01492C99.7073 7.99867 99.2776 7.26888 98.1143 7.26888C97.1282 7.26888 96.2936 7.94648 95.8892 8.5458V15.9985H93.0568V9.04102C93.0568 8.02476 92.6019 7.29498 91.4638 7.29498C90.4777 7.29498 89.6684 7.97257 89.2387 8.59798V16.0246H86.4316V5.0018H89.2387V6.435C89.6684 5.7835 91.1097 4.71533 92.7283 4.71533C94.3467 4.71533 95.3075 5.47094 95.6868 6.72176C96.3188 5.7055 97.7352 4.71533 99.3535 4.71533C101.326 4.71533 102.489 5.7835 102.489 8.05085V16.0246H99.657L99.7073 15.9724Z" fill="#DCDFE5"/>
</svg>
