<svg width="259" height="174" viewBox="0 0 259 174" fill="none" xmlns="http://www.w3.org/2000/svg">
<g clip-path="url(#clip0_488_27624)">
<g filter="url(#filter0_f_488_27624)">
<path d="M89.6795 36.9589L19.9362 36.8152C15.2096 36.8152 11.374 40.6582 11.374 45.3938L11.374 128.865C11.374 133.6 15.2096 137.443 19.9362 137.443H95.9766L95.9766 121.724H57.4845C45.2377 121.724 38.1629 107.797 45.3812 97.879L89.6795 36.9589Z" stroke="#FEE5D0" stroke-width="2" stroke-miterlimit="10"/>
</g>
<g filter="url(#filter1_f_488_27624)">
<path d="M153.299 137.443H222.091C226.818 137.443 230.654 133.6 230.654 128.865V108.114C230.654 105.822 232.511 103.961 234.799 103.961H242.704C245.067 103.961 246.978 102.047 246.978 99.6792V74.5713C246.978 72.2035 245.067 70.2896 242.704 70.2896H234.799C232.511 70.2896 230.654 68.4286 230.654 66.1365V45.386C230.654 40.6503 226.818 36.8074 222.091 36.8074H146.368V53.9645H184.422C196.73 53.9645 203.834 67.9596 196.586 77.9301L153.307 137.436L153.299 137.443Z" stroke="#FEE5D0" stroke-width="2" stroke-miterlimit="10"/>
</g>
<path d="M89.6795 36.9589L19.9362 36.8152C15.2096 36.8152 11.374 40.6582 11.374 45.3938L11.374 128.865C11.374 133.6 15.2096 137.443 19.9362 137.443H95.9766L95.9766 121.724H57.4845C45.2377 121.724 38.1629 107.797 45.3812 97.879L89.6795 36.9589Z" stroke="#D19A63" stroke-width="2" stroke-miterlimit="10"/>
<path d="M153.299 137.443H222.091C226.818 137.443 230.654 133.6 230.654 128.865V108.114C230.654 105.822 232.511 103.961 234.799 103.961H242.704C245.067 103.961 246.978 102.047 246.978 99.6792V74.5713C246.978 72.2035 245.067 70.2896 242.704 70.2896H234.799C232.511 70.2896 230.654 68.4286 230.654 66.1365V45.386C230.654 40.6503 226.818 36.8074 222.091 36.8074H146.368V53.9645H184.422C196.73 53.9645 203.834 67.9596 196.586 77.9301L153.307 137.436L153.299 137.443Z" stroke="#D19A63" stroke-width="2" stroke-miterlimit="10"/>
<g filter="url(#filter2_f_488_27624)">
<path d="M89.6795 36.9589L19.9362 36.8152C15.2096 36.8152 11.374 40.6582 11.374 45.3938L11.374 128.865C11.374 133.6 15.2096 137.443 19.9362 137.443H95.9766L95.9766 121.724H57.4845C45.2377 121.724 38.1629 107.797 45.3812 97.879L89.6795 36.9589Z" stroke="#FEE5D0" stroke-width="0.5" stroke-miterlimit="10"/>
</g>
<g filter="url(#filter3_f_488_27624)">
<path d="M153.299 137.443H222.091C226.818 137.443 230.654 133.6 230.654 128.865V108.114C230.654 105.822 232.511 103.961 234.799 103.961H242.704C245.067 103.961 246.978 102.047 246.978 99.6792V74.5713C246.978 72.2035 245.067 70.2896 242.704 70.2896H234.799C232.511 70.2896 230.654 68.4286 230.654 66.1365V45.386C230.654 40.6503 226.818 36.8074 222.091 36.8074H146.368V53.9645H184.422C196.73 53.9645 203.834 67.9596 196.586 77.9301L153.307 137.436L153.299 137.443Z" stroke="#FEE5D0" stroke-width="0.5" stroke-miterlimit="10"/>
</g>
<path d="M121.105 138.948V105.164C121.105 102.879 120.199 100.685 118.583 99.0663C116.967 97.4475 114.785 96.5397 112.497 96.5397H78.0898L121.097 36.9056V70.6904C121.097 72.975 122.003 75.1688 123.619 76.7877C125.235 78.4066 127.417 79.3144 129.704 79.3144H164.112L121.105 138.948ZM188.968 66.8172C188.251 65.395 187.156 64.1998 185.812 63.3676C184.46 62.5279 182.905 62.0892 181.319 62.0816L138.312 62.0816V10.3604C138.403 8.4692 137.874 6.60067 136.802 5.04231C135.73 3.48394 134.174 2.32651 132.377 1.73645C130.648 1.16908 128.791 1.16152 127.054 1.72132C125.325 2.28112 123.815 3.37047 122.743 4.84562L53.9284 99.6413C53.0677 100.889 52.5467 102.342 52.4259 103.855C52.3051 105.368 52.5844 106.888 53.2413 108.258C53.8454 109.824 54.8873 111.178 56.2464 112.161C57.6055 113.145 59.2213 113.704 60.8974 113.772H103.905V165.479C103.905 167.294 104.479 169.064 105.543 170.539C106.608 172.007 108.11 173.104 109.839 173.671C110.7 173.936 111.599 174.087 112.505 174.103C113.864 174.103 115.2 173.785 116.408 173.172C117.616 172.559 118.666 171.667 119.466 170.57L188.281 75.774C189.209 74.488 189.761 72.9675 189.881 71.3864C190.002 69.8053 189.685 68.2243 188.968 66.8096V66.8172Z" fill="#D19A63"/>
<path d="M188.05 67.1541L188.046 67.1549C187.391 65.8556 186.391 64.7643 185.165 64.0053L185.164 64.0047C183.933 63.2398 182.514 62.8388 181.065 62.8316L138.06 62.8316H137.31V62.0816V10.3604V10.3425L137.311 10.3245C137.394 8.59617 136.911 6.88977 135.932 5.46741C134.954 4.04564 133.534 2.98837 131.891 2.44902C130.313 1.93096 128.618 1.92418 127.033 2.4351C125.454 2.94645 124.076 3.94074 123.098 5.28621L188.05 67.1541ZM188.05 67.1541C188.703 68.4457 188.992 69.8878 188.882 71.3293C188.771 72.7742 188.268 74.1622 187.421 75.335L118.608 170.128C118.608 170.128 118.608 170.128 118.607 170.129C117.877 171.13 116.919 171.944 115.817 172.503L116.156 173.172L115.817 172.503C114.717 173.061 113.499 173.352 112.259 173.353C111.432 173.338 110.608 173.2 109.814 172.956C108.239 172.438 106.869 171.437 105.899 170.1C104.926 168.752 104.403 167.136 104.403 165.479V113.772V113.022H103.653H60.6611C59.1376 112.958 57.6697 112.448 56.4341 111.554C55.1928 110.655 54.241 109.419 53.6891 107.988L53.6784 107.96L53.6656 107.933C53.0665 106.684 52.8112 105.297 52.9215 103.915C53.0315 102.537 53.5051 101.214 54.2888 100.074L123.098 5.28656L188.05 67.1541Z" stroke="url(#paint0_linear_488_27624)" stroke-width="1.5"/>
<path d="M120.083 138.948V141.27L121.441 139.387L164.449 79.753L165.306 78.5643H163.84H129.433C127.345 78.5643 125.354 77.7361 123.878 76.2578C122.403 74.7797 121.576 72.7765 121.576 70.6903V36.9055V34.5834L120.217 36.4668L77.2101 96.1008L76.3528 97.2896H77.8184H112.226C114.314 97.2896 116.305 98.1177 117.78 99.5961C119.256 101.074 120.083 103.077 120.083 105.164V138.948Z" stroke="url(#paint1_linear_488_27624)" stroke-width="1.5"/>
</g>
<defs>
<filter id="filter0_f_488_27624" x="4.37402" y="29.8152" width="98.6025" height="114.628" filterUnits="userSpaceOnUse" color-interpolation-filters="sRGB">
<feFlood flood-opacity="0" result="BackgroundImageFix"/>
<feBlend mode="normal" in="SourceGraphic" in2="BackgroundImageFix" result="shape"/>
<feGaussianBlur stdDeviation="3" result="effect1_foregroundBlur_488_27624"/>
</filter>
<filter id="filter1_f_488_27624" x="139.368" y="29.8074" width="114.609" height="114.636" filterUnits="userSpaceOnUse" color-interpolation-filters="sRGB">
<feFlood flood-opacity="0" result="BackgroundImageFix"/>
<feBlend mode="normal" in="SourceGraphic" in2="BackgroundImageFix" result="shape"/>
<feGaussianBlur stdDeviation="3" result="effect1_foregroundBlur_488_27624"/>
</filter>
<filter id="filter2_f_488_27624" x="10.624" y="36.0652" width="86.1025" height="102.128" filterUnits="userSpaceOnUse" color-interpolation-filters="sRGB">
<feFlood flood-opacity="0" result="BackgroundImageFix"/>
<feBlend mode="normal" in="SourceGraphic" in2="BackgroundImageFix" result="shape"/>
<feGaussianBlur stdDeviation="0.25" result="effect1_foregroundBlur_488_27624"/>
</filter>
<filter id="filter3_f_488_27624" x="145.618" y="36.0574" width="102.109" height="102.136" filterUnits="userSpaceOnUse" color-interpolation-filters="sRGB">
<feFlood flood-opacity="0" result="BackgroundImageFix"/>
<feBlend mode="normal" in="SourceGraphic" in2="BackgroundImageFix" result="shape"/>
<feGaussianBlur stdDeviation="0.25" result="effect1_foregroundBlur_488_27624"/>
</filter>
<linearGradient id="paint0_linear_488_27624" x1="120.901" y1="1.30615" x2="120.901" y2="174.103" gradientUnits="userSpaceOnUse">
<stop offset="0.100045" stop-color="#FEE5D0" stop-opacity="0"/>
<stop offset="0.485" stop-color="#FEE5D0"/>
<stop offset="0.875413" stop-color="#FEE5D0" stop-opacity="0"/>
</linearGradient>
<linearGradient id="paint1_linear_488_27624" x1="120.829" y1="36.9055" x2="120.829" y2="138.948" gradientUnits="userSpaceOnUse">
<stop stop-color="#D19A63"/>
<stop offset="0.500221" stop-color="#FEE5D0"/>
<stop offset="1" stop-color="#D19A63"/>
</linearGradient>
<clipPath id="clip0_488_27624">
<rect width="258" height="173" fill="white" transform="translate(0.15625 0.785156)"/>
</clipPath>
</defs>
</svg>
