<svg width="18" height="18" viewBox="0 0 18 18" fill="none" xmlns="http://www.w3.org/2000/svg">
<path d="M2.69522 6.30432H15.3146C15.5005 6.30432 15.6789 6.23045 15.8103 6.09897C15.9418 5.9675 16.0157 5.78918 16.0157 5.60324C16.0157 5.4173 15.9418 5.23898 15.8103 5.1075C15.6789 4.97602 15.5005 4.90216 15.3146 4.90216H2.69522C2.50928 4.90216 2.33096 4.97602 2.19948 5.1075C2.068 5.23898 1.99414 5.4173 1.99414 5.60324C1.99414 5.78918 2.068 5.9675 2.19948 6.09897C2.33096 6.23045 2.50928 6.30432 2.69522 6.30432V6.30432ZM15.3146 11.9129H2.69522C2.50928 11.9129 2.33096 11.9868 2.19948 12.1183C2.068 12.2498 1.99414 12.4281 1.99414 12.614C1.99414 12.8 2.068 12.9783 2.19948 13.1097C2.33096 13.2412 2.50928 13.3151 2.69522 13.3151H15.3146C15.5005 13.3151 15.6789 13.2412 15.8103 13.1097C15.9418 12.9783 16.0157 12.8 16.0157 12.614C16.0157 12.4281 15.9418 12.2498 15.8103 12.1183C15.6789 11.9868 15.5005 11.9129 15.3146 11.9129ZM15.3146 8.40755H2.69522C2.50928 8.40755 2.33096 8.48141 2.19948 8.61289C2.068 8.74437 1.99414 8.92269 1.99414 9.10863C1.99414 9.29456 2.068 9.47288 2.19948 9.60436C2.33096 9.73584 2.50928 9.8097 2.69522 9.8097H15.3146C15.5005 9.8097 15.6789 9.73584 15.8103 9.60436C15.9418 9.47288 16.0157 9.29456 16.0157 9.10863C16.0157 8.92269 15.9418 8.74437 15.8103 8.61289C15.6789 8.48141 15.5005 8.40755 15.3146 8.40755Z" fill="#ABB1B9"/>
</svg>
