<svg width="253" height="203" viewBox="0 0 253 203" fill="none" xmlns="http://www.w3.org/2000/svg">
<path d="M252.039 101.451L204.569 101.451" stroke="#D19A64" stroke-miterlimit="10"/>
<path d="M48.2671 101.451H0.21875" stroke="#D19A64" stroke-miterlimit="10"/>
<path d="M137.418 43.8743L133.944 43.8743" stroke="#D19A64" stroke-miterlimit="10"/>
<path d="M252.038 44.1541H229.629" stroke="#D19A64" stroke-miterlimit="10"/>
<path d="M23.3746 43.874H0.21875" stroke="#D19A64" stroke-miterlimit="10"/>
<path d="M252.038 158.748H230.996" stroke="#D19A64" stroke-miterlimit="10"/>
<path d="M26.2691 159.028H0.21875" stroke="#D19A64" stroke-miterlimit="10"/>
<path d="M118.893 159.028L115.998 159.028" stroke="#D19A64" stroke-miterlimit="10"/>
<path d="M252.038 187.401H213.212" stroke="#D19A64" stroke-miterlimit="10"/>
<path d="M37.847 187.241H0.21875" stroke="#D19A64" stroke-miterlimit="10"/>
<path d="M136.259 187.241L104.999 187.241" stroke="#D19A64" stroke-miterlimit="10"/>
<path d="M252.039 130.104H221.448" stroke="#D19A64" stroke-miterlimit="10"/>
<path d="M27.4269 130.24H0.21875" stroke="#D19A64" stroke-miterlimit="10"/>
<path d="M252.039 72.8074H226.735" stroke="#D19A64" stroke-miterlimit="10"/>
<path d="M30.9002 72.6626H0.21875" stroke="#D19A64" stroke-miterlimit="10"/>
<path d="M147.837 15.6614L114.261 15.6614" stroke="#D19A64" stroke-miterlimit="10"/>
<path d="M252.039 15.5105H213.683" stroke="#D19A64" stroke-miterlimit="10"/>
<path d="M41.3204 15.6614H0.21875" stroke="#D19A64" stroke-miterlimit="10"/>
<path d="M137.996 30.0557L128.154 30.0557" stroke="#D19A64" stroke-miterlimit="10"/>
<path d="M252.038 29.8323H224.854" stroke="#D19A64" stroke-miterlimit="10"/>
<path d="M29.1635 30.0557H0.21875" stroke="#D19A64" stroke-miterlimit="10"/>
<path d="M252.038 58.4756H230.345" stroke="#D19A64" stroke-miterlimit="10"/>
<path d="M25.6902 58.2683H0.21875" stroke="#D19A64" stroke-miterlimit="10"/>
<path d="M252.039 87.1294H217.741" stroke="#D19A64" stroke-miterlimit="10"/>
<path d="M44.2148 87.0569H0.21875" stroke="#D19A64" stroke-miterlimit="10"/>
<path d="M252.038 115.845L205.727 115.845" stroke="#D19A64" stroke-miterlimit="10"/>
<path d="M34.3736 115.845H0.21875" stroke="#D19A64" stroke-miterlimit="10"/>
<path d="M252.039 144.426H229.844" stroke="#D19A64" stroke-miterlimit="10"/>
<path d="M23.9535 144.634H0.21875" stroke="#D19A64" stroke-miterlimit="10"/>
<path d="M252.038 173.08H226.36" stroke="#D19A64" stroke-miterlimit="10"/>
<path d="M30.3213 172.846H0.21875" stroke="#D19A64" stroke-miterlimit="10"/>
<path d="M124.682 172.846L113.683 172.846" stroke="#D19A64" stroke-miterlimit="10"/>
<g filter="url(#filter0_f_488_27645)">
<path d="M168.558 113.229C172.107 114.922 176.126 115.604 181.033 116.416L181.05 116.419C189.262 117.776 198.692 119.335 207.846 126.764L207.841 126.773C217.285 134.478 221.946 145.975 220.642 158.317C219.294 171.152 211.663 182.98 201.155 188.437C192.076 193.168 182.485 195.547 173.12 195.547C164.784 195.547 156.633 193.672 149.167 189.894C132.953 181.693 121.653 165.862 116.698 144.848C114.998 148.31 114.303 152.227 113.482 157.009L113.482 157.009L113.479 157.025C112.094 165.074 110.503 174.321 102.92 183.296L102.919 183.296C95.9281 191.535 85.8721 196.063 74.8686 196.063C73.5103 196.063 72.1347 195.993 70.7418 195.851C70.7416 195.851 70.7414 195.851 70.7413 195.851L70.7919 195.353C57.8467 194.048 45.9385 186.653 40.4582 176.516L168.558 113.229ZM168.558 113.229C189.966 108.364 206.113 97.3038 214.472 81.4123C222.667 65.8463 222.104 47.2608 212.995 30.4391C207.424 20.1354 195.357 12.6614 182.272 11.3417C169.681 10.0643 157.948 14.6344 150.085 23.9048L150.084 23.9055C142.502 32.8796 140.91 42.1267 139.525 50.1761L139.522 50.192L139.522 50.1922C138.701 54.9744 138.006 58.8907 136.307 62.3456C131.351 41.3309 120.052 25.4999 103.837 17.2984L103.837 17.2983C87.9618 9.27149 69.0082 9.81332 51.8494 18.7467C41.3413 24.2121 33.7097 36.031 32.353 48.8662L32.353 48.8662C31.0483 61.2178 35.7172 72.7224 45.1757 80.428L45.1764 80.4286C54.3301 87.8571 63.7603 89.4159 71.972 90.7733L71.9888 90.7761C76.9036 91.588 80.9237 92.2699 84.4658 93.963C63.048 98.8274 46.9094 109.888 38.5407 125.78L38.5407 125.78C30.3463 141.346 30.9093 159.932 40.0184 176.753M196.326 140.419C202.445 145.409 203.05 151.991 202.762 155.876L202.697 156.495C201.969 163.436 197.823 170.119 192.718 172.778L192.949 173.221L192.718 172.778C180.645 179.067 168.13 179.526 157.468 174.133C146.153 168.409 138.075 156.776 134.317 140.853C143.438 139.021 151.397 134.051 156.971 127.139C164.15 131.588 171.682 132.843 178.036 133.901L178.036 133.901C185.034 135.06 190.936 136.047 196.326 140.419ZM55.9797 168.436L55.5402 168.674L55.9797 168.435C49.5653 156.608 49.0985 144.354 54.5969 133.912C60.4286 122.841 72.2787 114.927 88.4975 111.236C90.3678 120.195 95.456 128.01 102.528 133.472C98.0303 140.487 96.75 147.839 95.6801 154.044C94.4974 160.902 93.4919 166.681 89.033 171.96C83.6543 178.296 76.4485 178.604 72.6032 178.217C65.511 177.502 58.6897 173.434 55.9797 168.436ZM56.6956 66.7636L56.6948 66.7644C50.2422 61.4956 49.9307 54.4557 50.3247 50.688C51.0531 43.7479 55.1987 37.0641 60.3037 34.406C72.377 28.1255 84.8918 27.6665 95.5538 33.0506C106.869 38.7747 114.947 50.4079 118.705 66.3304C109.584 68.1622 101.625 73.133 96.0514 80.0451C88.872 75.596 81.3402 74.3404 74.9865 73.2825L74.9861 73.2824C67.9876 72.1232 62.0852 71.1367 56.6956 66.7636ZM157.171 54.0698L157.18 54.0789L157.342 53.1392C158.525 46.281 159.53 40.5017 163.99 35.2226C169.368 28.8878 176.564 28.5792 180.419 28.9664C187.503 29.6813 194.332 33.741 197.033 38.7472L197.033 38.7482C203.448 50.5753 203.915 62.8213 198.416 73.2624C192.585 84.3343 180.734 92.2475 164.516 95.9389C162.645 86.9801 157.557 79.1646 150.485 73.7032C154.758 67.0382 156.127 60.0701 157.171 54.0698Z" stroke="#D19A66"/>
</g>
<g filter="url(#filter1_f_488_27645)">
<path d="M203.286 155.704L203.316 155.734L203.424 154.702C203.835 150.779 203.521 143.315 196.681 137.738L196.68 137.738C191.071 133.187 184.923 132.168 177.982 131.018L177.923 131.009L203.286 155.704ZM203.286 155.704C202.255 162.544 198.11 169.048 192.904 171.759C180.589 178.174 167.731 178.679 156.74 173.119L156.966 172.673L156.74 173.119C144.966 167.163 136.699 155.044 132.948 138.667L132.832 138.159L133.344 138.064C142.592 136.334 150.648 131.301 156.189 124.262L156.469 123.907L156.85 124.15C163.95 128.67 171.444 129.93 177.923 131.009L203.286 155.704ZM55.7979 65.6412L55.7971 65.6421C48.9572 60.0649 48.6435 52.6011 49.0538 48.678L49.0538 48.6778C49.8095 41.4766 54.1033 34.4572 59.5655 31.613L59.5657 31.6129C71.8808 25.2066 84.7377 24.7018 95.7285 30.2521L95.7288 30.2522C107.503 36.2086 115.77 48.3273 119.521 64.7049L119.637 65.2123L119.125 65.308C109.877 67.0377 101.821 72.0709 96.2804 79.1095L96.0006 79.4649L95.619 79.222C88.5189 74.7012 81.0252 73.4417 74.5463 72.363L55.7979 65.6412ZM55.7979 65.6412C61.4043 70.1862 67.5495 71.204 74.4878 72.3533L74.5459 72.3629L55.7979 65.6412ZM206.916 125.616L206.912 125.625C216.102 133.112 220.641 144.283 219.371 156.306L219.371 156.307C218.055 168.845 210.596 180.358 200.417 185.644L200.416 185.644C191.472 190.305 182.038 192.641 172.844 192.641C164.659 192.641 156.664 190.8 149.343 187.096L149.117 187.542L149.342 187.096C133.118 178.889 121.839 162.859 117.099 141.417L116.821 140.161L116.178 141.275C113.908 145.204 113.129 149.642 112.22 154.934C110.835 162.984 109.276 171.99 101.881 180.743C95.0863 188.749 85.3131 193.157 74.5922 193.157C73.2687 193.157 71.9267 193.088 70.5662 192.95L70.5657 192.95C57.7606 191.658 46.012 184.343 40.6217 174.372L40.6215 174.371C31.654 157.811 31.1263 139.58 39.1492 124.34C47.5203 108.443 63.868 97.3948 85.7463 92.7385L87.038 92.4636L85.8881 91.8141C81.8725 89.546 77.3189 88.7828 71.8755 87.8834C63.6593 86.5253 54.465 84.997 45.5302 77.7461C36.3401 70.2588 31.8011 59.0884 33.0711 47.0653L206.916 125.616ZM206.916 125.616C197.989 118.381 188.803 116.854 180.594 115.497L180.675 115.004L180.594 115.497C175.159 114.598 170.606 113.834 166.582 111.567L165.43 110.917L166.723 110.642C188.592 105.986 204.949 94.937 213.311 79.0406L213.311 79.0404C221.334 63.8003 220.806 45.5692 211.839 29.0089L211.839 29.0086C206.448 19.0378 194.7 11.722 181.895 10.4306L181.894 10.4306C169.614 9.1847 158.211 13.6388 150.572 22.6449C143.175 31.3986 141.617 40.4046 140.231 48.4556C139.323 53.747 138.543 58.1856 136.273 62.1056L135.63 63.2171L135.353 61.963C130.612 40.521 119.334 24.4911 103.109 16.2847C87.5505 8.41785 68.9379 8.92743 52.0349 17.7277L52.0347 17.7278C41.8556 23.0219 34.3965 34.5266 33.0711 47.0652L206.916 125.616ZM116.246 142.185C114.306 145.86 113.573 150.011 112.713 155.018L116.246 142.185ZM116.246 142.185C116.204 142.002 116.163 141.818 116.122 141.633L116.611 141.525L117.044 141.775C116.952 141.935 116.862 142.095 116.775 142.256L116.246 142.185ZM89.5189 170.701L89.5197 170.7C94.166 165.2 95.2059 159.17 96.3793 152.366L96.3892 152.308C97.4808 145.977 98.7652 138.663 103.341 131.725L103.599 131.333L103.224 131.05C96.0145 125.619 90.8645 117.708 89.1011 108.635L89.0032 108.131L88.5024 108.242C71.8442 111.925 59.5064 120.015 53.4357 131.541L53.8781 131.774L53.4357 131.541C47.7589 142.32 48.2755 154.931 54.8242 167.006C57.7286 172.364 64.8897 176.567 72.2266 177.306C76.2129 177.708 83.8298 177.403 89.5189 170.701ZM156.242 50.1238L156.233 50.1148L156.071 51.0545C154.98 57.3856 153.695 64.7002 149.12 71.6382L148.861 72.0303L149.236 72.3129C156.446 77.7441 161.596 85.6548 163.359 94.728L163.457 95.2316L163.958 95.1208C180.616 91.4381 192.954 83.3479 199.025 71.8223C204.701 61.0427 204.185 48.4409 197.637 36.3664C194.741 30.9988 187.57 26.8049 180.243 26.0654L180.242 26.0654C176.247 25.664 168.639 25.9688 162.95 32.6704L162.95 32.6713C158.505 37.9324 157.36 43.679 156.242 50.1238ZM200.647 186.087C210.991 180.716 218.537 169.046 219.869 156.359L200.647 186.087ZM104.497 101.686C104.497 113.44 114.252 122.995 126.23 122.995C138.199 122.995 147.963 113.44 147.963 101.686C147.963 89.9311 138.199 80.3767 126.23 80.3767C114.261 80.3767 104.497 89.9311 104.497 101.686Z" stroke="#D19A66"/>
</g>
<circle cx="126.129" cy="101.451" r="23.6631" fill="#D19A66"/>
<circle cx="126.129" cy="101.451" r="13.0029" fill="#27292A"/>
<defs>
<filter id="filter0_f_488_27645" x="25.6377" y="4.63086" width="201.72" height="197.933" filterUnits="userSpaceOnUse" color-interpolation-filters="sRGB">
<feFlood flood-opacity="0" result="BackgroundImageFix"/>
<feBlend mode="normal" in="SourceGraphic" in2="BackgroundImageFix" result="shape"/>
<feGaussianBlur stdDeviation="3" result="effect1_foregroundBlur_488_27645"/>
</filter>
<filter id="filter1_f_488_27645" x="31.3613" y="8.72485" width="189.72" height="185.933" filterUnits="userSpaceOnUse" color-interpolation-filters="sRGB">
<feFlood flood-opacity="0" result="BackgroundImageFix"/>
<feBlend mode="normal" in="SourceGraphic" in2="BackgroundImageFix" result="shape"/>
<feGaussianBlur stdDeviation="0.5" result="effect1_foregroundBlur_488_27645"/>
</filter>
</defs>
</svg>
