<svg width="158" height="149" viewBox="0 0 158 149" fill="none" xmlns="http://www.w3.org/2000/svg">
<g clip-path="url(#clip0_488_27774)">
<g filter="url(#filter0_f_488_27774)">
<path fill-rule="evenodd" clip-rule="evenodd" d="M13.7011 140.309V91.0793V83.5819C13.7011 65.9637 27.8421 51.6865 45.2923 51.6865H83.0543C100.505 51.6865 114.646 65.9637 114.646 83.5819V98.5768C114.646 116.195 100.505 130.472 83.0543 130.472H45.2923C41.5354 130.472 37.9365 129.807 34.601 128.593L13.7011 140.309Z" stroke="#D29C67" stroke-width="2"/>
</g>
<g filter="url(#filter1_f_488_27774)">
<path d="M13.8233 140.527L13.4511 140.736V140.309V91.0793V83.5819C13.4511 65.8278 27.7017 51.4365 45.2923 51.4365H83.0543C100.645 51.4365 114.896 65.8278 114.896 83.5819V98.5768C114.896 116.331 100.645 130.722 83.0543 130.722H45.2923C41.5462 130.722 37.9555 130.066 34.6234 128.867L13.8233 140.527Z" stroke="#FEE5D0" stroke-width="0.5"/>
</g>
<path fill-rule="evenodd" clip-rule="evenodd" d="M66.3808 79.0608C59.9526 79.0608 54.8583 84.2357 54.8583 90.4747C54.8583 96.7138 59.9526 101.889 66.3808 101.889C72.809 101.889 77.9033 96.7138 77.9033 90.4747C77.9033 84.2357 72.809 79.0608 66.3808 79.0608ZM44.4229 90.4747C44.4229 78.2875 54.3183 68.5249 66.3808 68.5249C78.4434 68.5249 88.3388 78.2875 88.3388 90.4747C88.3388 102.662 78.4434 112.425 66.3808 112.425C54.3183 112.425 44.4229 102.662 44.4229 90.4747Z" fill="#D29C67"/>
<g filter="url(#filter2_f_488_27774)">
<path d="M145.123 101.751L145.867 102.169V101.315V52.0852V44.5877C145.867 26.6979 131.507 12.1924 113.776 12.1924H76.0141C58.2832 12.1924 43.9229 26.6979 43.9229 44.5877V59.5827C43.9229 77.4725 58.2832 91.978 76.0141 91.978H113.776C117.511 91.978 121.094 91.3311 124.422 90.1469L145.123 101.751Z" stroke="#D29C67"/>
</g>
<path d="M145.245 101.533L145.617 101.742V101.315V52.0852V44.5877C145.617 26.8337 131.367 12.4424 113.776 12.4424H76.0141C58.4235 12.4424 44.1729 26.8337 44.1729 44.5877V59.5827C44.1729 77.3367 58.4235 91.728 76.0141 91.728H113.776C117.522 91.728 121.113 91.0723 124.445 89.8732L145.245 101.533Z" stroke="#D29C67" stroke-width="0.5"/>
<g filter="url(#filter3_f_488_27774)">
<path d="M145.245 101.533L145.617 101.742V101.315V52.0852V44.5877C145.617 26.8337 131.367 12.4424 113.776 12.4424H76.0141C58.4235 12.4424 44.1729 26.8337 44.1729 44.5877V59.5827C44.1729 77.3367 58.4235 91.728 76.0141 91.728H113.776C117.522 91.728 121.113 91.0723 124.445 89.8732L145.245 101.533Z" stroke="#FEE5D0" stroke-width="0.5"/>
</g>
<path fill-rule="evenodd" clip-rule="evenodd" d="M145.367 101.315V52.0852V44.5877C145.367 26.9695 131.226 12.6924 113.776 12.6924H76.0141C58.5639 12.6924 44.4229 26.9695 44.4229 44.5877V59.5827C44.4229 77.2009 58.5639 91.478 76.0141 91.478H113.776C117.533 91.478 121.132 90.8133 124.467 89.5992L145.367 101.315Z" fill="#212324"/>
<g filter="url(#filter4_f_488_27774)">
<rect x="71.8838" y="38.6431" width="46.9" height="10.1347" rx="5.06737" stroke="#FEE5D0" stroke-width="0.5"/>
<rect x="71.8838" y="38.6431" width="46.9" height="10.1347" rx="5.06737" stroke="#FEE5D0" stroke-width="0.5"/>
</g>
<g filter="url(#filter5_f_488_27774)">
<rect x="71.3838" y="57.6401" width="47.9" height="11.1347" rx="5.56737" stroke="#FEE5D0" stroke-width="0.5"/>
<rect x="71.3838" y="57.6401" width="47.9" height="11.1347" rx="5.56737" stroke="#D29C67" stroke-width="0.5"/>
</g>
<rect x="71.6338" y="38.3931" width="47.4" height="10.6347" rx="5.31737" stroke="#FEE5D0" stroke-width="0.5"/>
<rect x="71.6338" y="38.3931" width="47.4" height="10.6347" rx="5.31737" stroke="#D29C67" stroke-width="0.5"/>
<rect x="71.8838" y="58.1401" width="46.9" height="10.1347" rx="5.06737" stroke="#D29C67" stroke-width="0.5"/>
<rect x="71.8838" y="58.1401" width="46.9" height="10.1347" rx="5.06737" stroke="#D29C67" stroke-width="0.5"/>
</g>
<defs>
<filter id="filter0_f_488_27774" x="6.70117" y="44.6865" width="114.944" height="103.33" filterUnits="userSpaceOnUse" color-interpolation-filters="sRGB">
<feFlood flood-opacity="0" result="BackgroundImageFix"/>
<feBlend mode="normal" in="SourceGraphic" in2="BackgroundImageFix" result="shape"/>
<feGaussianBlur stdDeviation="3" result="effect1_foregroundBlur_488_27774"/>
</filter>
<filter id="filter1_f_488_27774" x="12.7012" y="50.6865" width="102.944" height="90.9761" filterUnits="userSpaceOnUse" color-interpolation-filters="sRGB">
<feFlood flood-opacity="0" result="BackgroundImageFix"/>
<feBlend mode="normal" in="SourceGraphic" in2="BackgroundImageFix" result="shape"/>
<feGaussianBlur stdDeviation="0.25" result="effect1_foregroundBlur_488_27774"/>
</filter>
<filter id="filter2_f_488_27774" x="37.4229" y="5.69238" width="114.944" height="103.33" filterUnits="userSpaceOnUse" color-interpolation-filters="sRGB">
<feFlood flood-opacity="0" result="BackgroundImageFix"/>
<feBlend mode="normal" in="SourceGraphic" in2="BackgroundImageFix" result="shape"/>
<feGaussianBlur stdDeviation="3" result="effect1_foregroundBlur_488_27774"/>
</filter>
<filter id="filter3_f_488_27774" x="40.9229" y="9.19238" width="107.944" height="95.9761" filterUnits="userSpaceOnUse" color-interpolation-filters="sRGB">
<feFlood flood-opacity="0" result="BackgroundImageFix"/>
<feBlend mode="normal" in="SourceGraphic" in2="BackgroundImageFix" result="shape"/>
<feGaussianBlur stdDeviation="1.5" result="effect1_foregroundBlur_488_27774"/>
</filter>
<filter id="filter4_f_488_27774" x="65.6338" y="32.3931" width="59.4004" height="22.6348" filterUnits="userSpaceOnUse" color-interpolation-filters="sRGB">
<feFlood flood-opacity="0" result="BackgroundImageFix"/>
<feBlend mode="normal" in="SourceGraphic" in2="BackgroundImageFix" result="shape"/>
<feGaussianBlur stdDeviation="3" result="effect1_foregroundBlur_488_27774"/>
</filter>
<filter id="filter5_f_488_27774" x="65.1338" y="51.3901" width="60.4004" height="23.6348" filterUnits="userSpaceOnUse" color-interpolation-filters="sRGB">
<feFlood flood-opacity="0" result="BackgroundImageFix"/>
<feBlend mode="normal" in="SourceGraphic" in2="BackgroundImageFix" result="shape"/>
<feGaussianBlur stdDeviation="3" result="effect1_foregroundBlur_488_27774"/>
</filter>
<clipPath id="clip0_488_27774">
<rect width="158" height="148" fill="white" transform="translate(0 0.285156)"/>
</clipPath>
</defs>
</svg>
