<svg width="18" height="18" viewBox="0 0 18 18" fill="none" xmlns="http://www.w3.org/2000/svg">
<path d="M9.99378 9.10862L14.4106 4.69884C14.5426 4.56683 14.6168 4.38778 14.6168 4.20108C14.6168 4.01438 14.5426 3.83533 14.4106 3.70331C14.2786 3.5713 14.0995 3.49713 13.9128 3.49713C13.7261 3.49713 13.5471 3.5713 13.415 3.70331L9.00526 8.1201L4.59549 3.70331C4.46347 3.5713 4.28442 3.49713 4.09772 3.49713C3.91102 3.49713 3.73197 3.5713 3.59996 3.70331C3.46794 3.83533 3.39377 4.01438 3.39377 4.20108C3.39377 4.38778 3.46794 4.56683 3.59996 4.69884L8.01674 9.10862L3.59996 13.5184C3.53424 13.5836 3.48209 13.6611 3.4465 13.7465C3.4109 13.832 3.39258 13.9236 3.39258 14.0162C3.39258 14.1087 3.4109 14.2003 3.4465 14.2858C3.48209 14.3712 3.53424 14.4488 3.59996 14.5139C3.66513 14.5796 3.74267 14.6318 3.8281 14.6674C3.91354 14.703 4.00517 14.7213 4.09772 14.7213C4.19027 14.7213 4.28191 14.703 4.36734 14.6674C4.45277 14.6318 4.53031 14.5796 4.59549 14.5139L9.00526 10.0971L13.415 14.5139C13.4802 14.5796 13.5578 14.6318 13.6432 14.6674C13.7286 14.703 13.8203 14.7213 13.9128 14.7213C14.0054 14.7213 14.097 14.703 14.1824 14.6674C14.2679 14.6318 14.3454 14.5796 14.4106 14.5139C14.4763 14.4488 14.5284 14.3712 14.564 14.2858C14.5996 14.2003 14.6179 14.1087 14.6179 14.0162C14.6179 13.9236 14.5996 13.832 14.564 13.7465C14.5284 13.6611 14.4763 13.5836 14.4106 13.5184L9.99378 9.10862Z" fill="#ABB1B9"/>
</svg>
