<svg width="287" height="242" viewBox="0 0 287 242" fill="none" xmlns="http://www.w3.org/2000/svg">
<g clip-path="url(#clip0_488_27285)">
<g filter="url(#filter0_bf_488_27285)">
<path d="M164.223 77.76C175.292 73.0706 186.573 68.8604 198.093 65.3833C209.605 61.928 221.372 59.1551 233.356 57.8702C239.345 57.2387 245.399 57.0645 251.416 57.6234C254.422 57.9065 257.412 58.451 260.316 59.3003C263.212 60.1568 266.05 61.3618 268.54 63.1258C271.037 64.8679 273.142 67.2271 274.478 69.9783C275.857 72.715 276.438 75.8073 276.459 78.8416C276.459 81.8904 275.93 84.9174 275.059 87.8138C274.209 90.7246 273.033 93.5266 271.69 96.227C268.99 101.642 265.622 106.68 261.971 111.471C258.312 116.262 254.342 120.806 250.19 125.169C241.878 133.894 232.877 141.923 223.535 149.508C204.8 164.629 184.693 178 163.816 189.977C142.889 201.86 121.01 212.161 98.1958 219.906C86.7921 223.746 75.1416 226.955 63.2588 228.98C57.321 229.982 51.3179 230.679 45.2858 230.868C39.2609 231.049 33.178 230.73 27.2692 229.35C24.3294 228.632 21.4331 227.645 18.7546 226.186C17.4189 225.452 16.1414 224.61 14.9654 223.638C13.7968 222.658 12.737 221.54 11.8296 220.306C10.0149 217.838 8.89701 214.883 8.51229 211.856C8.11305 208.829 8.38888 205.751 9.02767 202.797C9.65919 199.828 10.7335 196.982 11.9312 194.217C13.1289 191.436 14.6097 188.801 16.1414 186.21C19.2845 181.063 22.8849 176.207 26.7466 171.59C34.4991 162.371 43.217 154.016 52.3342 146.176C61.4513 138.329 71.0403 131.049 80.8834 124.145C71.0911 131.114 61.553 138.46 52.5011 146.365C43.4566 154.263 34.804 162.669 27.1458 171.917C23.3204 176.541 19.7418 181.368 16.635 186.5C15.1179 189.085 13.6516 191.705 12.4829 194.456C11.2997 197.2 10.2472 200.009 9.63741 202.935C9.02041 205.846 8.75909 208.844 9.15107 211.784C9.52853 214.716 10.6174 217.555 12.3668 219.928C13.2451 221.111 14.2686 222.186 15.401 223.137C16.5406 224.073 17.7891 224.893 19.0885 225.605C21.7017 227.02 24.5399 227.986 27.4362 228.683C33.2578 230.033 39.2827 230.338 45.264 230.142C51.2526 229.938 57.2194 229.234 63.1281 228.225C74.9529 226.178 86.5525 222.955 97.92 219.101C120.648 211.326 142.453 200.997 163.301 189.085C184.156 177.172 204.263 163.888 222.991 148.848C232.333 141.306 241.326 133.321 249.631 124.646C253.775 120.312 257.739 115.797 261.39 111.043C265.034 106.288 268.388 101.294 271.073 95.9439C272.409 93.2725 273.57 90.5069 274.42 87.6468C275.284 84.794 275.806 81.8396 275.813 78.8706C275.799 75.9162 275.247 72.9327 273.919 70.2832C272.634 67.6191 270.616 65.3543 268.199 63.6484C265.782 61.9353 263.009 60.7448 260.163 59.8955C257.303 59.0534 254.349 58.509 251.373 58.2187C245.413 57.6452 239.388 57.8122 233.429 58.4147C221.481 59.6051 209.714 62.2837 198.187 65.6592C186.66 69.0491 175.35 73.1868 164.244 77.789L164.223 77.76Z" fill="url(#paint0_linear_488_27285)"/>
</g>
<path opacity="0.6" d="M164.223 77.76C175.292 73.0706 186.573 68.8604 198.093 65.3833C209.605 61.928 221.372 59.1551 233.356 57.8702C239.345 57.2387 245.399 57.0645 251.416 57.6234C254.422 57.9065 257.412 58.451 260.316 59.3003C263.212 60.1568 266.05 61.3618 268.54 63.1258C271.037 64.8679 273.142 67.2271 274.478 69.9783C275.857 72.715 276.438 75.8073 276.459 78.8416C276.459 81.8904 275.93 84.9174 275.059 87.8138C274.209 90.7246 273.033 93.5266 271.69 96.227C268.99 101.642 265.622 106.68 261.971 111.471C258.312 116.262 254.342 120.806 250.19 125.169C241.878 133.894 232.877 141.923 223.535 149.508C204.8 164.629 184.693 178 163.816 189.977C142.889 201.86 121.01 212.161 98.1958 219.906C86.7921 223.746 75.1416 226.955 63.2588 228.98C57.321 229.982 51.3179 230.679 45.2858 230.868C39.2609 231.049 33.178 230.73 27.2692 229.35C24.3294 228.632 21.4331 227.645 18.7546 226.186C17.4189 225.452 16.1414 224.61 14.9654 223.638C13.7968 222.658 12.737 221.54 11.8296 220.306C10.0149 217.838 8.89701 214.883 8.51229 211.856C8.11305 208.829 8.38888 205.751 9.02767 202.797C9.65919 199.828 10.7335 196.982 11.9312 194.217C13.1289 191.436 14.6097 188.801 16.1414 186.21C19.2845 181.063 22.8849 176.207 26.7466 171.59C34.4991 162.371 43.217 154.016 52.3342 146.176C61.4513 138.329 71.0403 131.049 80.8834 124.145C71.0911 131.114 61.553 138.46 52.5011 146.365C43.4566 154.263 34.804 162.669 27.1458 171.917C23.3204 176.541 19.7418 181.368 16.635 186.5C15.1179 189.085 13.6516 191.705 12.4829 194.456C11.2997 197.2 10.2472 200.009 9.63741 202.935C9.02041 205.846 8.75909 208.844 9.15107 211.784C9.52853 214.716 10.6174 217.555 12.3668 219.928C13.2451 221.111 14.2686 222.186 15.401 223.137C16.5406 224.073 17.7891 224.893 19.0885 225.605C21.7017 227.02 24.5399 227.986 27.4362 228.683C33.2578 230.033 39.2827 230.338 45.264 230.142C51.2526 229.938 57.2194 229.234 63.1281 228.225C74.9529 226.178 86.5525 222.955 97.92 219.101C120.648 211.326 142.453 200.997 163.301 189.085C184.156 177.172 204.263 163.888 222.991 148.848C232.333 141.306 241.326 133.321 249.631 124.646C253.775 120.312 257.739 115.797 261.39 111.043C265.034 106.288 268.388 101.294 271.073 95.9439C272.409 93.2725 273.57 90.5069 274.42 87.6468C275.284 84.794 275.806 81.8396 275.813 78.8706C275.799 75.9162 275.247 72.9327 273.919 70.2832C272.634 67.6191 270.616 65.3543 268.199 63.6484C265.782 61.9353 263.009 60.7448 260.163 59.8955C257.303 59.0534 254.349 58.509 251.373 58.2187C245.413 57.6452 239.388 57.8122 233.429 58.4147C221.481 59.6051 209.714 62.2837 198.187 65.6592C186.66 69.0491 175.35 73.1868 164.244 77.789L164.223 77.76Z" fill="url(#paint1_linear_488_27285)"/>
<g filter="url(#filter1_bf_488_27285)">
<path d="M18.9092 161.607C10.1332 143.736 7.34581 122.844 11.4543 103.18L11.8173 101.336L12.2891 99.5137C12.6085 98.3014 12.9061 97.0819 13.2545 95.8769C14.053 93.496 14.7353 91.0787 15.708 88.7558C17.4574 84.0447 19.7222 79.5441 22.1975 75.1741L24.1356 71.9439C24.7962 70.8768 25.5293 69.8533 26.2189 68.808L27.2714 67.2473C27.6271 66.7319 28.0191 66.2383 28.3966 65.7374L30.6686 62.7249L33.0858 59.8358L34.298 58.3913L35.5829 57.012C36.4394 56.0974 37.2814 55.161 38.1525 54.2536L40.8528 51.6186C48.0827 44.6209 56.3433 38.7483 65.0612 33.7613C73.8517 28.8833 83.1648 24.9561 92.7901 22.0598C102.437 19.2288 112.367 17.3995 122.385 16.5502C123.633 16.405 124.889 16.3905 126.145 16.3034L129.905 16.1074L133.672 16.0566C134.928 16.0493 136.184 15.9985 137.44 16.0566L141.207 16.1654C141.831 16.1872 142.463 16.1945 143.087 16.2308L144.967 16.3687L148.727 16.6445C149.983 16.7389 151.224 16.9276 152.473 17.0583C172.435 19.3594 191.954 25.7183 209.281 35.9318C211.422 37.2457 213.592 38.516 215.654 39.9606C216.692 40.6719 217.752 41.347 218.768 42.0875L221.795 44.3305C222.818 45.0637 223.791 45.8622 224.764 46.6607C225.737 47.4591 226.724 48.2359 227.682 49.0489L230.491 51.5605C230.956 51.9815 231.435 52.388 231.892 52.8236L233.235 54.1447C234.128 55.0303 235.035 55.9014 235.921 56.7943L238.483 59.5672C238.904 60.0318 239.347 60.4819 239.753 60.961L240.966 62.4055C241.764 63.3782 242.584 64.3291 243.361 65.3164C244.856 67.3416 246.432 69.3016 247.796 71.4212C248.486 72.4738 249.226 73.4901 249.88 74.5644L251.825 77.7947C254.315 82.1646 256.601 86.6579 258.394 91.3618C259.389 93.6774 260.093 96.0947 260.92 98.4684C261.269 99.6734 261.588 100.893 261.922 102.105L262.416 103.927L262.808 105.771C263.969 110.664 264.521 115.68 264.855 120.681L264.971 124.448L265 125.392L264.978 126.336L264.927 128.216C264.898 130.728 264.695 133.232 264.419 135.722C263.301 145.696 260.441 155.437 256.18 164.468C254.046 168.983 251.564 173.331 248.769 177.461C245.967 181.584 242.86 185.497 239.499 189.17H239.492C245.974 181.613 251.419 173.186 255.462 164.134C259.49 155.082 262.096 145.405 262.982 135.562C263.185 133.101 263.367 130.64 263.359 128.172L263.388 126.321L263.403 125.399L263.359 124.478L263.192 120.783C262.793 115.876 262.191 110.968 260.986 106.185L260.579 104.385L260.071 102.606C259.723 101.423 259.396 100.24 259.04 99.0636C258.198 96.748 257.48 94.3888 256.478 92.1385C254.663 87.5581 252.362 83.1881 249.872 78.9488L247.927 75.8129C247.274 74.7676 246.541 73.7804 245.851 72.7641C244.494 70.7098 242.918 68.8152 241.438 66.848C238.28 63.0806 235.064 59.3422 231.457 55.9813L230.135 54.6964C229.693 54.2754 229.221 53.8761 228.764 53.4624L225.998 51.0161C225.054 50.2248 224.089 49.4626 223.131 48.6859C222.172 47.9092 221.222 47.1325 220.213 46.4211L217.236 44.2361C216.242 43.5102 215.197 42.8569 214.18 42.1673C212.155 40.7591 210.021 39.525 207.923 38.2474C190.901 28.3171 171.723 22.1614 152.146 19.9909C142.361 18.8948 132.453 18.6117 122.631 19.4393C112.81 20.245 103.069 22.0235 93.6031 24.7601C84.1521 27.5331 74.9986 31.3223 66.346 36.0334L63.1521 37.8917L61.5551 38.8209C61.0325 39.1403 60.5171 39.4887 60.0018 39.8154L56.8949 41.8189C55.8787 42.5157 54.8842 43.2416 53.8825 43.953C51.8428 45.3322 49.9555 46.922 48.0028 48.4173C47.0519 49.1941 46.13 50.0143 45.1936 50.8128L43.7927 52.0178C43.3281 52.4171 42.8926 52.8599 42.4425 53.2809C27.9393 66.5867 17.1816 84.1608 12.9061 103.47C12.652 104.675 12.369 105.88 12.1294 107.092L11.5632 110.751C11.4761 111.36 11.3527 111.97 11.3019 112.587L11.1277 114.431C11.0188 115.665 10.8736 116.892 10.801 118.126C10.5325 123.062 10.605 128.027 11.1495 132.956C11.389 135.424 11.7955 137.87 12.2238 140.309C12.7101 142.741 13.2328 145.166 13.9151 147.554C15.1927 152.352 16.913 157.034 18.9165 161.586L18.9092 161.607Z" fill="url(#paint2_linear_488_27285)"/>
</g>
<g style="mix-blend-mode:lighten" opacity="0.6">
<path d="M18.8848 161.885C10.1088 144.013 7.32139 123.122 11.4299 103.457L11.7929 101.613L12.2647 99.791C12.5841 98.5788 12.8817 97.3593 13.2301 96.1543C14.0286 93.7733 14.7109 91.356 15.6836 89.0332C17.433 84.322 19.6978 79.8214 22.1731 75.4515L24.1112 72.2212C24.7717 71.1541 25.5049 70.1306 26.1945 69.0853L27.247 67.5246C27.6027 67.0092 27.9947 66.5156 28.3722 66.0147L30.6442 63.0023L33.0614 60.1131L34.2736 58.6686L35.5584 57.2894C36.415 56.3747 37.257 55.4383 38.1281 54.5309L40.8284 51.8959C48.0582 44.8982 56.3189 39.0256 65.0368 34.0387C73.8273 29.1606 83.1404 25.2335 92.7657 22.3371C102.413 19.5061 112.343 17.6768 122.36 16.8275C123.609 16.6823 124.865 16.6678 126.12 16.5807L129.88 16.3847L133.648 16.3339C134.904 16.3266 136.159 16.2758 137.415 16.3339L141.182 16.4428C141.807 16.4646 142.438 16.4718 143.063 16.5081L144.943 16.646L148.703 16.9219C149.958 17.0162 151.2 17.205 152.448 17.3356C172.41 19.6368 191.929 25.9957 209.256 36.2091C211.398 37.523 213.568 38.7934 215.63 40.2379C216.668 40.9493 217.727 41.6244 218.744 42.3648L221.771 44.6078C222.794 45.341 223.767 46.1395 224.739 46.938C225.712 47.7365 226.699 48.5132 227.658 49.3262L230.467 51.8378C230.931 52.2589 231.41 52.6654 231.868 53.1009L233.211 54.4221C234.103 55.3077 235.011 56.1787 235.896 57.0716L238.459 59.8446C238.88 60.3091 239.323 60.7592 239.729 61.2383L240.941 62.6828C241.74 63.6556 242.56 64.6065 243.337 65.5937C244.832 67.619 246.407 69.5789 247.772 71.6986C248.462 72.7511 249.202 73.7674 249.855 74.8417L251.801 78.072C254.29 82.4419 256.577 86.9353 258.37 91.6391C259.364 93.9548 260.068 96.372 260.896 98.7457C261.244 99.9507 261.564 101.17 261.898 102.383L262.391 104.205L262.783 106.048C263.945 110.941 264.496 115.957 264.83 120.958L264.946 124.726L264.975 125.67L264.954 126.613L264.903 128.493C264.874 131.005 264.671 133.509 264.395 135.999C263.277 145.973 260.417 155.715 256.156 164.745C254.022 169.26 251.539 173.608 248.745 177.739C245.943 181.862 242.836 185.774 239.475 189.447H239.468C245.95 181.891 251.394 173.463 255.437 164.411C259.466 155.359 262.072 145.683 262.958 135.839C263.161 133.379 263.342 130.918 263.335 128.45L263.364 126.599L263.379 125.677L263.335 124.755L263.168 121.06C262.769 116.153 262.166 111.246 260.961 106.462L260.555 104.662L260.047 102.883C259.698 101.7 259.372 100.517 259.016 99.341C258.174 97.0254 257.455 94.6662 256.454 92.4159C254.639 87.8354 252.338 83.4655 249.848 79.2262L247.903 76.0903C247.249 75.045 246.516 74.0578 245.827 73.0415C244.469 70.9872 242.894 69.0926 241.413 67.1254C238.256 63.3579 235.04 59.6195 231.432 56.2586L230.111 54.9737C229.668 54.5527 229.196 54.1535 228.739 53.7397L225.973 51.2934C225.03 50.5022 224.064 49.74 223.106 48.9633C222.148 48.1866 221.197 47.4098 220.188 46.6984L217.212 44.5135C216.218 43.7876 215.172 43.1343 214.156 42.4447C212.131 41.0364 209.997 39.8024 207.899 38.5248C190.877 28.5944 171.699 22.4387 152.122 20.2683C142.337 19.1722 132.428 18.8891 122.607 19.7166C112.786 20.5224 103.044 22.3008 93.5787 25.0375C84.1276 27.8104 74.9742 31.5997 66.3216 36.3108L63.1277 38.1691L61.5307 39.0982C61.0081 39.4176 60.4927 39.7661 59.9773 40.0927L56.8705 42.0962C55.8543 42.7931 54.8598 43.519 53.8581 44.2304C51.8183 45.6096 49.931 47.1993 47.9784 48.6947C47.0275 49.4714 46.1056 50.2917 45.1692 51.0902L43.7682 52.2952C43.3037 52.6944 42.8681 53.1372 42.4181 53.5582C27.9148 66.864 17.1572 84.4382 12.8817 103.747C12.6276 104.952 12.3445 106.157 12.105 107.369L11.5388 111.028C11.4517 111.638 11.3283 112.248 11.2775 112.865L11.1033 114.708C10.9944 115.942 10.8492 117.169 10.7766 118.403C10.508 123.339 10.5806 128.305 11.125 133.233C11.3646 135.701 11.7711 138.148 12.1994 140.587C12.6857 143.019 13.2083 145.443 13.8907 147.831C15.1682 152.63 16.8886 157.312 18.8921 161.863L18.8848 161.885Z" fill="url(#paint3_linear_488_27285)"/>
</g>
<g style="mix-blend-mode:color-dodge">
<mask id="mask0_488_27285" style="mask-type:luminance" maskUnits="userSpaceOnUse" x="243" y="90" width="44" height="43">
<path d="M269.143 91.2824C280.807 93.7342 288.36 104.787 286.01 115.976C283.66 127.159 272.296 134.242 260.627 131.791C248.963 129.339 241.404 118.286 243.759 107.097C246.103 95.9085 257.473 88.8307 269.143 91.2824Z" fill="white"/>
</mask>
<g mask="url(#mask0_488_27285)">
<path d="M247.979 86.8661L239.522 127.419L281.826 136.241L290.283 95.6885L247.979 86.8661Z" fill="black"/>
<path d="M260.661 131.791C249.472 129.458 242.293 118.495 244.625 107.307C246.958 96.118 257.92 88.9382 269.103 91.2711C280.297 93.604 287.471 104.566 285.138 115.755C282.805 126.944 271.843 134.123 260.655 131.791H260.661Z" fill="black"/>
<path d="M260.679 131.711C249.535 129.39 242.378 118.467 244.706 107.324C247.027 96.1745 257.949 89.0287 269.093 91.3502C280.241 93.6717 287.393 104.594 285.066 115.738C282.744 126.881 271.822 134.033 260.679 131.711Z" fill="black"/>
<path d="M260.696 131.632C249.592 129.316 242.475 118.439 244.785 107.341C247.101 96.2368 257.972 89.1136 269.076 91.4295C280.179 93.7454 287.296 104.623 284.986 115.721C282.67 126.824 271.799 133.948 260.696 131.632Z" fill="black"/>
<path d="M260.712 131.552C249.66 129.248 242.559 118.416 244.864 107.357C247.168 96.2986 258.006 89.2038 269.058 91.5083C280.117 93.8129 287.211 104.645 284.907 115.709C282.602 126.762 271.765 133.862 260.712 131.552Z" fill="#010101"/>
<path d="M260.724 131.473C249.711 129.18 242.645 118.382 244.944 107.369C247.237 96.3556 258.029 89.2891 269.042 91.5823C280.06 93.8812 287.121 104.668 284.828 115.687C282.535 126.7 271.748 133.766 260.73 131.473H260.724Z" fill="#010101"/>
<path d="M260.741 131.394C249.773 129.106 242.73 118.359 245.017 107.391C247.305 96.4235 258.057 89.3853 269.025 91.6728C279.998 93.9604 287.036 104.707 284.749 115.681C282.461 126.649 271.714 133.687 260.741 131.4V131.394Z" fill="#020202"/>
<path d="M260.757 131.314C249.835 129.038 242.82 118.331 245.101 107.403C247.378 96.48 258.085 89.4701 269.007 91.7463C279.935 94.0226 286.945 104.724 284.669 115.653C282.393 126.575 271.691 133.591 260.763 131.314H260.757Z" fill="#020202"/>
<path d="M260.775 131.235C249.893 128.965 242.917 118.308 245.182 107.425C247.452 96.5422 258.108 89.5606 268.991 91.8312C279.874 94.1018 286.855 104.758 284.59 115.641C282.32 126.524 271.664 133.506 260.781 131.235H260.775Z" fill="#020202"/>
<path d="M260.791 131.156C249.954 128.897 243.001 118.28 245.26 107.442C247.519 96.6048 258.136 89.6515 268.973 91.9108C279.816 94.17 286.769 104.787 284.504 115.624C282.245 126.462 271.629 133.415 260.791 131.156Z" fill="#030303"/>
<path d="M260.808 131.077C250.015 128.829 243.091 118.252 245.339 107.459C247.586 96.6613 258.163 89.742 268.955 91.9899C279.753 94.2378 286.678 104.815 284.425 115.613C282.177 126.405 271.6 133.33 260.808 131.082V131.077Z" fill="#030303"/>
<path d="M260.826 130.997C250.073 128.755 243.177 118.223 245.419 107.47C247.661 96.7234 258.193 89.821 268.945 92.0633C279.698 94.3056 286.594 104.837 284.352 115.59C282.11 126.337 271.578 133.24 260.826 130.997Z" fill="#040404"/>
<path d="M260.843 130.918C250.136 128.687 243.268 118.195 245.499 107.487C247.729 96.7801 258.216 89.9117 268.923 92.1426C279.63 94.3736 286.498 104.866 284.268 115.573C282.037 126.275 271.545 133.149 260.837 130.918H260.843Z" fill="#040404"/>
<path d="M260.859 130.839C250.197 128.613 243.352 118.172 245.577 107.504C247.802 96.8422 258.249 90.0021 268.911 92.2217C279.573 94.447 286.418 104.888 284.193 115.556C281.968 126.218 271.521 133.058 260.859 130.839Z" fill="#050505"/>
<path d="M260.876 130.754C250.26 128.54 243.443 118.138 245.656 107.522C247.87 96.9047 258.272 90.0873 268.888 92.3013C279.511 94.5152 286.322 104.917 284.108 115.539C281.894 126.156 271.493 132.974 260.871 130.754H260.876Z" fill="#050505"/>
<path d="M260.894 130.681C250.322 128.478 243.533 118.116 245.736 107.539C247.939 96.9672 258.306 90.1781 268.877 92.3864C279.454 94.5891 286.238 104.951 284.035 115.528C281.832 126.1 271.471 132.889 260.894 130.681Z" fill="#060606"/>
<path d="M260.91 130.601C250.379 128.404 243.624 118.087 245.821 107.555C248.018 97.0291 258.328 90.2683 268.86 92.4653C279.392 94.6622 286.147 104.979 283.955 115.505C281.759 126.037 271.442 132.792 260.91 130.601Z" fill="#070707"/>
<path d="M260.927 130.522C250.441 128.336 243.709 118.059 245.894 107.573C248.08 97.086 258.357 90.3592 268.843 92.5449C279.335 94.7305 286.062 105.008 283.87 115.494C281.685 125.975 271.414 132.708 260.922 130.522H260.927Z" fill="#070707"/>
<path d="M260.944 130.443C250.503 128.269 243.799 118.037 245.979 107.59C248.153 97.1486 258.39 90.4501 268.831 92.6244C279.278 94.8044 285.976 105.031 283.796 115.477C281.622 125.919 271.39 132.617 260.944 130.443Z" fill="#080808"/>
<path d="M260.956 130.363C250.555 128.195 243.879 118.008 246.047 107.606C248.216 97.2104 258.408 90.5346 268.804 92.7032C279.205 94.8719 285.875 105.058 283.707 115.46C281.538 125.856 271.352 132.532 260.95 130.363H260.956Z" fill="#080808"/>
<path d="M260.972 130.284C250.616 128.127 243.969 117.98 246.132 107.624C248.289 97.2674 258.436 90.6255 268.792 92.7828C279.148 94.9402 285.795 105.081 283.632 115.443C281.475 125.8 271.329 132.442 260.972 130.284Z" fill="#090909"/>
<path d="M260.99 130.205C250.679 128.053 244.066 117.957 246.212 107.64C248.363 97.3292 258.459 90.7157 268.77 92.8617C279.081 95.0133 285.7 105.115 283.548 115.426C281.397 125.737 271.295 132.351 260.984 130.205H260.99Z" fill="#0A0A0A"/>
<path d="M261.007 130.125C250.742 127.985 244.151 117.923 246.291 107.657C248.431 97.3915 258.493 90.8006 268.759 92.941C279.03 95.0813 285.615 105.143 283.475 115.409C281.334 125.675 271.278 132.266 261.007 130.125Z" fill="#0A0A0A"/>
<path d="M261.024 130.046C250.803 127.912 244.241 117.901 246.375 107.675C248.504 97.4541 258.521 90.8915 268.747 93.0205C278.973 95.1496 285.535 105.166 283.4 115.392C281.271 125.613 271.255 132.175 261.029 130.046H261.024Z" fill="#0B0B0B"/>
<path d="M261.041 129.967C250.86 127.844 244.326 117.872 246.449 107.692C248.572 97.5164 258.544 90.9821 268.724 93.1054C278.905 95.2288 285.439 105.2 283.316 115.381C281.192 125.562 271.221 132.09 261.041 129.967Z" fill="#0B0B0B"/>
<path d="M261.058 129.888C250.923 127.776 244.417 117.844 246.535 107.709C248.647 97.5731 258.578 91.0727 268.713 93.1848C278.854 95.2968 285.354 105.223 283.242 115.364C281.13 125.494 271.205 132.005 261.064 129.893L261.058 129.888Z" fill="#0C0C0C"/>
<path d="M261.075 129.803C250.985 127.697 244.502 117.816 246.608 107.72C248.714 97.6297 258.601 91.1521 268.696 93.2584C278.786 95.3648 285.264 105.251 283.157 115.347C281.051 125.437 271.165 131.915 261.075 129.809V129.803Z" fill="#0D0D0D"/>
<path d="M261.092 129.723C251.047 127.628 244.598 117.787 246.693 107.737C248.788 97.6916 258.634 91.2422 268.679 93.3373C278.729 95.4323 285.173 105.273 283.078 115.324C280.983 125.369 271.142 131.818 261.092 129.723Z" fill="#0D0D0D"/>
<path d="M261.109 129.644C251.109 127.561 244.683 117.759 246.766 107.754C248.85 97.7488 258.657 91.3334 268.662 93.4171C278.667 95.5008 285.088 105.308 282.999 115.313C280.915 125.313 271.114 131.734 261.109 129.65V129.644Z" fill="#0E0E0E"/>
<path d="M261.125 129.565C251.165 127.487 244.773 117.731 246.851 107.771C248.929 97.8107 258.685 91.4236 268.645 93.496C278.604 95.574 284.997 105.33 282.919 115.29C280.841 125.25 271.085 131.637 261.125 129.565Z" fill="#0F0F0F"/>
<path d="M261.143 129.486C251.228 127.419 244.864 117.708 246.93 107.788C248.997 97.8729 258.713 91.5085 268.628 93.5753C278.548 95.642 284.907 105.359 282.84 115.273C280.773 125.188 271.057 131.552 261.143 129.486Z" fill="#0F0F0F"/>
<path d="M261.154 129.406C251.285 127.351 244.943 117.674 247.004 107.799C249.059 97.9297 258.736 91.5936 268.605 93.649C278.48 95.7101 284.816 105.381 282.755 115.256C280.7 125.126 271.023 131.462 261.154 129.406Z" fill="#101010"/>
<path d="M261.172 129.327C251.342 127.278 245.04 117.646 247.09 107.816C249.14 97.9922 258.765 91.6788 268.595 93.7285C278.424 95.7783 284.732 105.41 282.682 115.24C280.633 125.064 271.001 131.371 261.172 129.327Z" fill="#111111"/>
<path d="M261.189 129.248C251.404 127.21 245.125 117.618 247.163 107.833C249.202 98.0488 258.793 91.7693 268.578 93.8134C278.368 95.8518 284.641 105.444 282.603 115.228C280.564 125.013 270.978 131.292 261.189 129.248Z" fill="#111111"/>
<path d="M261.205 129.169C251.466 127.136 245.215 117.595 247.248 107.85C249.28 98.1112 258.821 91.86 268.56 93.8928C278.299 95.9255 284.556 105.461 282.523 115.206C280.49 124.945 270.944 131.196 261.205 129.163V129.169Z" fill="#121212"/>
<path d="M261.222 129.089C251.528 127.062 245.3 117.566 247.321 107.867C249.343 98.173 258.849 91.9502 268.543 93.9716C278.242 95.993 284.465 105.494 282.444 115.194C280.422 124.893 270.921 131.111 261.222 129.089Z" fill="#131313"/>
<path d="M261.239 129.01C251.585 127 245.39 117.544 247.406 107.89C249.416 98.2353 258.872 92.0464 268.526 94.0566C278.18 96.0667 284.374 105.523 282.358 115.177C280.348 124.825 270.893 131.026 261.239 129.01Z" fill="#141414"/>
<path d="M261.256 128.931C251.648 126.926 245.476 117.516 247.48 107.901C249.485 98.292 258.901 92.1258 268.51 94.1302C278.118 96.1347 284.284 105.551 282.28 115.16C280.276 124.769 270.865 130.935 261.256 128.931Z" fill="#141414"/>
<path d="M261.273 128.851C251.71 126.858 245.572 117.487 247.565 107.918C249.558 98.3541 258.929 92.2162 268.492 94.2093C278.062 96.2025 284.199 105.574 282.201 115.143C280.207 124.706 270.837 130.85 261.267 128.851H261.273Z" fill="#151515"/>
<path d="M261.289 128.772C251.771 126.79 245.662 117.459 247.644 107.935C249.631 98.4167 258.957 92.3014 268.475 94.2888C277.999 96.2763 284.108 105.602 282.121 115.126C280.133 124.644 270.808 130.754 261.284 128.772H261.289Z" fill="#161616"/>
<path d="M261.307 128.693C251.835 126.717 245.748 117.431 247.724 107.952C249.7 98.4788 258.986 92.3975 268.464 94.368C277.943 96.3442 284.024 105.63 282.048 115.109C280.072 124.582 270.786 130.669 261.307 128.693Z" fill="#171717"/>
<path d="M261.323 128.614C251.89 126.649 245.837 117.402 247.808 107.969C249.772 98.5355 259.019 92.4825 268.446 94.4473C277.879 96.4121 283.938 105.653 281.967 115.092C280.003 124.525 270.756 130.578 261.323 128.614Z" fill="#171717"/>
<path d="M261.34 128.535C251.952 126.575 245.922 117.38 247.881 107.986C249.84 98.598 259.041 92.5733 268.429 94.5324C277.817 96.4916 283.847 105.687 281.888 115.081C279.929 124.469 270.728 130.494 261.34 128.535Z" fill="#181818"/>
<path d="M261.358 128.455C252.016 126.508 246.014 117.352 247.967 108.003C249.915 98.6603 259.071 92.6583 268.414 94.6062C277.762 96.554 283.758 105.71 281.81 115.058C279.862 124.401 270.707 130.403 261.358 128.45V128.455Z" fill="#191919"/>
<path d="M261.369 128.376C252.071 126.439 246.098 117.323 248.034 108.02C249.976 98.7167 259.093 92.7486 268.39 94.6908C277.693 96.633 283.661 105.744 281.724 115.047C279.788 124.35 270.672 130.318 261.369 128.376Z" fill="#1A1A1A"/>
<path d="M261.386 128.297C252.129 126.366 246.189 117.295 248.12 108.037C250.051 98.7793 259.122 92.8396 268.379 94.7704C277.637 96.7012 283.577 105.772 281.646 115.03C279.715 124.288 270.644 130.228 261.386 128.297Z" fill="#1A1A1A"/>
<path d="M261.403 128.217C252.191 126.297 246.274 117.266 248.193 108.053C250.113 98.8409 259.144 92.9295 268.356 94.849C277.569 96.7685 283.486 105.8 281.561 115.012C279.641 124.225 270.616 130.136 261.398 128.217H261.403Z" fill="#1B1B1B"/>
<path d="M261.42 128.138C252.253 126.224 246.364 117.238 248.278 108.065C250.192 98.8978 259.178 93.0091 268.345 94.9229C277.517 96.8368 283.4 105.823 281.487 114.996C279.573 124.163 270.593 130.052 261.42 128.138Z" fill="#1C1C1C"/>
<path d="M261.437 128.059C252.315 126.156 246.455 117.216 248.357 108.088C250.26 98.9604 259.201 93.1056 268.322 95.0081C277.45 96.9163 283.304 105.857 281.402 114.985C279.499 124.112 270.559 129.967 261.431 128.065L261.437 128.059Z" fill="#1D1D1D"/>
<path d="M261.453 127.979C252.371 126.088 246.539 117.187 248.436 108.105C250.327 99.0223 259.228 93.1958 268.31 95.087C277.392 96.9782 283.224 105.874 281.328 114.962C279.436 124.044 270.535 129.87 261.453 127.979Z" fill="#1E1E1E"/>
<path d="M261.471 127.9C252.434 126.015 246.636 117.164 248.516 108.122C250.401 99.0846 259.251 93.2864 268.294 95.1663C277.336 97.0462 283.134 105.902 281.249 114.945C279.363 123.982 270.508 129.78 261.471 127.894V127.9Z" fill="#1E1E1E"/>
<path d="M261.488 127.821C252.496 125.947 246.721 117.136 248.595 108.139C250.469 99.1473 259.285 93.3718 268.277 95.2516C277.274 97.1259 283.044 105.936 281.17 114.934C279.296 123.926 270.485 129.701 261.488 127.821Z" fill="#1F1F1F"/>
<path d="M261.504 127.742C252.558 125.879 246.811 117.108 248.68 108.156C250.542 99.2095 259.313 93.4623 268.265 95.3252C277.217 97.1937 282.964 105.959 281.096 114.917C279.233 123.869 270.462 129.61 261.51 127.742H261.504Z" fill="#202020"/>
<path d="M261.523 127.663C252.616 125.805 246.897 117.08 248.754 108.167C250.611 99.2605 259.337 93.5472 268.244 95.4045C277.15 97.2617 282.869 105.987 281.012 114.9C279.155 123.807 270.429 129.52 261.517 127.663H261.523Z" fill="#212121"/>
<path d="M261.539 127.583C252.678 125.737 246.987 117.051 248.839 108.184C250.685 99.3223 259.37 93.6317 268.232 95.4833C277.093 97.3292 282.783 106.015 280.932 114.882C279.086 123.744 270.4 129.434 261.539 127.583Z" fill="#222222"/>
<path d="M261.556 127.498C252.74 125.658 247.072 117.023 248.912 108.201C250.752 99.3846 259.393 93.7223 268.215 95.5626C277.031 97.4028 282.698 106.044 280.858 114.865C279.018 123.682 270.377 129.338 261.556 127.504V127.498Z" fill="#222222"/>
<path d="M261.573 127.425C252.796 125.596 247.168 116.995 248.997 108.218C250.826 99.4418 259.427 93.8135 268.198 95.6424C276.974 97.4713 282.602 106.072 280.773 114.849C278.944 123.626 270.349 129.254 261.573 127.425Z" fill="#232323"/>
<path d="M261.59 127.339C252.859 125.516 247.259 116.966 249.077 108.235C250.9 99.5036 259.45 93.898 268.181 95.7212C276.912 97.5445 282.518 106.1 280.694 114.831C278.877 123.563 270.321 129.163 261.59 127.345V127.339Z" fill="#242424"/>
<path d="M261.607 127.261C252.921 125.449 247.344 116.938 249.156 108.247C250.968 99.5607 259.478 93.989 268.164 95.7952C276.85 97.6072 282.427 106.118 280.615 114.809C278.803 123.495 270.293 129.067 261.607 127.261Z" fill="#252525"/>
<path d="M261.618 127.181C252.977 125.38 247.428 116.915 249.235 108.269C251.035 99.6283 259.5 94.0793 268.146 95.8799C276.792 97.6805 282.336 106.151 280.535 114.798C278.735 123.438 270.27 128.987 261.618 127.181Z" fill="#262626"/>
<path d="M261.636 127.102C253.035 125.307 247.514 116.881 249.309 108.28C251.104 99.6793 259.529 94.1642 268.13 95.9592C276.731 97.7541 282.252 106.18 280.457 114.781C278.662 123.382 270.242 128.897 261.636 127.102Z" fill="#272727"/>
<path d="M261.653 127.023C253.097 125.239 247.61 116.859 249.394 108.297C251.178 99.7417 259.558 94.2493 268.113 96.0329C276.669 97.8165 282.161 106.202 280.377 114.758C278.594 123.314 270.214 128.801 261.653 127.017V127.023Z" fill="#272727"/>
<path d="M261.67 126.943C253.16 125.171 247.696 116.825 249.468 108.314C251.241 99.8037 259.587 94.3396 268.097 96.1176C276.613 97.8955 282.071 106.236 280.299 114.747C278.527 123.257 270.186 128.721 261.67 126.943Z" fill="#282828"/>
<path d="M261.686 126.864C253.221 125.097 247.785 116.802 249.552 108.331C251.318 99.8658 259.614 94.43 268.079 96.1967C276.543 97.9633 281.979 106.259 280.213 114.729C278.446 123.194 270.151 128.63 261.686 126.864Z" fill="#292929"/>
<path d="M261.703 126.785C253.278 125.029 247.87 116.774 249.626 108.348C251.381 99.9228 259.642 94.5209 268.062 96.2762C276.487 98.0316 281.894 106.287 280.139 114.713C278.384 123.138 270.128 128.54 261.703 126.785Z" fill="#2A2A2A"/>
<path d="M261.72 126.705C253.34 124.961 247.961 116.745 249.711 108.365C251.455 99.9848 259.671 94.6056 268.051 96.3553C276.431 98.1049 281.81 106.315 280.06 114.695C278.316 123.076 270.106 128.455 261.72 126.705Z" fill="#2B2B2B"/>
<path d="M261.737 126.626C253.403 124.888 248.046 116.723 249.784 108.382C251.523 100.047 259.693 94.6964 268.028 96.4404C276.363 98.1788 281.719 106.344 279.981 114.684C278.243 123.019 270.072 128.364 261.737 126.626Z" fill="#2C2C2C"/>
<path d="M261.754 126.547C253.464 124.82 248.136 116.695 249.869 108.399C251.596 100.11 259.721 94.7872 268.016 96.5142C276.311 98.2412 281.634 106.367 279.901 114.662C278.174 122.951 270.049 128.274 261.754 126.547Z" fill="#2D2D2D"/>
<path d="M261.771 126.467C253.521 124.746 248.233 116.666 249.954 108.416C251.675 100.166 259.755 94.8717 267.999 96.593C276.249 98.3143 281.543 106.394 279.822 114.644C278.101 122.894 270.021 128.183 261.771 126.467Z" fill="#2D2D2D"/>
<path d="M261.788 126.388C253.583 124.678 248.317 116.638 250.027 108.433C251.737 100.229 259.778 94.9627 267.982 96.6784C276.187 98.3884 281.452 106.429 279.742 114.634C278.032 122.838 269.992 128.104 261.788 126.388Z" fill="#2E2E2E"/>
<path d="M261.805 126.309C253.646 124.611 248.408 116.61 250.113 108.45C251.811 100.291 259.812 95.0534 267.966 96.7577C276.125 98.4564 281.368 106.452 279.664 114.617C277.965 122.776 269.964 128.014 261.805 126.309Z" fill="#2F2F2F"/>
<path d="M261.816 126.23C253.697 124.537 248.488 116.587 250.181 108.467C251.874 100.347 259.829 95.1438 267.943 96.8368C276.057 98.5299 281.272 106.48 279.579 114.599C277.886 122.719 269.93 127.923 261.816 126.23Z" fill="#303030"/>
<path d="M261.833 126.151C253.759 124.469 248.584 116.553 250.265 108.484C251.947 100.41 259.857 95.229 267.931 96.9164C276.006 98.5981 281.186 106.508 279.499 114.583C277.817 122.657 269.913 127.838 261.833 126.151Z" fill="#313131"/>
<path d="M261.85 126.071C253.821 124.395 248.668 116.53 250.339 108.495C252.015 100.466 259.88 95.3135 267.909 96.9896C275.937 98.6656 281.09 106.531 279.42 114.565C277.744 122.594 269.879 127.747 261.85 126.071Z" fill="#323232"/>
<path d="M261.867 125.992C253.884 124.327 248.759 116.502 250.424 108.518C252.089 100.534 259.914 95.4096 267.898 97.0743C275.881 98.739 281.006 106.564 279.341 114.548C277.676 122.532 269.851 127.656 261.867 125.992Z" fill="#333333"/>
<path d="M261.884 125.913C253.946 124.26 248.844 116.474 250.498 108.53C252.151 100.586 259.936 95.4951 267.881 97.1485C275.825 98.8076 280.921 106.588 279.267 114.532C277.614 122.476 269.834 127.572 261.884 125.913Z" fill="#343434"/>
<path d="M261.901 125.834C254.002 124.186 248.935 116.451 250.582 108.552C252.23 100.653 259.965 95.5857 267.863 97.2334C275.762 98.8811 280.83 106.616 279.182 114.515C277.534 122.414 269.8 127.476 261.901 125.834Z" fill="#353535"/>
<path d="M261.918 125.754C254.065 124.118 249.026 116.423 250.668 108.569C252.304 100.715 259.993 95.6759 267.852 97.3123C275.706 98.9487 280.745 106.649 279.109 114.503C277.472 122.357 269.778 127.396 261.924 125.76L261.918 125.754Z" fill="#363636"/>
<path d="M261.935 125.675C254.127 124.05 249.11 116.394 250.741 108.586C252.372 100.778 260.021 95.7667 267.83 97.3974C275.638 99.0282 280.654 106.672 279.024 114.486C277.399 122.295 269.743 127.306 261.935 125.675Z" fill="#363636"/>
<path d="M261.952 125.596C254.184 123.977 249.207 116.372 250.826 108.603C252.445 100.835 260.05 95.852 267.818 97.4714C275.587 99.0908 280.57 106.707 278.95 114.47C277.331 122.238 269.721 127.215 261.958 125.596H261.952Z" fill="#373737"/>
<path d="M261.969 125.517C254.246 123.908 249.292 116.338 250.9 108.615C252.508 100.891 260.078 95.9367 267.796 97.5504C275.519 99.1585 280.473 106.723 278.865 114.452C277.257 122.17 269.692 127.13 261.969 125.517Z" fill="#383838"/>
<path d="M261.986 125.437C254.308 123.835 249.382 116.315 250.984 108.632C252.586 100.954 260.106 96.0273 267.784 97.6298C275.462 99.2322 280.393 106.752 278.791 114.435C277.189 122.114 269.669 127.04 261.986 125.437Z" fill="#393939"/>
<path d="M262.004 125.358C254.372 123.767 249.468 116.287 251.059 108.648C252.65 101.015 260.13 96.1175 267.769 97.7086C275.401 99.2997 280.305 106.78 278.713 114.418C277.122 122.051 269.643 126.949 262.004 125.358Z" fill="#3A3A3A"/>
<path d="M262.02 125.279C254.427 123.699 249.558 116.259 251.143 108.665C252.723 101.072 260.163 96.2027 267.75 97.7881C275.343 99.3679 280.213 106.808 278.627 114.401C277.048 121.994 269.607 126.864 262.02 125.279Z" fill="#3B3B3B"/>
<path d="M262.032 125.2C254.484 123.626 249.643 116.231 251.217 108.683C252.791 101.135 260.186 96.2936 267.728 97.8677C275.275 99.4418 280.122 106.837 278.548 114.385C276.974 121.932 269.579 126.774 262.032 125.2Z" fill="#3C3C3C"/>
<path d="M262.054 125.114C254.551 123.551 249.739 116.202 251.301 108.699C252.864 101.197 260.214 96.3838 267.716 97.9466C275.218 99.515 280.031 106.865 278.468 114.367C276.906 121.87 269.556 126.683 262.054 125.12V125.114Z" fill="#3D3D3D"/>
<path d="M262.065 125.035C254.608 123.478 249.824 116.174 251.381 108.717C252.938 101.254 260.242 96.469 267.699 98.0261C275.162 99.5832 279.947 106.888 278.389 114.351C276.832 121.808 269.528 126.592 262.071 125.035H262.065Z" fill="#3E3E3E"/>
<path d="M262.081 124.955C254.664 123.41 249.908 116.145 251.454 108.727C252.999 101.315 260.264 96.5589 267.681 98.1047C275.099 99.6505 279.855 106.915 278.309 114.333C276.764 121.75 269.499 126.501 262.081 124.955Z" fill="#3F3F3F"/>
<path d="M262.1 124.877C254.728 123.342 250 116.117 251.534 108.745C253.069 101.372 260.294 96.6444 267.666 98.1789C275.038 99.7134 279.766 106.938 278.231 114.311C276.697 121.683 269.478 126.411 262.1 124.871V124.877Z" fill="#404040"/>
<path d="M262.117 124.798C254.79 123.269 250.085 116.089 251.613 108.762C253.142 101.435 260.322 96.7352 267.649 98.2641C274.976 99.7929 279.681 106.973 278.152 114.3C276.623 121.627 269.449 126.326 262.117 124.798Z" fill="#414141"/>
<path d="M262.134 124.718C254.852 123.2 250.181 116.066 251.698 108.779C253.216 101.491 260.35 96.8198 267.632 98.3373C274.919 99.8548 279.59 106.995 278.073 114.282C276.555 121.57 269.421 126.235 262.134 124.718Z" fill="#424242"/>
<path d="M262.151 124.639C254.909 123.127 250.266 116.038 251.778 108.796C253.289 101.554 260.379 96.9106 267.615 98.4224C274.857 99.9343 279.5 107.023 277.994 114.266C276.487 121.502 269.393 126.151 262.151 124.639Z" fill="#434343"/>
<path d="M262.167 124.56C254.97 123.059 250.356 116.01 251.856 108.813C253.357 101.616 260.406 97.0013 267.603 98.5018C274.799 100.002 279.42 107.052 277.919 114.249C276.419 121.445 269.369 126.06 262.173 124.56H262.167Z" fill="#444444"/>
<path d="M262.184 124.486C255.033 122.997 250.447 115.987 251.936 108.835C253.425 101.684 260.435 97.0973 267.586 98.5865C274.737 100.076 279.329 107.086 277.84 114.237C276.351 121.389 269.341 125.975 262.19 124.486H262.184Z" fill="#454545"/>
<path d="M262.202 124.407C255.096 122.923 250.533 115.958 252.016 108.852C253.5 101.74 260.464 97.1823 267.57 98.6658C274.682 100.149 279.24 107.114 277.756 114.22C276.273 121.326 269.314 125.89 262.202 124.407Z" fill="#454545"/>
<path d="M262.218 124.322C255.152 122.849 250.622 115.93 252.1 108.863C253.572 101.797 260.491 97.2671 267.552 98.7393C274.618 100.211 279.148 107.136 277.676 114.203C276.204 121.264 269.285 125.799 262.218 124.322Z" fill="#464646"/>
<path d="M262.236 124.242C255.22 122.781 250.707 115.902 252.174 108.88C253.635 101.859 260.52 97.3576 267.535 98.8242C274.557 100.291 279.064 107.165 277.597 114.186C276.136 121.207 269.257 125.714 262.236 124.242Z" fill="#474747"/>
<path d="M262.252 124.163C255.276 122.708 250.798 115.873 252.253 108.898C253.708 101.922 260.542 97.4427 267.518 98.8979C274.494 100.353 278.973 107.187 277.517 114.169C276.062 121.145 269.228 125.618 262.252 124.163Z" fill="#484848"/>
<path d="M262.27 124.084C255.339 122.64 250.889 115.845 252.332 108.915C253.776 101.984 260.571 97.5392 267.501 98.9831C274.438 100.427 278.882 107.222 277.439 114.152C275.995 121.083 269.2 125.534 262.27 124.084Z" fill="#494949"/>
<path d="M262.28 124.004C255.39 122.566 250.973 115.817 252.411 108.931C253.849 102.04 260.593 97.618 267.484 99.0563C274.375 100.494 278.791 107.244 277.359 114.135C275.921 121.02 269.171 125.443 262.286 124.004H262.28Z" fill="#4A4A4A"/>
<path d="M262.298 123.925C255.452 122.498 251.064 115.794 252.491 108.949C253.918 102.103 260.622 97.7146 267.467 99.1415C274.313 100.568 278.707 107.273 277.28 114.118C275.853 120.964 269.143 125.352 262.303 123.925H262.298Z" fill="#4B4B4B"/>
<path d="M262.315 123.846C255.514 122.431 251.149 115.766 252.57 108.966C253.986 102.165 260.65 97.7998 267.45 99.221C274.256 100.637 278.616 107.301 277.201 114.107C275.785 120.908 269.121 125.273 262.32 123.852L262.315 123.846Z" fill="#4C4C4C"/>
<path d="M262.332 123.767C255.577 122.357 251.24 115.738 252.65 108.977C254.06 102.222 260.679 97.8843 267.434 99.2942C274.194 100.704 278.526 107.323 277.122 114.084C275.712 120.839 269.093 125.177 262.332 123.767Z" fill="#4D4D4D"/>
<path d="M262.348 123.687C255.632 122.289 251.329 115.715 252.728 108.994C254.126 102.278 260.7 97.9747 267.415 99.3733C274.131 100.772 278.44 107.352 277.041 114.067C275.642 120.782 269.063 125.086 262.348 123.687Z" fill="#4E4E4E"/>
<path d="M262.365 123.608C255.695 122.215 251.42 115.687 252.813 109.017C254.206 102.346 260.734 98.0658 267.404 99.4587C274.074 100.852 278.355 107.386 276.968 114.056C275.575 120.726 269.046 125.001 262.371 123.608H262.365Z" fill="#4F4F4F"/>
<path d="M262.383 123.529C255.758 122.147 251.506 115.658 252.887 109.028C254.269 102.403 260.758 98.1503 267.383 99.5319C274.007 100.914 278.26 107.403 276.878 114.033C275.496 120.658 269.008 124.91 262.383 123.529Z" fill="#505050"/>
<path d="M262.399 123.45C255.82 122.079 251.596 115.63 252.972 109.05C254.342 102.471 260.791 98.2466 267.371 99.6169C273.956 100.987 278.174 107.437 276.804 114.022C275.434 120.601 268.984 124.825 262.405 123.45H262.399Z" fill="#515151"/>
<path d="M262.416 123.37C255.877 122.006 251.681 115.602 253.046 109.062C254.41 102.522 260.814 98.3316 267.348 99.6962C273.888 101.061 278.084 107.459 276.719 114.005C275.355 120.539 268.951 124.735 262.411 123.37H262.416Z" fill="#525252"/>
<path d="M262.434 123.291C255.94 121.938 251.778 115.574 253.131 109.079C254.484 102.584 260.843 98.4169 267.338 99.7702C273.832 101.123 278 107.488 276.646 113.983C275.293 120.477 268.929 124.639 262.434 123.286V123.291Z" fill="#535353"/>
<path d="M262.45 123.212C256.001 121.87 251.862 115.551 253.21 109.096C254.551 102.647 260.87 98.5074 267.32 99.8551C273.775 101.203 277.908 107.516 276.566 113.971C275.224 120.421 268.905 124.56 262.45 123.212Z" fill="#545454"/>
<path d="M262.467 123.132C256.064 121.796 251.953 115.522 253.289 109.113C254.625 102.708 260.899 98.5976 267.303 99.9339C273.713 101.27 277.823 107.544 276.487 113.954C275.151 120.358 268.877 124.469 262.467 123.132Z" fill="#555555"/>
<path d="M262.479 123.053C256.115 121.728 252.038 115.494 253.363 109.13C254.688 102.771 260.922 98.6885 267.281 100.013C273.645 101.338 277.727 107.573 276.403 113.937C275.078 120.302 268.843 124.378 262.479 123.053Z" fill="#565656"/>
<path d="M262.496 122.974C256.177 121.655 252.123 115.466 253.442 109.147C254.762 102.828 260.95 98.7737 267.264 100.093C273.583 101.412 277.637 107.601 276.323 113.92C275.01 120.234 268.815 124.294 262.496 122.974Z" fill="#575757"/>
<path d="M262.513 122.889C256.239 121.581 252.213 115.437 253.521 109.158C254.829 102.884 260.978 98.8583 267.252 100.166C273.525 101.474 277.557 107.623 276.249 113.897C274.941 120.171 268.792 124.191 262.518 122.883L262.513 122.889Z" fill="#585858"/>
<path d="M262.53 122.815C256.301 121.519 252.304 115.409 253.601 109.181C254.897 102.952 261.007 98.9545 267.235 100.251C273.469 101.548 277.467 107.657 276.164 113.886C274.868 120.115 268.758 124.112 262.53 122.815Z" fill="#595959"/>
<path d="M262.547 122.73C256.364 121.439 252.389 115.381 253.68 109.192C254.971 103.003 261.035 99.0336 267.218 100.325C273.407 101.616 277.376 107.674 276.085 113.863C274.794 120.046 268.73 124.016 262.547 122.725V122.73Z" fill="#5A5A5A"/>
<path d="M262.563 122.657C256.42 121.377 252.479 115.358 253.759 109.215C255.038 103.071 261.057 99.1302 267.201 100.41C273.344 101.69 277.285 107.709 276.005 113.852C274.726 119.996 268.707 123.937 262.563 122.657Z" fill="#5B5B5B"/>
<path d="M262.581 122.572C256.483 121.298 252.57 115.33 253.844 109.226C255.118 103.128 261.086 99.2152 267.184 100.484C273.288 101.758 277.195 107.731 275.927 113.835C274.653 119.934 268.685 123.846 262.581 122.572Z" fill="#5C5C5C"/>
<path d="M262.598 122.493C256.545 121.23 252.655 115.302 253.918 109.243C255.18 103.19 261.114 99.3001 267.167 100.563C273.226 101.831 277.11 107.76 275.847 113.818C274.585 119.871 268.656 123.761 262.598 122.493Z" fill="#5E5E5E"/>
<path d="M262.614 122.413C256.601 121.162 252.745 115.273 254.002 109.26C255.254 103.252 261.142 99.3905 267.15 100.647C273.163 101.899 277.019 107.788 275.768 113.801C274.516 119.814 268.628 123.665 262.614 122.413Z" fill="#5F5F5F"/>
<path d="M262.632 122.334C256.664 121.088 252.836 115.244 254.076 109.276C255.322 103.308 261.165 99.4806 267.133 100.726C273.101 101.972 276.929 107.816 275.689 113.784C274.443 119.746 268.599 123.579 262.632 122.334Z" fill="#606060"/>
<path d="M262.649 122.261C256.726 121.026 252.927 115.223 254.161 109.3C255.396 103.377 261.199 99.5777 267.122 100.812C273.05 102.046 276.85 107.856 275.615 113.773C274.381 119.696 268.577 123.495 262.655 122.261H262.649Z" fill="#616161"/>
<path d="M262.666 122.181C256.789 120.958 253.012 115.194 254.235 109.311C255.458 103.433 261.222 99.6622 267.099 100.885C272.982 102.114 276.753 107.873 275.53 113.756C274.307 119.633 268.543 123.404 262.66 122.181H262.666Z" fill="#626262"/>
<path d="M262.683 122.102C256.851 120.885 253.103 115.166 254.32 109.328C255.538 103.49 261.256 99.7472 267.088 100.965C272.926 102.182 276.669 107.895 275.452 113.739C274.234 119.571 268.515 123.319 262.678 122.102H262.683Z" fill="#636363"/>
<path d="M262.699 122.017C256.907 120.811 253.187 115.137 254.393 109.345C255.599 103.552 261.278 99.8378 267.071 101.044C272.863 102.25 276.583 107.924 275.371 113.722C274.165 119.514 268.486 123.223 262.694 122.017H262.699Z" fill="#646464"/>
<path d="M262.711 121.944C256.964 120.743 253.278 115.115 254.473 109.362C255.673 103.615 261.301 99.9285 267.049 101.123C272.801 102.324 276.482 107.952 275.287 113.705C274.087 119.452 268.458 123.144 262.711 121.944Z" fill="#656565"/>
<path d="M262.727 121.859C257.026 120.669 253.362 115.081 254.551 109.379C255.74 103.677 261.329 100.013 267.031 101.203C272.738 102.392 276.396 107.98 275.207 113.688C274.018 119.39 268.429 123.048 262.722 121.859H262.727Z" fill="#666666"/>
<path d="M262.745 121.785C257.083 120.602 253.453 115.058 254.631 109.396C255.809 103.74 261.358 100.104 267.014 101.282C272.676 102.46 276.306 108.009 275.128 113.671C273.95 119.334 268.401 122.963 262.745 121.785Z" fill="#676767"/>
<path d="M262.761 121.7C257.144 120.528 253.543 115.024 254.715 109.413C255.887 103.796 261.385 100.195 267.002 101.367C272.619 102.539 276.226 108.037 275.054 113.654C273.882 119.265 268.384 122.872 262.767 121.7H262.761Z" fill="#686868"/>
<path d="M262.779 121.621C257.208 120.46 253.629 115.001 254.79 109.424C255.951 103.852 261.415 100.279 266.986 101.44C272.558 102.601 276.136 108.059 274.976 113.637C273.815 119.209 268.351 122.781 262.779 121.621Z" fill="#696969"/>
<path d="M262.796 121.541C257.264 120.386 253.719 114.973 254.874 109.441C256.024 103.915 261.437 100.364 266.969 101.52C272.501 102.675 276.045 108.088 274.896 113.62C273.747 119.146 268.328 122.697 262.796 121.541Z" fill="#6A6A6A"/>
<path d="M262.813 121.462C257.326 120.318 253.81 114.945 254.948 109.458C256.092 103.971 261.465 100.455 266.952 101.599C272.439 102.742 275.955 108.116 274.817 113.603C273.673 119.084 268.3 122.606 262.813 121.462Z" fill="#6B6B6B"/>
<path d="M262.829 121.383C257.388 120.25 253.9 114.922 255.033 109.475C256.165 104.033 261.493 100.546 266.935 101.678C272.376 102.81 275.87 108.144 274.737 113.586C273.605 119.027 268.271 122.515 262.829 121.383Z" fill="#6C6C6C"/>
<path d="M262.847 121.304C257.45 120.177 253.985 114.894 255.112 109.492C256.239 104.096 261.522 100.631 266.918 101.757C272.319 102.884 275.779 108.167 274.652 113.569C273.525 118.965 268.243 122.431 262.841 121.304H262.847Z" fill="#6D6D6D"/>
<path d="M262.864 121.225C257.513 120.109 254.076 114.866 255.192 109.509C256.307 104.158 261.55 100.721 266.907 101.837C272.263 102.952 275.694 108.196 274.579 113.552C273.463 118.903 268.22 122.34 262.864 121.225Z" fill="#6E6E6E"/>
<path d="M262.881 121.145C257.576 120.041 254.167 114.838 255.271 109.526C256.375 104.221 261.579 100.812 266.89 101.916C272.201 103.026 275.604 108.224 274.5 113.535C273.396 118.841 268.192 122.249 262.881 121.14V121.145Z" fill="#6F6F6F"/>
<path d="M262.897 121.066C257.637 119.967 254.257 114.809 255.35 109.543C256.448 104.277 261.606 100.897 266.872 101.995C272.138 103.094 275.518 108.252 274.42 113.518C273.322 118.778 268.163 122.164 262.897 121.066Z" fill="#717171"/>
<path d="M262.915 120.987C257.694 119.899 254.342 114.786 255.429 109.56C256.516 104.339 261.635 100.987 266.856 102.075C272.076 103.162 275.428 108.28 274.341 113.501C273.254 118.722 268.135 122.068 262.915 120.981V120.987Z" fill="#727272"/>
<path d="M262.932 120.907C257.757 119.826 254.433 114.758 255.509 109.577C256.59 104.401 261.664 101.078 266.839 102.159C272.02 103.241 275.338 108.308 274.262 113.489C273.181 118.665 268.113 121.989 262.932 120.907Z" fill="#737373"/>
<path d="M262.943 120.828C257.813 119.758 254.512 114.73 255.582 109.594C256.652 104.458 261.686 101.169 266.816 102.239C271.952 103.309 275.247 108.337 274.177 113.473C273.107 118.603 268.079 121.898 262.943 120.828Z" fill="#747474"/>
<path d="M262.961 120.749C257.87 119.69 254.603 114.702 255.662 109.611C256.721 104.526 261.709 101.259 266.8 102.318C271.89 103.377 275.157 108.365 274.098 113.456C273.039 118.546 268.051 121.808 262.961 120.749Z" fill="#757575"/>
<path d="M262.977 120.669C257.932 119.616 254.693 114.673 255.747 109.628C256.8 104.583 261.743 101.344 266.788 102.397C271.838 103.45 275.072 108.394 274.024 113.439C272.971 118.484 268.028 121.723 262.983 120.669H262.977Z" fill="#767676"/>
<path d="M262.994 120.59C257.994 119.549 254.778 114.645 255.826 109.645C256.868 104.645 261.771 101.435 266.771 102.477C271.776 103.519 274.987 108.422 273.939 113.422C272.897 118.422 267.994 121.632 262.994 120.59Z" fill="#777777"/>
<path d="M263.011 120.511C258.051 119.475 254.874 114.617 255.905 109.662C256.935 104.708 261.794 101.52 266.754 102.562C271.714 103.598 274.896 108.45 273.86 113.411C272.829 118.365 267.971 121.553 263.011 120.517V120.511Z" fill="#787878"/>
<path d="M263.028 120.432C258.119 119.407 254.959 114.588 255.984 109.673C257.009 104.764 261.827 101.604 266.736 102.629C271.651 103.654 274.805 108.473 273.78 113.388C272.755 118.297 267.937 121.456 263.022 120.432H263.028Z" fill="#797979"/>
<path d="M263.044 120.353C258.175 119.339 255.049 114.566 256.063 109.69C257.076 104.821 261.85 101.695 266.719 102.709C271.589 103.722 274.714 108.496 273.701 113.371C272.687 118.241 267.914 121.366 263.044 120.353Z" fill="#7A7A7A"/>
<path d="M263.062 120.267C258.237 119.259 255.14 114.531 256.142 109.707C257.15 104.883 261.878 101.785 266.702 102.788C271.532 103.796 274.624 108.524 273.622 113.354C272.614 118.178 267.891 121.275 263.062 120.267Z" fill="#7B7B7B"/>
<path d="M263.079 120.188C258.3 119.192 255.225 114.509 256.222 109.724C257.218 104.94 261.907 101.876 266.685 102.873C271.47 103.869 274.539 108.552 273.542 113.337C272.546 118.116 267.863 121.185 263.079 120.188Z" fill="#7D7D7D"/>
<path d="M263.096 120.109C258.356 119.124 255.321 114.48 256.307 109.741C257.292 105.007 261.935 101.961 266.674 102.946C271.413 103.932 274.454 108.58 273.469 113.32C272.484 118.059 267.841 121.094 263.101 120.109H263.096Z" fill="#7E7E7E"/>
<path d="M263.113 120.029C258.419 119.05 255.406 114.452 256.386 109.752C257.366 105.058 261.963 102.046 266.657 103.026C271.357 104.005 274.363 108.603 273.39 113.303C272.41 117.997 267.812 121.009 263.118 120.029H263.113Z" fill="#7F7F7F"/>
<path d="M263.13 119.956C258.481 118.988 255.497 114.43 256.466 109.775C257.434 105.127 261.992 102.143 266.641 103.111C271.295 104.079 274.279 108.637 273.305 113.292C272.337 117.94 267.779 120.924 263.124 119.956H263.13Z" fill="#808080"/>
<path d="M263.147 119.877C258.544 118.914 255.588 114.402 256.545 109.792C257.508 105.189 262.02 102.233 266.624 103.19C271.233 104.153 274.188 108.666 273.226 113.275C272.263 117.878 267.751 120.834 263.142 119.877H263.147Z" fill="#818181"/>
<path d="M263.159 119.797C258.595 118.846 255.668 114.373 256.619 109.809C257.57 105.245 262.038 102.318 266.601 103.269C271.165 104.22 274.098 108.688 273.141 113.257C272.19 117.815 267.717 120.748 263.153 119.797H263.159Z" fill="#828282"/>
<path d="M263.175 119.718C258.657 118.778 255.757 114.345 256.697 109.826C257.637 105.308 262.065 102.409 266.584 103.349C271.102 104.288 274.007 108.722 273.061 113.241C272.116 117.759 267.688 120.658 263.169 119.718H263.175Z" fill="#838383"/>
<path d="M263.191 119.639C258.718 118.705 255.847 114.317 256.776 109.843C257.71 105.37 262.093 102.494 266.566 103.428C271.045 104.362 273.91 108.745 272.981 113.224C272.047 117.697 267.664 120.573 263.191 119.639Z" fill="#848484"/>
<path d="M263.209 119.554C258.781 118.631 255.933 114.288 256.856 109.854C257.779 105.426 262.122 102.578 266.556 103.501C270.989 104.424 273.831 108.767 272.909 113.201C271.986 117.628 267.643 120.471 263.209 119.548V119.554Z" fill="#858585"/>
<path d="M263.226 119.475C258.838 118.558 256.024 114.26 256.935 109.872C257.847 105.489 262.144 102.669 266.533 103.586C270.921 104.504 273.735 108.801 272.823 113.19C271.912 117.578 267.614 120.392 263.22 119.475H263.226Z" fill="#878787"/>
<path d="M263.243 119.395C258.9 118.489 256.114 114.231 257.015 109.888C257.921 105.545 262.179 102.759 266.521 103.659C270.87 104.565 273.656 108.824 272.744 113.166C271.838 117.509 267.586 120.295 263.237 119.389L263.243 119.395Z" fill="#888888"/>
<path d="M263.26 119.316C258.963 118.422 256.2 114.209 257.1 109.905C257.994 105.608 262.207 102.85 266.51 103.745C270.814 104.64 273.571 108.852 272.676 113.156C271.782 117.453 267.564 120.211 263.266 119.316H263.26Z" fill="#898989"/>
<path d="M263.278 119.237C259.025 118.348 256.29 114.181 257.179 109.923C258.068 105.67 262.236 102.935 266.488 103.824C270.746 104.713 273.475 108.881 272.586 113.139C271.697 117.391 267.53 120.126 263.272 119.237H263.278Z" fill="#8A8A8A"/>
<path d="M263.294 119.157C259.087 118.28 256.38 114.152 257.258 109.939C258.136 105.727 262.263 103.026 266.47 103.903C270.683 104.781 273.384 108.909 272.506 113.121C271.629 117.334 267.501 120.035 263.288 119.157H263.294Z" fill="#8B8B8B"/>
<path d="M263.311 119.078C259.144 118.212 256.466 114.124 257.338 109.957C258.204 105.789 262.292 103.111 266.459 103.983C270.627 104.849 273.305 108.943 272.433 113.11C271.567 117.278 267.479 119.95 263.311 119.084V119.078Z" fill="#8C8C8C"/>
<path d="M263.328 118.999C259.206 118.139 256.561 114.096 257.416 109.974C258.277 105.851 262.314 103.201 266.442 104.062C270.57 104.923 273.214 108.96 272.353 113.088C271.493 117.21 267.455 119.86 263.328 118.999Z" fill="#8D8D8D"/>
<path d="M263.346 118.92C259.269 118.071 256.647 114.073 257.497 109.991C258.346 105.914 262.344 103.292 266.426 104.142C270.508 104.991 273.13 108.989 272.275 113.071C271.426 117.148 267.428 119.77 263.346 118.92Z" fill="#8E8E8E"/>
<path d="M263.362 118.841C259.325 117.997 256.738 114.045 257.576 110.007C258.414 105.97 262.371 103.383 266.409 104.221C270.446 105.064 273.039 109.017 272.195 113.059C271.352 117.097 267.399 119.684 263.362 118.846V118.841Z" fill="#909090"/>
<path d="M263.379 118.762C259.387 117.929 256.822 114.017 257.655 110.025C258.487 106.033 262.4 103.468 266.392 104.3C270.383 105.132 272.948 109.045 272.116 113.043C271.284 117.035 267.371 119.594 263.379 118.762Z" fill="#919191"/>
<path d="M263.391 118.682C259.444 117.861 256.908 113.993 257.729 110.041C258.55 106.094 262.422 103.558 266.369 104.379C270.316 105.2 272.852 109.073 272.026 113.025C271.205 116.972 267.332 119.503 263.385 118.682H263.391Z" fill="#929292"/>
<path d="M263.407 118.603C259.506 117.787 256.997 113.965 257.807 110.058C258.623 106.157 262.45 103.649 266.351 104.458C270.258 105.274 272.761 109.101 271.946 113.008C271.13 116.91 267.308 119.418 263.401 118.603H263.407Z" fill="#939393"/>
<path d="M263.424 118.523C259.563 117.719 257.083 113.937 257.892 110.075C258.697 106.213 262.485 103.739 266.34 104.543C270.202 105.347 272.682 109.129 271.872 112.991C271.068 116.853 267.286 119.327 263.424 118.523Z" fill="#949494"/>
<path d="M263.441 118.444C259.625 117.646 257.179 113.908 257.971 110.092C258.764 106.276 262.501 103.83 266.323 104.622C270.139 105.421 272.591 109.158 271.793 112.974C270.994 116.791 267.257 119.237 263.441 118.444Z" fill="#959595"/>
<path d="M263.459 118.365C259.688 117.578 257.265 113.88 258.052 110.104C258.839 106.333 262.536 103.909 266.313 104.696C270.089 105.483 272.507 109.181 271.72 112.957C270.933 116.729 267.236 119.152 263.465 118.365H263.459Z" fill="#979797"/>
<path d="M263.475 118.286C259.75 117.51 257.355 113.858 258.13 110.126C258.906 106.401 262.558 104.005 266.289 104.781C270.015 105.557 272.416 109.215 271.635 112.946C270.859 116.672 267.201 119.067 263.47 118.291L263.475 118.286Z" fill="#989898"/>
<path d="M263.492 118.206C259.806 117.436 257.445 113.824 258.209 110.138C258.979 106.451 262.586 104.09 266.272 104.855C269.958 105.625 272.325 109.237 271.555 112.923C270.785 116.61 267.178 118.971 263.486 118.206H263.492Z" fill="#999999"/>
<path d="M263.509 118.127C259.868 117.363 257.53 113.796 258.288 110.155C259.047 106.514 262.614 104.175 266.255 104.934C269.896 105.693 272.234 109.26 271.476 112.907C270.717 116.548 267.144 118.886 263.503 118.127H263.509Z" fill="#9A9A9A"/>
<path d="M263.526 118.048C259.931 117.3 257.621 113.773 258.374 110.171C259.121 106.576 262.649 104.266 266.244 105.013C269.84 105.76 272.15 109.288 271.402 112.889C270.655 116.485 267.128 118.795 263.532 118.048H263.526Z" fill="#9B9B9B"/>
<path d="M263.543 117.963C259.992 117.221 257.711 113.739 258.447 110.188C259.188 106.638 262.671 104.356 266.221 105.092C269.777 105.834 272.053 109.316 271.311 112.872C270.569 116.423 267.093 118.705 263.537 117.963H263.543Z" fill="#9C9C9C"/>
<path d="M263.56 117.89C260.049 117.159 257.796 113.717 258.532 110.206C259.262 106.695 262.705 104.442 266.216 105.172C269.726 105.903 271.98 109.345 271.243 112.856C270.513 116.366 267.076 118.62 263.56 117.89Z" fill="#9D9D9D"/>
<path d="M263.577 117.81C260.112 117.085 257.887 113.693 258.612 110.222C259.336 106.757 262.728 104.532 266.199 105.257C269.664 105.981 271.889 109.379 271.165 112.844C270.44 116.309 267.048 118.535 263.577 117.81Z" fill="#9F9F9F"/>
<path d="M263.589 117.731C260.169 117.017 257.972 113.659 258.685 110.239C259.399 106.819 262.751 104.622 266.171 105.336C269.596 106.049 271.793 109.401 271.074 112.827C270.361 116.247 267.009 118.45 263.583 117.731H263.589Z" fill="#A0A0A0"/>
<path d="M263.606 117.652C260.226 116.949 258.057 113.637 258.765 110.257C259.467 106.882 262.779 104.708 266.16 105.415C269.54 106.118 271.708 109.43 271.001 112.81C270.299 116.185 266.986 118.354 263.606 117.652Z" fill="#A1A1A1"/>
<path d="M263.623 117.572C260.288 116.876 258.153 113.609 258.844 110.273C259.54 106.938 262.807 104.798 266.137 105.494C269.472 106.191 271.612 109.458 270.915 112.793C270.219 116.128 266.952 118.269 263.617 117.572H263.623Z" fill="#A2A2A2"/>
<path d="M263.64 117.493C260.351 116.808 258.239 113.58 258.924 110.291C259.609 107.001 262.831 104.889 266.121 105.574C269.41 106.259 271.528 109.481 270.837 112.776C270.152 116.066 266.925 118.178 263.635 117.493H263.64Z" fill="#A3A3A3"/>
<path d="M263.657 117.414C260.412 116.734 258.329 113.558 259.003 110.308C259.682 107.063 262.859 104.979 266.103 105.653C269.347 106.333 271.437 109.515 270.757 112.759C270.078 116.004 266.896 118.088 263.651 117.414H263.657Z" fill="#A4A4A4"/>
<path d="M263.674 117.334C260.475 116.666 258.414 113.529 259.082 110.324C259.75 107.12 262.887 105.07 266.092 105.732C269.296 106.4 271.352 109.537 270.684 112.742C270.015 115.947 266.879 118.002 263.674 117.329V117.334Z" fill="#A6A6A6"/>
<path d="M263.69 117.25C260.531 116.593 258.504 113.496 259.161 110.336C259.817 107.176 262.915 105.149 266.074 105.806C269.234 106.463 271.261 109.56 270.604 112.72C269.947 115.879 266.85 117.901 263.69 117.244V117.25Z" fill="#A7A7A7"/>
<path d="M263.707 117.176C260.593 116.525 258.594 113.473 259.245 110.359C259.896 107.244 262.948 105.246 266.062 105.891C269.177 106.542 271.175 109.594 270.524 112.709C269.873 115.823 266.821 117.822 263.707 117.176Z" fill="#A8A8A8"/>
<path d="M263.725 117.091C260.656 116.451 258.68 113.439 259.325 110.37C259.965 107.301 262.977 105.325 266.046 105.97C269.115 106.61 271.091 109.617 270.446 112.697C269.806 115.766 266.799 117.736 263.725 117.097V117.091Z" fill="#A9A9A9"/>
<path d="M263.742 117.017C260.719 116.388 258.771 113.416 259.405 110.386C260.033 107.357 263 105.421 266.03 106.049C269.059 106.683 271.001 109.645 270.367 112.674C269.738 115.703 266.771 117.645 263.742 117.011V117.017Z" fill="#AAAAAA"/>
<path d="M263.758 116.932C260.774 116.31 258.86 113.388 259.483 110.404C260.106 107.42 263.033 105.506 266.011 106.129C268.995 106.752 270.909 109.679 270.286 112.657C269.663 115.641 266.742 117.555 263.758 116.932Z" fill="#ACACAC"/>
<path d="M263.776 116.853C260.837 116.241 258.952 113.359 259.563 110.421C260.175 107.482 263.057 105.591 265.996 106.208C268.934 106.825 270.825 109.701 270.208 112.64C269.597 115.579 266.715 117.47 263.776 116.853Z" fill="#ADADAD"/>
<path d="M263.792 116.774C260.899 116.168 259.042 113.331 259.642 110.438C260.242 107.545 263.079 105.687 265.978 106.287C268.871 106.893 270.734 109.73 270.128 112.624C269.522 115.523 266.686 117.38 263.792 116.774Z" fill="#AEAEAE"/>
<path d="M263.809 116.695C260.961 116.1 259.127 113.308 259.721 110.455C260.316 107.601 263.107 105.772 265.961 106.367C268.815 106.961 270.644 109.753 270.049 112.606C269.455 115.46 266.663 117.289 263.804 116.695H263.809Z" fill="#AFAFAF"/>
<path d="M263.82 116.616C261.012 116.032 259.211 113.281 259.8 110.466C260.383 107.658 263.135 105.857 265.944 106.44C268.752 107.024 270.558 109.776 269.969 112.584C269.386 115.393 266.634 117.199 263.82 116.61V116.616Z" fill="#B0B0B0"/>
<path d="M263.837 116.536C261.074 115.958 259.302 113.252 259.88 110.483C260.457 107.72 263.164 105.947 265.927 106.519C268.69 107.097 270.468 109.803 269.89 112.567C269.313 115.33 266.606 117.108 263.837 116.53V116.536Z" fill="#B2B2B2"/>
<path d="M263.855 116.457C261.138 115.891 259.388 113.224 259.96 110.5C260.526 107.777 263.193 106.033 265.911 106.599C268.629 107.165 270.378 109.832 269.812 112.55C269.246 115.268 266.579 117.017 263.861 116.451L263.855 116.457Z" fill="#B3B3B3"/>
<path d="M263.872 116.378C261.194 115.823 259.478 113.201 260.039 110.523C260.599 107.845 263.221 106.129 265.893 106.69C268.572 107.25 270.293 109.872 269.732 112.544C269.172 115.223 266.55 116.938 263.872 116.378Z" fill="#B4B4B4"/>
<path d="M263.888 116.298C261.255 115.749 259.568 113.167 260.117 110.534C260.667 107.901 263.249 106.214 265.876 106.763C268.509 107.312 270.196 109.888 269.647 112.521C269.098 115.154 266.521 116.847 263.883 116.298H263.888Z" fill="#B5B5B5"/>
<path d="M263.905 116.219C261.318 115.681 259.653 113.144 260.197 110.556C260.735 107.969 263.277 106.304 265.859 106.848C268.446 107.385 270.111 109.928 269.568 112.515C269.03 115.103 266.493 116.768 263.9 116.224L263.905 116.219Z" fill="#B6B6B6"/>
<path d="M263.923 116.139C261.381 115.607 259.75 113.116 260.277 110.573C260.809 108.031 263.3 106.395 265.842 106.927C268.39 107.459 270.021 109.956 269.489 112.499C268.957 115.041 266.465 116.677 263.917 116.145L263.923 116.139Z" fill="#B8B8B8"/>
<path d="M263.94 116.06C261.438 115.539 259.835 113.093 260.356 110.585C260.877 108.082 263.323 106.48 265.826 107.001C268.328 107.522 269.931 109.973 269.41 112.47C268.889 114.973 266.437 116.576 263.935 116.055L263.94 116.06Z" fill="#B9B9B9"/>
<path d="M263.957 115.981C261.499 115.472 259.925 113.065 260.435 110.602C260.944 108.145 263.351 106.571 265.808 107.08C268.265 107.595 269.845 110.002 269.33 112.454C268.815 114.911 266.408 116.491 263.951 115.976L263.957 115.981Z" fill="#BABABA"/>
<path d="M263.973 115.902C261.561 115.398 260.015 113.037 260.519 110.619C261.023 108.207 263.384 106.656 265.796 107.159C268.208 107.663 269.76 110.03 269.256 112.437C268.752 114.849 266.385 116.4 263.973 115.896V115.902Z" fill="#BBBBBB"/>
<path d="M263.991 115.822C261.624 115.33 260.101 113.008 260.599 110.636C261.092 108.269 263.413 106.746 265.78 107.238C268.153 107.731 269.67 110.058 269.178 112.425C268.685 114.792 266.358 116.315 263.991 115.822Z" fill="#BCBCBC"/>
<path d="M264.008 115.744C261.68 115.257 260.191 112.975 260.678 110.653C261.165 108.326 263.441 106.837 265.763 107.324C268.09 107.811 269.579 110.087 269.092 112.408C268.605 114.736 266.329 116.23 264.002 115.744H264.008Z" fill="#BEBEBE"/>
<path d="M264.019 115.664C261.737 115.188 260.276 112.952 260.752 110.67C261.228 108.388 263.464 106.927 265.746 107.403C268.028 107.878 269.494 110.115 269.019 112.397C268.543 114.679 266.306 116.145 264.025 115.67L264.019 115.664Z" fill="#BFBFBF"/>
<path d="M264.037 115.585C261.8 115.121 260.362 112.924 260.832 110.687C261.296 108.45 263.493 107.018 265.73 107.482C267.966 107.946 269.405 110.138 268.94 112.374C268.476 114.611 266.285 116.049 264.043 115.585H264.037Z" fill="#C0C0C0"/>
<path d="M264.053 115.505C261.856 115.046 260.451 112.9 260.91 110.704C261.369 108.507 263.515 107.102 265.712 107.561C267.909 108.02 269.313 110.171 268.854 112.363C268.395 114.56 266.25 115.969 264.053 115.511V115.505Z" fill="#C1C1C1"/>
<path d="M264.07 115.426C261.918 114.979 260.542 112.872 260.99 110.72C261.437 108.569 263.543 107.187 265.689 107.64C267.841 108.088 269.217 110.194 268.769 112.346C268.322 114.497 266.216 115.873 264.064 115.426H264.07Z" fill="#C2C2C2"/>
<path d="M264.087 115.347C261.981 114.911 260.633 112.844 261.069 110.738C261.511 108.631 263.572 107.284 265.673 107.72C267.779 108.156 269.132 110.223 268.691 112.323C268.249 114.43 266.188 115.783 264.081 115.341L264.087 115.347Z" fill="#C4C4C4"/>
<path d="M264.104 115.268C262.043 114.837 260.723 112.816 261.154 110.755C261.584 108.694 263.605 107.369 265.661 107.799C267.722 108.229 269.047 110.251 268.616 112.312C268.186 114.373 266.165 115.698 264.104 115.268Z" fill="#C5C5C5"/>
<path d="M264.121 115.188C262.099 114.769 260.808 112.788 261.233 110.772C261.652 108.756 263.628 107.459 265.65 107.878C267.671 108.297 268.962 110.279 268.543 112.295C268.124 114.316 266.142 115.607 264.127 115.188H264.121Z" fill="#C6C6C6"/>
<path d="M264.138 115.109C262.162 114.695 260.899 112.765 261.313 110.788C261.726 108.818 263.657 107.55 265.633 107.957C267.609 108.371 268.877 110.307 268.464 112.278C268.051 114.254 266.114 115.522 264.144 115.109H264.138Z" fill="#C7C7C7"/>
<path d="M264.154 115.03C262.223 114.628 260.983 112.737 261.391 110.806C261.793 108.875 263.684 107.635 265.615 108.043C267.546 108.445 268.786 110.336 268.384 112.267C267.982 114.198 266.091 115.438 264.154 115.036V115.03Z" fill="#C9C9C9"/>
<path d="M264.172 114.95C262.287 114.56 261.075 112.708 261.472 110.817C261.862 108.931 263.714 107.72 265.599 108.116C267.49 108.512 268.697 110.358 268.306 112.244C267.909 114.129 266.064 115.341 264.172 114.95Z" fill="#CACACA"/>
<path d="M264.188 114.871C262.342 114.486 261.164 112.68 261.549 110.834C261.935 108.994 263.735 107.81 265.581 108.195C267.427 108.581 268.605 110.381 268.225 112.221C267.84 114.067 266.034 115.251 264.194 114.866L264.188 114.871Z" fill="#CBCBCB"/>
<path d="M264.206 114.792C262.406 114.418 261.256 112.652 261.63 110.851C262.004 109.051 263.765 107.895 265.565 108.275C267.366 108.648 268.521 110.415 268.147 112.21C267.774 114.011 266.007 115.166 264.206 114.792Z" fill="#CCCCCC"/>
<path d="M264.223 114.707C262.468 114.339 261.341 112.624 261.709 110.868C262.077 109.113 263.793 107.992 265.548 108.354C267.304 108.722 268.43 110.438 268.062 112.193C267.694 113.949 265.979 115.075 264.223 114.707Z" fill="#CECECE"/>
<path d="M264.241 114.628C262.531 114.271 261.432 112.595 261.789 110.885C262.146 109.175 263.816 108.077 265.532 108.433C267.247 108.79 268.346 110.466 267.989 112.176C267.632 113.886 265.956 114.985 264.241 114.628Z" fill="#CFCFCF"/>
<path d="M264.257 114.549C262.592 114.203 261.516 112.567 261.867 110.902C262.213 109.238 263.849 108.167 265.514 108.513C267.184 108.858 268.254 110.495 267.903 112.159C267.558 113.83 265.921 114.9 264.251 114.549H264.257Z" fill="#D0D0D0"/>
<path d="M264.268 114.469C262.643 114.13 261.607 112.544 261.946 110.919C262.286 109.294 263.871 108.252 265.497 108.592C267.122 108.932 268.163 110.523 267.824 112.148C267.484 113.773 265.893 114.815 264.268 114.475V114.469Z" fill="#D1D1D1"/>
<path d="M264.285 114.39C262.705 114.061 261.691 112.516 262.02 110.93C262.348 109.35 263.9 108.337 265.479 108.671C267.059 108.999 268.073 110.545 267.744 112.125C267.416 113.705 265.87 114.718 264.285 114.39Z" fill="#D2D2D2"/>
<path d="M264.302 114.31C262.768 113.993 261.782 112.487 262.105 110.947C262.422 109.413 263.928 108.427 265.463 108.744C267.003 109.067 267.988 110.568 267.665 112.102C267.343 113.642 265.842 114.628 264.302 114.305V114.31Z" fill="#D4D4D4"/>
<path d="M264.319 114.232C262.824 113.92 261.873 112.459 262.184 110.964C262.495 109.475 263.956 108.518 265.445 108.83C266.94 109.141 267.897 110.602 267.586 112.091C267.274 113.586 265.813 114.543 264.319 114.232Z" fill="#D5D5D5"/>
<path d="M264.337 114.152C262.887 113.852 261.959 112.431 262.264 110.981C262.564 109.532 263.986 108.603 265.429 108.909C266.879 109.209 267.808 110.63 267.502 112.074C267.202 113.524 265.781 114.452 264.337 114.152Z" fill="#D6D6D6"/>
<path d="M264.353 114.073C262.949 113.778 262.048 112.402 262.343 110.998C262.637 109.599 264.013 108.693 265.412 108.988C266.816 109.282 267.716 110.658 267.428 112.063C267.133 113.467 265.757 114.367 264.353 114.078V114.073Z" fill="#D7D7D7"/>
<path d="M264.37 113.999C263.011 113.716 262.139 112.38 262.422 111.021C262.706 109.662 264.042 108.79 265.401 109.073C266.765 109.356 267.632 110.693 267.349 112.051C267.065 113.416 265.735 114.288 264.37 114.005V113.999Z" fill="#D9D9D9"/>
<path d="M264.387 113.914C263.073 113.643 262.229 112.352 262.501 111.032C262.773 109.719 264.064 108.875 265.377 109.147C266.697 109.424 267.54 110.71 267.269 112.023C266.997 113.343 265.7 114.186 264.387 113.909V113.914Z" fill="#DADADA"/>
<path d="M264.404 113.835C263.13 113.569 262.314 112.329 262.581 111.049C262.847 109.781 264.092 108.965 265.366 109.226C266.64 109.492 267.456 110.738 267.19 112.006C266.924 113.28 265.678 114.096 264.404 113.829V113.835Z" fill="#DBDBDB"/>
<path d="M264.42 113.756C263.192 113.501 262.405 112.295 262.665 111.066C262.92 109.837 264.12 109.05 265.349 109.305C266.578 109.56 267.365 110.766 267.11 111.995C266.855 113.224 265.649 114.011 264.42 113.756Z" fill="#DCDCDC"/>
<path d="M264.437 113.676C263.254 113.427 262.489 112.272 262.739 111.083C262.988 109.9 264.148 109.141 265.332 109.39C266.521 109.639 267.28 110.794 267.03 111.978C266.781 113.167 265.621 113.926 264.437 113.676Z" fill="#DEDEDE"/>
<path d="M264.454 113.597C263.31 113.359 262.586 112.244 262.823 111.1C263.061 109.962 264.177 109.226 265.315 109.464C266.459 109.701 267.189 110.823 266.951 111.961C266.713 113.104 265.598 113.835 264.454 113.597Z" fill="#DFDFDF"/>
<path d="M264.472 113.518C263.374 113.291 262.672 112.215 262.904 111.117C263.13 110.018 264.206 109.316 265.304 109.548C266.403 109.775 267.105 110.851 266.879 111.949C266.652 113.048 265.576 113.75 264.478 113.523L264.472 113.518Z" fill="#E0E0E0"/>
<path d="M264.484 113.439C263.43 113.218 262.757 112.187 262.977 111.134C263.198 110.081 264.229 109.407 265.282 109.628C266.335 109.849 267.009 110.879 266.788 111.932C266.567 112.986 265.537 113.665 264.484 113.444V113.439Z" fill="#E2E2E2"/>
<path d="M264.501 113.359C263.493 113.15 262.848 112.159 263.057 111.151C263.267 110.143 264.257 109.498 265.265 109.707C266.279 109.917 266.924 110.908 266.715 111.915C266.505 112.929 265.514 113.575 264.501 113.365V113.359Z" fill="#E3E3E3"/>
<path d="M264.517 113.28C263.554 113.082 262.932 112.13 263.135 111.168C263.339 110.2 264.285 109.582 265.247 109.786C266.216 109.99 266.833 110.93 266.629 111.898C266.425 112.867 265.485 113.484 264.517 113.286V113.28Z" fill="#E4E4E4"/>
<path d="M264.534 113.201C263.612 113.009 263.023 112.108 263.215 111.185C263.408 110.268 264.308 109.674 265.231 109.866C266.154 110.059 266.748 110.959 266.556 111.882C266.363 112.805 265.457 113.394 264.534 113.201Z" fill="#E5E5E5"/>
<path d="M264.551 113.122C263.673 112.941 263.113 112.074 263.294 111.197C263.475 110.319 264.336 109.758 265.213 109.94C266.091 110.121 266.657 110.981 266.47 111.859C266.289 112.737 265.428 113.303 264.551 113.122Z" fill="#E7E7E7"/>
<path d="M264.568 113.042C263.736 112.867 263.204 112.052 263.379 111.219C263.555 110.387 264.37 109.849 265.202 110.024C266.04 110.2 266.573 111.015 266.397 111.848C266.222 112.686 265.406 113.218 264.574 113.042H264.568Z" fill="#E8E8E8"/>
<path d="M264.586 112.963C263.794 112.799 263.29 112.023 263.454 111.236C263.618 110.449 264.394 109.939 265.181 110.109C265.974 110.273 266.477 111.049 266.313 111.836C266.149 112.629 265.373 113.133 264.586 112.969V112.963Z" fill="#E9E9E9"/>
<path d="M264.602 112.884C263.854 112.731 263.379 111.995 263.537 111.253C263.69 110.511 264.421 110.03 265.168 110.188C265.915 110.347 266.391 111.077 266.238 111.819C266.085 112.567 265.349 113.042 264.607 112.889L264.602 112.884Z" fill="#EAEAEA"/>
<path d="M264.619 112.804C263.917 112.657 263.47 111.972 263.617 111.27C263.764 110.568 264.449 110.12 265.151 110.268C265.853 110.415 266.306 111.1 266.159 111.802C266.012 112.51 265.321 112.957 264.619 112.81V112.804Z" fill="#ECECEC"/>
<path d="M264.636 112.725C263.979 112.589 263.555 111.944 263.696 111.281C263.832 110.625 264.478 110.2 265.134 110.341C265.797 110.477 266.216 111.123 266.08 111.78C265.944 112.442 265.299 112.861 264.636 112.725Z" fill="#EDEDED"/>
<path d="M264.653 112.646C264.042 112.516 263.646 111.916 263.776 111.298C263.906 110.687 264.506 110.291 265.118 110.421C265.729 110.551 266.126 111.151 266.001 111.763C265.871 112.38 265.265 112.771 264.653 112.646Z" fill="#EEEEEE"/>
<path d="M264.67 112.567C264.098 112.448 263.736 111.888 263.855 111.316C263.974 110.75 264.528 110.381 265.1 110.5C265.672 110.619 266.035 111.18 265.916 111.746C265.797 112.318 265.236 112.686 264.67 112.567Z" fill="#F0F0F0"/>
<path d="M264.688 112.482C264.161 112.374 263.822 111.859 263.935 111.332C264.042 110.806 264.558 110.466 265.084 110.579C265.617 110.687 265.951 111.208 265.843 111.729C265.735 112.255 265.22 112.595 264.688 112.482Z" fill="#F1F1F1"/>
<path d="M264.698 112.408C264.217 112.307 263.906 111.837 264.008 111.35C264.11 110.868 264.579 110.563 265.061 110.659C265.542 110.761 265.853 111.231 265.752 111.712C265.65 112.199 265.174 112.505 264.693 112.408H264.698Z" fill="#F2F2F2"/>
<path d="M264.715 112.324C264.279 112.233 263.996 111.803 264.092 111.367C264.183 110.931 264.613 110.647 265.049 110.738C265.491 110.829 265.768 111.259 265.677 111.701C265.587 112.142 265.157 112.42 264.715 112.329V112.324Z" fill="#F3F3F3"/>
<path d="M264.732 112.244C264.336 112.159 264.081 111.774 264.166 111.377C264.251 110.981 264.636 110.732 265.032 110.817C265.428 110.902 265.683 111.281 265.598 111.678C265.513 112.074 265.128 112.329 264.732 112.244Z" fill="#F5F5F5"/>
<path d="M264.749 112.165C264.398 112.091 264.177 111.751 264.25 111.395C264.324 111.043 264.664 110.823 265.015 110.896C265.366 110.97 265.592 111.31 265.519 111.661C265.445 112.017 265.1 112.238 264.749 112.165Z" fill="#F6F6F6"/>
<path d="M264.766 112.091C264.46 112.029 264.268 111.723 264.33 111.417C264.392 111.111 264.692 110.913 264.998 110.981C265.31 111.043 265.502 111.344 265.44 111.649C265.378 111.955 265.077 112.159 264.766 112.091Z" fill="#F7F7F7"/>
<path d="M264.784 112.006C264.524 111.95 264.354 111.695 264.41 111.429C264.467 111.168 264.722 110.998 264.982 111.055C265.248 111.112 265.418 111.367 265.362 111.627C265.305 111.893 265.05 112.063 264.784 112.006Z" fill="#F9F9F9"/>
<path d="M264.801 111.927C264.58 111.882 264.444 111.667 264.489 111.446C264.534 111.231 264.75 111.089 264.965 111.134C265.186 111.18 265.327 111.395 265.282 111.616C265.237 111.837 265.021 111.978 264.801 111.933V111.927Z" fill="#FAFAFA"/>
<path d="M264.818 111.848C264.642 111.814 264.529 111.638 264.568 111.463C264.602 111.287 264.778 111.174 264.953 111.214C265.129 111.253 265.242 111.423 265.203 111.599C265.169 111.774 264.993 111.888 264.818 111.854V111.848Z" fill="#FBFBFB"/>
<path d="M264.835 111.768C264.705 111.74 264.62 111.61 264.648 111.48C264.676 111.349 264.807 111.264 264.937 111.293C265.067 111.321 265.158 111.451 265.129 111.582C265.101 111.717 264.971 111.797 264.841 111.774L264.835 111.768Z" fill="#FCFCFC"/>
<path d="M264.851 111.695C264.766 111.678 264.71 111.587 264.727 111.502C264.744 111.417 264.829 111.361 264.919 111.378C265.01 111.395 265.061 111.48 265.044 111.565C265.027 111.655 264.942 111.712 264.851 111.695Z" fill="#FEFEFE"/>
<path d="M264.868 111.61C264.829 111.598 264.795 111.559 264.806 111.514C264.817 111.468 264.863 111.44 264.902 111.451C264.947 111.463 264.976 111.502 264.97 111.547C264.964 111.593 264.914 111.621 264.868 111.61Z" fill="white"/>
</g>
</g>
<path d="M190.73 116.16C189.681 114.968 189.103 113.435 189.103 111.848C189.103 110.262 189.681 108.729 190.73 107.537L199.1 98.1307C200.022 97.103 200.595 95.8098 200.735 94.4368C200.876 93.0637 200.578 91.6813 199.884 90.488L186.806 67.8864C186.119 66.6944 185.073 65.7496 183.816 65.1865C182.56 64.6235 181.158 64.4711 179.81 64.7509L167.517 67.2332C165.952 67.5561 164.324 67.2958 162.939 66.5016C161.553 65.7073 160.507 64.434 159.997 62.9219L156.008 50.9679C155.569 49.6705 154.734 48.5436 153.619 47.7465C152.504 46.9494 151.167 46.5224 149.796 46.526H123.64C122.215 46.4516 120.803 46.8456 119.623 47.6477C118.442 48.4497 117.556 49.6158 117.102 50.9679L113.44 62.9219C112.93 64.434 111.883 65.7073 110.498 66.5016C109.113 67.2958 107.484 67.5561 105.92 67.2332L93.2999 64.7509C92.0218 64.5705 90.719 64.772 89.5553 65.33C88.3917 65.8879 87.4194 66.7774 86.761 67.8864L73.6831 90.488C72.9714 91.668 72.6514 93.0426 72.7689 94.4153C72.8863 95.788 73.4352 97.0884 74.337 98.1307L82.6414 107.537C83.6898 108.729 84.2679 110.262 84.2679 111.848C84.2679 113.435 83.6898 114.968 82.6414 116.16L74.337 125.566C73.4352 126.608 72.8863 127.909 72.7689 129.282C72.6514 130.654 72.9714 132.029 73.6831 133.209L86.761 155.81C87.4482 157.002 88.4945 157.947 89.7509 158.51C91.0072 159.073 92.4094 159.226 93.7576 158.946L106.051 156.464C107.615 156.141 109.243 156.401 110.629 157.195C112.014 157.99 113.06 159.263 113.571 160.775L117.559 172.729C118.014 174.081 118.9 175.247 120.08 176.049C121.261 176.851 122.672 177.245 124.098 177.171H150.254C151.625 177.174 152.962 176.747 154.077 175.95C155.191 175.153 156.027 174.026 156.466 172.729L160.455 160.775C160.965 159.263 162.011 157.99 163.396 157.195C164.782 156.401 166.41 156.141 167.974 156.464L180.267 158.946C181.616 159.226 183.018 159.073 184.274 158.51C185.53 157.947 186.577 157.002 187.264 155.81L200.342 133.209C201.036 132.016 201.334 130.633 201.193 129.26C201.052 127.887 200.48 126.594 199.557 125.566L190.73 116.16ZM180.987 124.913L186.218 130.792L177.848 145.294L170.132 143.726C165.423 142.764 160.524 143.563 156.365 145.972C152.206 148.38 149.078 152.23 147.573 156.79L145.088 164.106H128.348L125.994 156.66C124.49 152.099 121.361 148.249 117.202 145.841C113.044 143.433 108.145 142.633 103.435 143.595L95.7193 145.163L87.2187 130.727L92.4498 124.848C95.6667 121.255 97.4451 116.603 97.4451 111.783C97.4451 106.963 95.6667 102.311 92.4498 98.7186L87.2187 92.8396L95.5885 78.4686L103.304 80.0364C108.014 80.9981 112.913 80.1989 117.071 77.7906C121.23 75.3823 124.359 71.5324 125.864 66.9719L128.348 59.5905H145.088L147.573 67.0372C149.078 71.5978 152.206 75.4476 156.365 77.8559C160.524 80.2642 165.423 81.0634 170.132 80.1017L177.848 78.534L186.218 93.0356L180.987 98.9146C177.806 102.499 176.05 107.124 176.05 111.914C176.05 116.704 177.806 121.328 180.987 124.913Z" fill="#D19A64"/>
<path d="M189.979 116.82L189.989 116.832L190.001 116.844L198.82 126.242C199.597 127.111 200.079 128.203 200.198 129.362C200.318 130.525 200.065 131.695 199.478 132.706L199.476 132.708L186.399 155.31L186.398 155.311C185.816 156.32 184.93 157.121 183.865 157.598C182.801 158.075 181.613 158.204 180.471 157.967L180.465 157.966L168.176 155.484C168.176 155.484 168.175 155.484 168.174 155.484C166.372 155.112 164.495 155.412 162.899 156.328C161.302 157.243 160.095 158.712 159.507 160.455L159.506 160.458L155.518 172.409C155.518 172.409 155.518 172.41 155.518 172.411C155.146 173.508 154.439 174.462 153.495 175.137C152.551 175.812 151.418 176.174 150.256 176.171H150.254H124.098H124.072L124.046 176.172C122.838 176.235 121.643 175.901 120.642 175.222C119.642 174.543 118.893 173.555 118.507 172.411C118.507 172.41 118.507 172.41 118.507 172.41L114.519 160.458L114.518 160.455C113.93 158.712 112.723 157.243 111.126 156.328C109.53 155.412 107.653 155.112 105.85 155.484C105.85 155.484 105.849 155.484 105.849 155.484L93.5597 157.966L93.5543 157.967C92.4121 158.204 91.2242 158.075 90.1598 157.598C89.0955 157.121 88.2093 156.32 87.6273 155.311L87.6265 155.31L74.5487 132.708L74.5441 132.7L74.5394 132.692C73.9367 131.693 73.6658 130.529 73.7652 129.367C73.8645 128.206 74.3282 127.106 75.0902 126.224C75.0912 126.223 75.0922 126.222 75.0932 126.22L83.3911 116.822L83.3924 116.82C84.6011 115.446 85.2679 113.678 85.2679 111.848C85.2679 110.018 84.6011 108.251 83.3924 106.877L83.3911 106.875L75.0932 97.4764C75.0922 97.4752 75.0912 97.4741 75.0902 97.4729C74.3282 96.5907 73.8645 95.4908 73.7652 94.3301C73.6658 93.1678 73.9367 92.0038 74.5394 91.0044L74.5441 90.9967L74.5487 90.9888L87.6236 68.3923C88.1812 67.4553 89.0036 66.7036 89.9877 66.2316C90.9657 65.7627 92.0599 65.591 93.1345 65.7376L105.718 68.2125C105.719 68.2129 105.721 68.2132 105.723 68.2135C107.524 68.5842 109.4 68.284 110.995 67.3691C112.592 66.4534 113.799 64.9853 114.387 63.2415L114.392 63.2282L114.396 63.2148L118.054 51.2744C118.44 50.1348 119.188 49.1518 120.185 48.4748C121.185 47.7954 122.38 47.4616 123.588 47.5246L123.614 47.526H123.64L149.796 47.526L149.799 47.526C150.96 47.523 152.093 47.8847 153.037 48.5599L153.617 47.7494L153.037 48.5599C153.981 49.2347 154.689 50.1886 155.06 51.2865C155.06 51.2871 155.061 51.2876 155.061 51.2882L159.048 63.2384L159.049 63.2415C159.637 64.9853 160.844 66.4534 162.441 67.3691C164.038 68.2844 165.914 68.5845 167.716 68.213C167.717 68.2129 167.718 68.2127 167.719 68.2125L180.008 65.7312L180.013 65.7301C181.155 65.493 182.343 65.6221 183.407 66.0991C184.472 66.5761 185.358 67.3764 185.94 68.3859L185.941 68.3872L199.019 90.9888L199.02 90.9908C199.608 92.0014 199.86 93.172 199.741 94.3346C199.621 95.4973 199.136 96.5924 198.355 97.4628L198.352 97.466L189.983 106.872L189.979 106.877C188.77 108.251 188.103 110.018 188.103 111.848C188.103 113.678 188.77 115.446 189.979 116.82ZM187.084 131.292L187.445 130.667L186.965 130.127L181.735 124.249C181.735 124.249 181.734 124.249 181.734 124.249C178.716 120.847 177.05 116.459 177.05 111.914C177.05 107.368 178.716 102.98 181.734 99.5787C181.734 99.5785 181.735 99.5784 181.735 99.5783L186.965 93.7003L187.445 93.1609L187.084 92.5357L178.714 78.0341L178.354 77.4107L177.649 77.554L169.933 79.1217L169.932 79.1219C165.462 80.0346 160.813 79.2762 156.866 76.9906C152.92 74.705 149.951 71.0515 148.522 66.7239L148.521 66.7207L146.037 59.2739L145.809 58.5905H145.088H128.348H127.63L127.401 59.2714L124.916 66.6529L124.914 66.6585C123.486 70.9862 120.517 74.6396 116.57 76.9252C112.624 79.2108 107.974 79.9693 103.504 79.0566L103.504 79.0564L95.7876 77.4887L95.0851 77.3459L94.7244 77.9654L86.3546 92.3363L85.9897 92.9627L86.4716 93.5043L91.7027 99.3834L91.7048 99.3857C94.7575 102.795 96.4451 107.209 96.4451 111.783C96.4451 116.357 94.7575 120.771 91.7048 124.181L91.7027 124.183L86.4716 130.062L85.9873 130.606L86.357 131.234L94.8576 145.67L95.2195 146.285L95.9184 146.143L103.634 144.575L103.635 144.575C108.105 143.662 112.754 144.421 116.701 146.706C120.646 148.991 123.614 152.642 125.043 156.967C125.044 156.969 125.044 156.971 125.045 156.973L127.395 164.408L127.616 165.106H128.348H145.088H145.805L146.035 164.428L148.52 157.112L148.522 157.104C149.951 152.776 152.92 149.123 156.866 146.837C160.813 144.551 165.462 143.793 169.932 144.706L169.933 144.706L177.649 146.273L178.354 146.417L178.714 145.793L187.084 131.292Z" stroke="url(#paint4_linear_488_27285)" stroke-width="2"/>
<path d="M137.372 85.7195C132.199 85.7195 127.142 87.2519 122.841 90.123C118.54 92.9941 115.187 97.0749 113.208 101.849C111.228 106.624 110.71 111.877 111.719 116.946C112.729 122.014 115.22 126.67 118.878 130.324C122.536 133.979 127.196 136.467 132.27 137.475C137.343 138.484 142.602 137.966 147.382 135.988C152.161 134.011 156.246 130.662 159.12 126.365C161.994 122.068 163.528 117.016 163.528 111.848C163.528 104.919 160.772 98.2726 155.867 93.3725C150.962 88.4723 144.309 85.7195 137.372 85.7195ZM137.372 124.913C134.786 124.913 132.257 124.147 130.107 122.711C127.956 121.276 126.28 119.235 125.29 116.848C124.3 114.461 124.041 111.834 124.546 109.3C125.051 106.765 126.296 104.438 128.125 102.61C129.954 100.783 132.284 99.5391 134.821 99.035C137.358 98.5309 139.987 98.7896 142.377 99.7784C144.767 100.767 146.809 102.442 148.246 104.59C149.683 106.739 150.45 109.265 150.45 111.848C150.45 115.313 149.072 118.636 146.62 121.086C144.167 123.537 140.841 124.913 137.372 124.913Z" fill="#D19A64"/>
<path d="M123.396 90.9547C127.533 88.1934 132.397 86.7195 137.372 86.7195C144.044 86.7195 150.443 89.3672 155.161 94.0799C159.878 98.7926 162.528 105.184 162.528 111.848C162.528 116.818 161.053 121.677 158.289 125.809C155.525 129.941 151.596 133.162 146.999 135.064C142.403 136.967 137.345 137.464 132.465 136.495C127.585 135.525 123.102 133.131 119.584 129.617C116.066 126.103 113.671 121.625 112.7 116.751C111.73 111.876 112.228 106.824 114.132 102.232C116.035 97.6407 119.259 93.7161 123.396 90.9547ZM129.552 123.543C131.867 125.088 134.588 125.913 137.372 125.913C141.106 125.913 144.686 124.431 147.327 121.794C149.967 119.156 151.45 115.579 151.45 111.848C151.45 109.067 150.625 106.347 149.077 104.034C147.53 101.721 145.332 99.9188 142.759 98.8544C140.187 97.79 137.357 97.5116 134.626 98.0542C131.896 98.5968 129.387 99.9361 127.418 101.903C125.449 103.87 124.108 106.376 123.565 109.104C123.022 111.833 123.301 114.661 124.366 117.231C125.432 119.801 127.237 121.998 129.552 123.543Z" stroke="url(#paint5_linear_488_27285)" stroke-width="2"/>
</g>
<defs>
<filter id="filter0_bf_488_27285" x="-2.27383" y="46.6866" width="289.333" height="194.827" filterUnits="userSpaceOnUse" color-interpolation-filters="sRGB">
<feFlood flood-opacity="0" result="BackgroundImageFix"/>
<feGaussianBlur in="BackgroundImageFix" stdDeviation="2"/>
<feComposite in2="SourceAlpha" operator="in" result="effect1_backgroundBlur_488_27285"/>
<feBlend mode="normal" in="SourceGraphic" in2="effect1_backgroundBlur_488_27285" result="shape"/>
<feGaussianBlur stdDeviation="5.3" result="effect2_foregroundBlur_488_27285"/>
</filter>
<filter id="filter1_bf_488_27285" x="-1.00625" y="5.42905" width="276.606" height="194.341" filterUnits="userSpaceOnUse" color-interpolation-filters="sRGB">
<feFlood flood-opacity="0" result="BackgroundImageFix"/>
<feGaussianBlur in="BackgroundImageFix" stdDeviation="2"/>
<feComposite in2="SourceAlpha" operator="in" result="effect1_backgroundBlur_488_27285"/>
<feBlend mode="normal" in="SourceGraphic" in2="effect1_backgroundBlur_488_27285" result="shape"/>
<feGaussianBlur stdDeviation="5.3" result="effect2_foregroundBlur_488_27285"/>
</filter>
<linearGradient id="paint0_linear_488_27285" x1="8.32356" y1="144.1" x2="276.91" y2="144.1" gradientUnits="userSpaceOnUse">
<stop stop-color="#D19A65"/>
<stop offset="0.21" stop-color="#FEE5D0" stop-opacity="0.6"/>
<stop offset="0.23" stop-color="#F2D2B5" stop-opacity="0.7"/>
<stop offset="0.27" stop-color="#E0B388" stop-opacity="0.87"/>
<stop offset="0.31" stop-color="#D4A06E" stop-opacity="0.97"/>
<stop offset="0.34" stop-color="#D19A65"/>
<stop offset="0.49" stop-color="#D19A64" stop-opacity="0.92"/>
<stop offset="0.79" stop-color="#D19A63" stop-opacity="0.7"/>
<stop offset="0.92" stop-color="#D19A63" stop-opacity="0.6"/>
<stop offset="0.96" stop-color="#FEE5D0"/>
</linearGradient>
<linearGradient id="paint1_linear_488_27285" x1="8.32356" y1="144.1" x2="276.91" y2="144.1" gradientUnits="userSpaceOnUse">
<stop stop-color="#D19A65"/>
<stop offset="0.21" stop-color="#FEE5D0" stop-opacity="0.6"/>
<stop offset="0.23" stop-color="#F2D2B5" stop-opacity="0.7"/>
<stop offset="0.27" stop-color="#E0B388" stop-opacity="0.87"/>
<stop offset="0.31" stop-color="#D4A06E" stop-opacity="0.97"/>
<stop offset="0.34" stop-color="#D19A65"/>
<stop offset="0.49" stop-color="#D19A64" stop-opacity="0.92"/>
<stop offset="0.79" stop-color="#D19A63" stop-opacity="0.7"/>
<stop offset="0.92" stop-color="#D19A63" stop-opacity="0.6"/>
<stop offset="0.96" stop-color="#FEE5D0"/>
</linearGradient>
<linearGradient id="paint2_linear_488_27285" x1="8.62337" y1="102.613" x2="265.682" y2="102.613" gradientUnits="userSpaceOnUse">
<stop stop-color="#D19A65" stop-opacity="0"/>
<stop offset="0.02" stop-color="#E1B68D" stop-opacity="0.23"/>
<stop offset="0.04" stop-color="#FEE5D0" stop-opacity="0.6"/>
<stop offset="0.1" stop-color="#F1CFB1" stop-opacity="0.71"/>
<stop offset="0.2" stop-color="#E2B78F" stop-opacity="0.84"/>
<stop offset="0.32" stop-color="#D8A677" stop-opacity="0.93"/>
<stop offset="0.47" stop-color="#D29C69" stop-opacity="0.98"/>
<stop offset="0.81" stop-color="#D19A65"/>
<stop offset="0.84" stop-color="#D19A64" stop-opacity="0.92"/>
<stop offset="0.9" stop-color="#D19A63" stop-opacity="0.7"/>
<stop offset="0.92" stop-color="#D19A63" stop-opacity="0.6"/>
<stop offset="0.96" stop-color="#FEE5D0"/>
</linearGradient>
<linearGradient id="paint3_linear_488_27285" x1="8.59896" y1="102.891" x2="265.658" y2="102.891" gradientUnits="userSpaceOnUse">
<stop stop-color="#D19A65" stop-opacity="0"/>
<stop offset="0.02" stop-color="#E1B68D" stop-opacity="0.23"/>
<stop offset="0.04" stop-color="#FEE5D0" stop-opacity="0.6"/>
<stop offset="0.1" stop-color="#F1CFB1" stop-opacity="0.71"/>
<stop offset="0.2" stop-color="#E2B78F" stop-opacity="0.84"/>
<stop offset="0.32" stop-color="#D8A677" stop-opacity="0.93"/>
<stop offset="0.47" stop-color="#D29C69" stop-opacity="0.98"/>
<stop offset="0.81" stop-color="#D19A65"/>
<stop offset="0.84" stop-color="#D19A64" stop-opacity="0.92"/>
<stop offset="0.9" stop-color="#D19A63" stop-opacity="0.7"/>
<stop offset="0.92" stop-color="#D19A63" stop-opacity="0.6"/>
<stop offset="0.96" stop-color="#FEE5D0"/>
</linearGradient>
<linearGradient id="paint4_linear_488_27285" x1="188.887" y1="111.848" x2="150.415" y2="111.848" gradientUnits="userSpaceOnUse">
<stop stop-color="#FEE5D0"/>
<stop offset="1" stop-color="#FEE5D0" stop-opacity="0"/>
</linearGradient>
<linearGradient id="paint5_linear_488_27285" x1="140.615" y1="111.848" x2="163.481" y2="111.848" gradientUnits="userSpaceOnUse">
<stop stop-color="#FEE5D0" stop-opacity="0"/>
<stop offset="1" stop-color="#FEE5D0"/>
</linearGradient>
<clipPath id="clip0_488_27285">
<rect width="286" height="241" fill="white" transform="translate(0.15625 0.785156)"/>
</clipPath>
</defs>
</svg>
