<svg width="111" height="27" viewBox="0 0 111 27" fill="none" xmlns="http://www.w3.org/2000/svg">
<g clip-path="url(#clip0_331_24212)">
<path d="M48.4664 10.3778L52.008 19.9389H49.0219L48.5469 18.5806H45.4553L44.9775 19.9389H41.9941L45.5469 10.375L48.4664 10.3778ZM47.8997 16.5278L47.3858 14.8889C47.2691 14.5056 47.1469 14.0222 47.0219 13.4389C46.8775 14.0139 46.7414 14.5 46.6164 14.9028C46.4803 15.3417 46.3053 15.8833 46.0886 16.5278H47.8997Z" fill="#DDDDDD"/>
<path d="M62.4379 10.3779V19.939H59.6129L57.2212 15.8696C56.9546 15.4029 56.7101 14.9224 56.4907 14.4307C56.5629 15.1585 56.5935 15.8918 56.5879 16.6224L56.599 19.939H53.749V10.3779H56.6685L58.749 13.964C59.1018 14.5446 59.4157 15.1446 59.6935 15.764C59.6407 15.039 59.6129 14.3057 59.6129 13.5613L59.599 10.3779H62.4379Z" fill="#DDDDDD"/>
<path d="M72.9795 10.3779V12.8363H70.2767V19.939H67.3323V12.8363H64.6406V10.3779H72.9795Z" fill="#DDDDDD"/>
<path d="M83.8852 10.3779V19.939H80.9407V16.1668H78.1546V19.939H75.1963V10.3779H78.1546V13.5863H80.9407V10.3779H83.8852Z" fill="#DDDDDD"/>
<path d="M86.5352 10.3779H89.4796V19.939H86.5352V10.3779Z" fill="#DDDDDD"/>
<path d="M99.3468 17.4418V19.939H92.1162V10.3779H95.0745V17.4418H99.3468Z" fill="#DDDDDD"/>
<mask id="mask0_331_24212" style="mask-type:luminance" maskUnits="userSpaceOnUse" x="101" y="9" width="9" height="12">
<path d="M101.396 9.98047H109.016V20.6471H101.396V9.98047Z" fill="white"/>
</mask>
<g mask="url(#mask0_331_24212)">
<path d="M108.941 17.4418V19.939H101.71V10.3779H104.668V17.4418H108.941Z" fill="#DDDDDD"/>
</g>
<mask id="mask1_331_24212" style="mask-type:luminance" maskUnits="userSpaceOnUse" x="13" y="21" width="21" height="6">
<path d="M13.9297 21.3584H33.1297V26.3973H13.9297V21.3584Z" fill="white"/>
</mask>
<g mask="url(#mask1_331_24212)">
<path d="M32.8106 26.3969H19.7217C17.8828 26.3969 16.1828 25.4219 15.2633 23.8385L14.2217 22.0469H27.3078C29.1495 22.0469 30.8495 23.0219 31.7689 24.6052L32.8106 26.3969Z" fill="#DDDDDD"/>
</g>
<mask id="mask2_331_24212" style="mask-type:luminance" maskUnits="userSpaceOnUse" x="20" y="-1" width="10" height="20">
<path d="M20.3301 -0.255859H29.5745V18.5136H20.3301V-0.255859Z" fill="white"/>
</mask>
<g mask="url(#mask2_331_24212)">
<path d="M27.8327 17.9191L21.2882 6.65247C20.3688 5.06914 20.3688 3.11914 21.2882 1.53303L22.3299 -0.255859L28.8743 11.008C29.791 12.5941 29.791 14.5441 28.8743 16.1275L27.8327 17.9191Z" fill="#DDDDDD"/>
</g>
<mask id="mask3_331_24212" style="mask-type:luminance" maskUnits="userSpaceOnUse" x="1" y="12" width="15" height="15">
<path d="M1.74707 12.1133H15.3526V26.3355H1.74707V12.1133Z" fill="white"/>
</mask>
<g mask="url(#mask3_331_24212)">
<path d="M1.8252 26.2996L8.36964 15.0329C9.28908 13.4496 10.9891 12.4746 12.828 12.4746H14.9113L8.36686 23.7413C7.44742 25.3218 5.74742 26.2996 3.90853 26.2968L1.8252 26.2996Z" fill="#DDDDDD"/>
</g>
<path d="M19.8019 11.9922L23.388 18.1061H16.2158L19.8019 11.9922Z" fill="#DDDDDD"/>
<path d="M19.7582 11.9883V15.9799L16.2109 18.0438L19.7582 11.9883Z" fill="#DDDDDD"/>
<path d="M19.8273 15.9805L23.3746 18.111H16.2773L19.8273 15.9805Z" fill="#DDDDDD"/>
</g>
<defs>
<clipPath id="clip0_331_24212">
<rect width="110.025" height="26" fill="white" transform="translate(0.487305 0.265625)"/>
</clipPath>
</defs>
</svg>
