<svg width="87" height="24" viewBox="0 0 87 24" fill="none" xmlns="http://www.w3.org/2000/svg">
<g clip-path="url(#clip0_331_24269)">
<path d="M53.5625 9.92113C52.1403 9.61835 50.7042 9.37391 49.2514 9.37391C44.9264 9.37391 41.7264 12.6961 41.6319 17.0156C41.5764 19.3933 42.7014 21.0739 45.2097 21.0739C46.4458 21.0739 47.3264 20.6489 48.3014 19.8711L48.1125 20.8406H50.9875L53.5625 9.92113ZM39.2181 5.06836H35.9903L30.1292 16.0989L29.6569 17.3017V16.0989L29.0625 5.06836H26.1875L27.1514 20.8406H30.8653C33.6986 15.4933 36.3847 10.4128 39.2181 5.06836ZM40.9819 8.75724C40.5708 8.7628 40.1681 8.62946 39.8431 8.37669C39.5042 8.12947 39.3264 7.73224 39.3264 7.2128C39.3208 6.93502 39.3819 6.65725 39.5014 6.40725C39.6153 6.1628 39.7708 5.94058 39.9625 5.75169C40.1569 5.56836 40.3819 5.41836 40.6264 5.3128C40.8792 5.20447 41.1514 5.14891 41.4264 5.14891C41.8375 5.14614 42.2403 5.27947 42.5653 5.53225C42.9042 5.79058 43.0819 6.17391 43.0819 6.69336C43.0819 6.97391 43.0208 7.24613 42.9069 7.50169C42.7958 7.74613 42.6375 7.96835 42.4458 8.15724C42.2514 8.34058 42.0264 8.4878 41.7819 8.59335C41.5319 8.71002 41.2569 8.76835 40.9819 8.75724ZM39.5181 20.8406H36.5042L39.0542 10.0711H42.0792L39.5181 20.8406ZM50.1625 12.0128L49.2486 15.7156C48.9125 17.11 47.7736 18.6128 46.2153 18.6128C44.9792 18.6128 44.5319 17.6683 44.5597 16.5628C44.6153 14.2517 46.0514 11.86 48.5875 11.86C49.1125 11.8822 49.6375 11.935 50.1597 12.0128H50.1625Z" fill="#D0CECE" stroke="#D0CECE" stroke-width="0.0861563"/>
<path d="M60.9261 12.8995C62.9455 12.505 64.2066 10.6856 64.2483 8.7717C64.3011 6.24392 61.4011 6.13281 59.4344 6.13281H55.6094L52.0566 20.9245H56.5872C60.0983 20.9245 63.2705 19.63 63.3539 15.6606C63.3928 14.1439 62.5261 13.1189 60.9261 12.8995ZM60.2483 16.0717C60.2066 18.2272 58.4566 18.5745 56.64 18.5745H55.4622L56.5039 14.2384H57.5511C58.7955 14.2522 60.2872 14.5939 60.2483 16.0717ZM61.1844 9.70225C61.1566 11.2467 59.5011 12.0272 58.0789 12.0272H57.0344L57.9011 8.48836H59.2455C60.1122 8.48559 61.1983 8.63559 61.1844 9.70225Z" fill="#D0CECE" stroke="#D0CECE" stroke-width="0.0861563"/>
<mask id="mask0_331_24269" style="mask-type:luminance" maskUnits="userSpaceOnUse" x="73" y="6" width="14" height="16">
<path d="M73.0537 6.00977H86.6343V21.6542H73.0537V6.00977Z" fill="white"/>
</mask>
<g mask="url(#mask0_331_24269)">
<path d="M86.6342 7.25419C78.9175 5.05419 73.4814 8.60419 73.3314 15.5653C73.2648 19.0653 75.6786 21.2514 79.2842 21.2514C80.8564 21.2514 82.2981 20.9514 83.7731 20.3875L84.4509 17.6153C83.0398 18.2709 81.4953 18.8709 79.9064 18.8709C77.3703 18.8709 76.1925 17.3403 76.0981 15.4403C75.8786 11.532 79.8675 7.3903 86.0231 9.8903L86.6342 7.25419Z" fill="#D0CECE"/>
</g>
<mask id="mask1_331_24269" style="mask-type:luminance" maskUnits="userSpaceOnUse" x="72" y="6" width="15" height="17">
<path d="M72.3428 6.00977H86.6344V22.3653H72.3428V6.00977Z" fill="white"/>
</mask>
<g mask="url(#mask1_331_24269)">
<path d="M86.6342 7.25418C78.9175 5.05419 73.4814 8.60418 73.3314 15.5653C73.2648 19.0653 75.6786 21.2514 79.2842 21.2514C80.8564 21.2514 82.2981 20.9514 83.7731 20.3875L84.4509 17.6153C83.0398 18.2708 81.4953 18.8708 79.9064 18.8708C77.3703 18.8708 76.1925 17.3403 76.0981 15.4403C75.8786 11.532 79.8675 7.3903 86.0231 9.89029L86.6342 7.25418Z" stroke="#D0CECE" stroke-width="0.0861563"/>
</g>
<path d="M75.1477 8.52725L75.7172 6.13281H65.5755L64.9922 8.52725H68.5866L65.5755 20.9245H68.6116L71.6366 8.52725H75.1477Z" fill="#D0CECE" stroke="#D0CECE" stroke-width="0.0861563"/>
<mask id="mask2_331_24269" style="mask-type:luminance" maskUnits="userSpaceOnUse" x="12" y="0" width="10" height="7">
<path d="M12.6094 0.749023H21.1427V6.72125H12.6094V0.749023Z" fill="white"/>
</mask>
<g mask="url(#mask2_331_24269)">
<path d="M18.9069 6.10113L18.8319 6.1928L18.7514 6.10668C17.2708 4.53724 15.2931 3.53446 13.1542 3.27057L13.0625 3.25946V0.753906L13.1764 0.765017C16.2097 1.07335 19.0042 2.54557 20.9736 4.87613L21.1042 5.03168L20.9042 5.04835C20.1208 5.10946 19.3986 5.49002 18.9069 6.10113Z" fill="#D0CECE"/>
</g>
<mask id="mask3_331_24269" style="mask-type:luminance" maskUnits="userSpaceOnUse" x="11" y="0" width="11" height="7">
<path d="M11.8984 0.749023H21.854V6.72125H11.8984V0.749023Z" fill="white"/>
</mask>
<g mask="url(#mask3_331_24269)">
<path d="M18.9069 6.1021L18.8319 6.19376L18.7514 6.10765C17.2708 4.53821 15.2931 3.53543 13.1542 3.27155L13.0625 3.26043V0.754883L13.1764 0.765994C16.2097 1.07433 19.0042 2.54655 20.9736 4.8771L21.1042 5.03265L20.9042 5.04932C20.1208 5.11043 19.3986 5.49099 18.9069 6.1021Z" stroke="#D0CECE" stroke-width="0.0861563"/>
</g>
<path d="M23.2482 9.77125L23.3815 9.62402L23.4288 9.81569C23.6315 10.674 23.7315 11.5546 23.726 12.4379C23.7232 14.249 23.2982 16.0351 22.4871 17.6518L22.4343 17.7601L20.376 16.3212L20.4149 16.2407C20.9676 15.049 21.251 13.7518 21.2454 12.4379C21.2454 11.9074 21.201 11.3824 21.1121 10.8601L21.0899 10.7462L21.2065 10.7379C21.9899 10.7046 22.726 10.3574 23.2482 9.77125Z" fill="#D0CECE" stroke="#D0CECE" stroke-width="0.0861563"/>
<mask id="mask4_331_24269" style="mask-type:luminance" maskUnits="userSpaceOnUse" x="0" y="9" width="5" height="10">
<path d="M0.333984 9.56641H4.07565V18.0997H0.333984V9.56641Z" fill="white"/>
</mask>
<g mask="url(#mask4_331_24269)">
<path d="M2.81197 12.4382C2.8092 13.7521 3.09253 15.0493 3.64531 16.241L3.68142 16.3215L1.62586 17.7604L1.57031 17.6549C0.748086 16.0382 0.323086 14.2493 0.334197 12.4382C0.334197 11.6243 0.420308 10.816 0.584197 10.0215L0.623086 9.84375L0.756419 9.96597C1.28975 10.4549 1.98697 10.7299 2.7092 10.7354H2.96753L2.94531 10.8576C2.85642 11.3799 2.81197 11.9076 2.81197 12.4382Z" fill="#D0CECE"/>
</g>
<mask id="mask5_331_24269" style="mask-type:luminance" maskUnits="userSpaceOnUse" x="0" y="8" width="5" height="11">
<path d="M0.333984 8.85449H4.78676V18.81H0.333984V8.85449Z" fill="white"/>
</mask>
<g mask="url(#mask5_331_24269)">
<path d="M2.81197 12.4382C2.8092 13.7521 3.09253 15.0493 3.64531 16.241L3.68142 16.3215L1.62586 17.7604L1.57031 17.6548C0.748086 16.0382 0.323086 14.2493 0.334197 12.4382C0.334197 11.6243 0.420308 10.816 0.584197 10.0215L0.623086 9.84375L0.756419 9.96597C1.28975 10.4549 1.98697 10.7299 2.7092 10.7354H2.96753L2.94531 10.8576C2.85642 11.3799 2.81197 11.9076 2.81197 12.4382Z" stroke="#D0CECE" stroke-width="0.0861563"/>
</g>
<mask id="mask6_331_24269" style="mask-type:luminance" maskUnits="userSpaceOnUse" x="2" y="0" width="10" height="7">
<path d="M2.6543 0.749023H11.1876V6.72125H2.6543V0.749023Z" fill="white"/>
</mask>
<g mask="url(#mask6_331_24269)">
<path d="M5.1957 6.2428L5.10959 6.34002L5.03459 6.23446C4.58459 5.60668 3.90681 5.17891 3.14848 5.04557L2.9707 5.0178L3.09015 4.87891C5.04848 2.53446 7.84848 1.05946 10.8846 0.765017L10.9985 0.753906V3.25946L10.904 3.27057C8.70681 3.54002 6.67904 4.59557 5.1957 6.2428Z" fill="#D0CECE"/>
</g>
<mask id="mask7_331_24269" style="mask-type:luminance" maskUnits="userSpaceOnUse" x="1" y="0" width="11" height="8">
<path d="M1.94238 0.749023H11.8979V7.43236H1.94238V0.749023Z" fill="white"/>
</mask>
<g mask="url(#mask7_331_24269)">
<path d="M5.19473 6.24279L5.10862 6.34001L5.03362 6.23445C4.58362 5.60668 3.90584 5.1789 3.1475 5.04557L2.96973 5.01779L3.08917 4.8789C5.0475 2.53446 7.8475 1.05946 10.8836 0.765017L10.9975 0.753906V3.25946L10.9031 3.27057C8.70584 3.54001 6.67806 4.59557 5.19473 6.24279Z" stroke="#D0CECE" stroke-width="0.0861563"/>
</g>
<path d="M4.75388 18.1045L4.815 18.1795C5.99 19.6573 7.58999 20.7406 9.4011 21.285L9.51499 21.3184L9.46499 21.4295C9.27888 21.8212 9.18166 22.2489 9.17888 22.6823C9.17888 23.0184 9.23722 23.3545 9.35111 23.6712L9.41499 23.8545L9.22888 23.8073C6.66777 23.1767 4.39555 21.6962 2.78444 19.6017L2.71777 19.5156L4.75388 18.1045Z" fill="#D0CECE" stroke="#D0CECE" stroke-width="0.0861563"/>
<path d="M14.5957 21.4324L14.543 21.3213L14.6596 21.288C16.468 20.7435 18.068 19.6602 19.2457 18.1824L19.3069 18.1074L21.3402 19.5213L21.2735 19.6074C19.6541 21.6935 17.3846 23.1741 14.8291 23.813L14.6402 23.8602L14.7069 23.6769C14.8207 23.3602 14.8791 23.0241 14.8791 22.688C14.8763 22.2519 14.7791 21.8241 14.5957 21.4324Z" fill="#D0CECE" stroke="#D0CECE" stroke-width="0.0861563"/>
<mask id="mask8_331_24269" style="mask-type:luminance" maskUnits="userSpaceOnUse" x="0" y="5" width="24" height="20">
<path d="M0.520508 5.29883H23.2761V24.7377H0.520508V5.29883Z" fill="white"/>
</mask>
<g mask="url(#mask8_331_24269)">
<path d="M21.1234 9.93203C19.9928 9.93203 19.0762 9.01536 19.0762 7.88203C19.0734 6.75148 19.99 5.83203 21.1206 5.83203C22.2512 5.83203 23.1678 6.7487 23.1678 7.88203C23.1678 9.01259 22.2512 9.93203 21.1234 9.93203ZM2.70948 9.93203C1.57893 9.93203 0.665039 9.01536 0.665039 7.88203C0.665039 6.7487 1.57893 5.83203 2.70948 5.83203C3.84004 5.83203 4.75671 6.7487 4.75671 7.88203C4.75671 9.01536 3.84004 9.93203 2.70948 9.93203ZM12.0289 24.7376C10.9011 24.7376 9.98448 23.8209 9.98171 22.6876C9.98171 21.557 10.8984 20.6376 12.0289 20.6376C13.1595 20.6376 14.0734 21.5543 14.0762 22.6876C14.0762 23.8209 13.1595 24.7376 12.0289 24.7376Z" fill="#D0CECE"/>
</g>
<mask id="mask9_331_24269" style="mask-type:luminance" maskUnits="userSpaceOnUse" x="0" y="5" width="24" height="20">
<path d="M0.333984 5.29883H23.9868V24.7377H0.333984V5.29883Z" fill="white"/>
</mask>
<g mask="url(#mask9_331_24269)">
<path d="M21.1224 9.93202C19.9918 9.93202 19.0752 9.01536 19.0752 7.88203C19.0724 6.75147 19.9891 5.83203 21.1196 5.83203C22.2502 5.83203 23.1668 6.7487 23.1668 7.88203C23.1668 9.01258 22.2502 9.93202 21.1224 9.93202ZM2.70851 9.93202C1.57795 9.93202 0.664062 9.01536 0.664062 7.88203C0.664062 6.7487 1.57795 5.83203 2.70851 5.83203C3.83906 5.83203 4.75573 6.7487 4.75573 7.88203C4.75573 9.01536 3.83906 9.93202 2.70851 9.93202ZM12.028 24.7376C10.9002 24.7376 9.98351 23.8209 9.98073 22.6876C9.98073 21.557 10.8974 20.6376 12.028 20.6376C13.1585 20.6376 14.0724 21.5542 14.0752 22.6876C14.0752 23.8209 13.1585 24.7376 12.028 24.7376Z" stroke="#D0CECE" stroke-width="0.0861563"/>
</g>
<path d="M14.893 10.4795C14.5291 11.96 12.2569 11.2072 11.5069 11.0267L12.1652 8.43224C12.893 8.59057 15.2569 8.95446 14.893 10.4822V10.4795ZM14.4847 14.6906C14.0763 16.3295 11.3486 15.4433 10.4625 15.2156L11.1875 12.3461C12.0486 12.5739 14.893 13.0072 14.4847 14.6906ZM14.8486 7.49613L15.3708 5.35447L14.0763 5.01002L13.5513 7.10724C13.2069 7.01836 12.8708 6.94891 12.5069 6.85724L13.0291 4.7628L11.7375 4.44336L11.193 6.58502C10.918 6.51558 10.6236 6.44891 10.3513 6.40169L8.55135 5.94613L8.2069 7.33502L9.16246 7.5628C9.68468 7.70169 9.77635 8.04335 9.77635 8.31558L9.16246 10.7517C9.2069 10.7739 9.25135 10.7739 9.29857 10.7989C9.25135 10.7739 9.21246 10.7739 9.16246 10.7517L8.32079 14.1906C8.25135 14.3489 8.09301 14.6017 7.72912 14.51C7.75135 14.5322 6.77635 14.2822 6.77635 14.2822L6.11523 15.785L7.80134 16.1961C8.12079 16.2878 8.41523 16.3572 8.73468 16.4489L8.18746 18.6128L9.48468 18.9322L10.0291 16.7906C10.3736 16.8822 10.7347 16.9739 11.0763 17.0628L10.5291 19.1822L11.8208 19.4989L12.368 17.3378C14.5958 17.7461 16.2541 17.5878 16.9597 15.585C17.5263 13.9683 16.9375 13.01 15.7541 12.4183C16.6402 12.2378 17.2763 11.6683 17.4569 10.5072C17.6902 8.90724 16.4847 8.06558 14.8486 7.49613Z" fill="#D0CECE"/>
<path d="M9.16246 10.7517L9.77634 8.31558C9.77634 8.04335 9.68468 7.70169 9.16246 7.5628L8.2069 7.33502L8.55135 5.94613L10.3513 6.40169C10.6236 6.44891 10.918 6.51558 11.193 6.58502L11.7375 4.44336L13.0291 4.7628L12.5069 6.85724C12.8708 6.94891 13.2069 7.01836 13.5513 7.10724L14.0763 5.01002L15.3708 5.35447L14.8486 7.49613C16.4847 8.06558 17.6902 8.90724 17.4569 10.5072C17.2763 11.6683 16.6402 12.2378 15.7541 12.4183C16.9375 13.01 17.5263 13.9683 16.9597 15.585C16.2541 17.5878 14.5958 17.7461 12.368 17.3378L11.8208 19.4989L10.5291 19.1822L11.0763 17.0628C10.7347 16.9739 10.3736 16.8822 10.0291 16.7906L9.48468 18.9322L8.18746 18.6128L8.73468 16.4489C8.41523 16.3572 8.12079 16.2878 7.80134 16.1961L6.11523 15.785L6.77635 14.2822C6.77635 14.2822 7.75135 14.5322 7.72912 14.51C8.09301 14.6017 8.25135 14.3489 8.32079 14.1906L9.16246 10.7517ZM9.16246 10.7517C9.2069 10.7739 9.25135 10.7739 9.29857 10.7989C9.25135 10.7739 9.21246 10.7739 9.16246 10.7517ZM14.893 10.4795C14.5291 11.96 12.2569 11.2072 11.5069 11.0267L12.1652 8.43224C12.893 8.59057 15.2569 8.95446 14.893 10.4822V10.4795ZM14.4847 14.6906C14.0763 16.3295 11.3486 15.4433 10.4625 15.2156L11.1875 12.3461C12.0486 12.5739 14.893 13.0072 14.4847 14.6906Z" stroke="#D0CECE" stroke-width="0.0861563"/>
</g>
<defs>
<clipPath id="clip0_331_24269">
<rect width="86" height="23" fill="white" transform="translate(0.5 0.765625)"/>
</clipPath>
</defs>
</svg>
